<svg id="Layer_1" data-name="Layer 1" xmlns="http://www.w3.org/2000/svg" xmlns:xlink="http://www.w3.org/1999/xlink" width="1980mm" height="1080mm" viewBox="0 0 5612.6 3061.42"><defs><style>.cls-1,.cls-16{fill:none;}.cls-2{fill:#f2c9e1;}.cls-3{fill:#c2a2cc;}.cls-4,.cls-6{fill:#b3b3b3;}.cls-5{fill:#999;}.cls-6{stroke:#999;stroke-miterlimit:10;stroke-width:23px;}.cls-7{fill:#808081;}.cls-8{clip-path:url(#clip-path);}.cls-9{clip-path:url(#clip-path-2);}.cls-10{fill:#f1e204;}.cls-11{fill:#e1c19e;}.cls-12{fill:#eccaa5;}.cls-13{fill:#e25a9c;}.cls-14{fill:#ddbe9b;}.cls-15{fill:#ef8095;}.cls-16{stroke:#ef8095;stroke-linecap:round;stroke-linejoin:round;stroke-width:1.27px;}.cls-17{fill:#6495bf;}.cls-18{fill:#d98faa;}.cls-19{fill:#c54191;}.cls-20{fill:#5c88ae;}.cls-21{fill:#fff;}.cls-22{fill:#a980b8;}.cls-23{fill:#1d1d1b;}.cls-24{fill:#f2d5e6;}.cls-25{fill:#001400;}.cls-26{fill:#efe88c;}.cls-27{fill:#d96b94;}.cls-28{clip-path:url(#clip-path-4);}.cls-29{fill:#eb92a7;}.cls-30{fill:#d7bedd;}.cls-31{fill:#bf4061;}</style><clipPath id="clip-path"><rect class="cls-1" x="107.83" y="693.98" width="1267.74" height="2259.16"/></clipPath><clipPath id="clip-path-2"><rect class="cls-1" x="107.83" y="693.97" width="1267.74" height="2259.16"/></clipPath><clipPath id="clip-path-4"><rect class="cls-1" x="1199.35" y="1016.48" width="164.14" height="150.79" transform="translate(-106.24 2045.09) rotate(-74.92)"/></clipPath></defs><rect class="cls-2" x="425.2" y="2705.71" width="425.2" height="355.71"/><rect class="cls-3" y="2705.71" width="425.2" height="355.71"/><rect class="cls-3" width="5612.6" height="1778.03"/><rect class="cls-4" y="1778.03" width="5612.6" height="927.68"/><rect class="cls-4" x="2806.3" width="2806.3" height="1086.35"/><rect class="cls-3" x="850.39" y="2705.71" width="425.2" height="355.71"/><rect class="cls-2" x="1275.59" y="2705.71" width="425.2" height="355.71"/><rect class="cls-3" x="1700.79" y="2705.71" width="425.2" height="355.71"/><rect class="cls-2" x="2125.98" y="2705.71" width="425.2" height="355.71"/><rect class="cls-3" x="2551.18" y="2705.71" width="425.2" height="355.71"/><rect class="cls-2" x="2976.38" y="2705.71" width="425.2" height="355.71"/><rect class="cls-3" x="3401.57" y="2705.71" width="425.2" height="355.71"/><rect class="cls-2" x="3826.77" y="2705.71" width="425.2" height="355.71"/><rect class="cls-3" x="4251.97" y="2705.71" width="425.2" height="355.71"/><rect class="cls-2" x="4677.17" y="2705.71" width="425.2" height="355.71"/><rect class="cls-3" x="5102.36" y="2705.71" width="425.2" height="355.71"/><rect class="cls-2" x="5527.56" y="2705.71" width="85.04" height="355.71"/><rect class="cls-5" y="2705.71" width="5612.6" height="73.83"/><rect class="cls-6" x="2806.3" y="1788.89" width="1020.47" height="927.68"/><rect class="cls-6" x="3826.77" y="1788.89" width="1020.47" height="927.68"/><rect class="cls-6" x="4847.24" y="1788.89" width="765.35" height="927.68"/><rect class="cls-6" x="2820.98" y="15.85" width="1020.47" height="1070.5"/><rect class="cls-6" x="3841.45" y="15.85" width="1020.47" height="1070.5"/><rect class="cls-6" x="4861.92" y="15.85" width="750.68" height="1070.5"/><rect class="cls-6" x="1800.5" y="1788.89" width="1020.47" height="927.68"/><rect class="cls-6" x="850.39" y="1788.89" width="1020.47" height="927.68"/><rect class="cls-6" y="1788.89" width="850.39" height="927.68"/><rect class="cls-5" x="4212.65" y="650.03" width="23" height="2806.35" transform="translate(2163.42 6273.69) rotate(-89.9)"/><rect class="cls-7" x="3666.63" y="2219.28" width="52.46" height="334.37" rx="26.23"/><rect class="cls-7" x="3934.81" y="2219.28" width="52.46" height="334.37" rx="26.23"/><rect class="cls-7" x="4950.12" y="2219.28" width="52.46" height="334.37" rx="26.23"/><rect class="cls-7" x="1674.56" y="2052.09" width="52.46" height="334.37" rx="26.23"/><rect class="cls-7" x="663.01" y="2014.56" width="52.46" height="334.37" rx="26.23"/><rect class="cls-7" x="3224.91" y="1909.81" width="212.6" height="48.52" rx="24.26"/><rect class="cls-7" x="4230.71" y="1909.81" width="212.6" height="48.52" rx="24.26"/><rect class="cls-7" x="5221.86" y="1909.81" width="212.6" height="48.52" rx="24.26"/><rect class="cls-7" x="1953.14" y="1934.07" width="770.88" height="72.16" rx="24.26"/><rect class="cls-7" x="3666.63" y="597.5" width="52.46" height="334.37" rx="26.23"/><rect class="cls-7" x="3934.81" y="597.5" width="52.46" height="334.37" rx="26.23"/><rect class="cls-7" x="4950.12" y="597.5" width="52.46" height="334.37" rx="26.23"/><rect class="cls-7" y="1504.99" width="5612.6" height="273.05"/><g id="Artwork_21" data-name="Artwork 21"><g class="cls-8"><g class="cls-9"><path class="cls-10" d="M376.28,745.9H616.33a87.48,87.48,0,0,1,85.9,70.92l174.63,905.82a1.9,1.9,0,0,1-.21,1.26c-66.53,116.93-56.88,73.29-88.07,89.12-.6.3-37.71-45.67-37.71-45v28.72c0,36.4,21,116.83-39.69,94.32-69-25.61-433.88-29.81-476.95-5.64-23.84,13.38-47.58-17.09-43.71-76.49-2.94-35.89-35.3-26.54-36-26.28-78.87,28.09-35.42-86-28.62-120.9L290.41,816.66a87.47,87.47,0,0,1,85.87-70.76"/><path class="cls-11" d="M515.38,1433.43H469.33a26.93,26.93,0,0,1-26.92-26.93l7.69-66.83c0-14.87,4.36-19.23,19.23-19.23h46.05c14.88,0,16.73,1.85,16.73,16.72l10.2,69.34a26.93,26.93,0,0,1-26.93,26.93"/><path class="cls-12" d="M389.15,1307.52l-4-3.14c-1.76-1.38-3.6-2.65-5.47-3.88-37.56-24.7-55.59-62.37-74.24-103.79-13.87-30.8-11.21-62-13.73-87.48-.81-8.09-1.53-17,0-25L313.17,901.3c9.92-72.34,31.59-185.42,104.61-185.42h168c73.09,0,91.57,111.64,100.42,185.22q.34,2.8.46,5.64l8.79,217.65c.06,1.66.2,3.32.38,5,3.67,35.11-6,57.94-19.14,92.2-3.19,8.34,5.63-11,0,0-.09.19-.5,1.06-1.12,2.42a228.63,228.63,0,0,1-42.1,62.25l-.19.2c-4.29,5.16-16.51,12.65-22.06,16.42-12,8.18-39.29,26.34-44.19,29-67.57,36.39-99.76,38-158.36-11.39-2.37-2-8-5.35-12.19-7.89a73,73,0,0,1-7.32-5"/><path class="cls-10" d="M657.28,717c44.3,31.12,52.9,130.35,35.39,165.92-27.8,56.47-150.38-102.59-140.2-27.09,7.07,52.4-84.81-130.27-50.84-149.23,31.91-17.8,113.78-19,155.65,10.4"/><path class="cls-10" d="M377.81,705.28c-46.89,10.6-95.2,93.79-75,121.19s109.28,6.52,148-22,64.12-86.1,33.66-101.22c-28.62-14.21-59.73-8.6-106.65,2"/><path class="cls-12" d="M629,2070.94H366.89a42.52,42.52,0,0,1-42.52-42.52V1458.21a42.52,42.52,0,0,1,42.52-42.51H629a42.51,42.51,0,0,1,42.51,42.51v570.21A42.52,42.52,0,0,1,629,2070.94"/><path class="cls-12" d="M516.63,2830l-34.63.32c-23.48,0-60.61-3.45-60.61-30.86l-74.08-736.3c0-27.41,71.62-34.06,95.1-34.06h99.9c23.48,0,96.83,0,108.05,39.3l-74.8,739c0,27.41-35.45,22.63-58.93,22.63"/><path class="cls-13" d="M664,1801.16H327.22a7,7,0,0,1-7-7.64c1.38-14.07,4.1-44.23,4.1-61.8V1458.21a42.52,42.52,0,0,1,42.52-42.51H629a42.51,42.51,0,0,1,42.51,42.51v335.45a7.5,7.5,0,0,1-7.5,7.5"/><line class="cls-12" x1="495.89" y1="2198.45" x2="498.84" y2="2830.14"/><rect class="cls-11" x="492.93" y="2198.45" width="8.87" height="631.69" transform="translate(-11.72 2.35) rotate(-0.27)"/><path class="cls-14" d="M503.08,1857.19c0,7.94-3.22,14.37-7.19,14.37s-7.18-6.43-7.18-14.37,3.21-14.37,7.18-14.37,7.19,6.43,7.19,14.37"/><path class="cls-15" d="M382.06,1941.93l-59.4-67.6a3.92,3.92,0,1,1,5.89-5.17l59.4,67.6a3.92,3.92,0,1,1-5.89,5.17"/><path class="cls-16" d="M382.06,1941.93l-59.4-67.6a3.92,3.92,0,1,1,5.89-5.17l59.4,67.6a3.92,3.92,0,1,1-5.89,5.17Z"/><path class="cls-15" d="M613.84,1945.39l59.41-67.59a3.92,3.92,0,0,0-5.89-5.18L608,1940.22a3.92,3.92,0,0,0,5.89,5.17"/><path class="cls-16" d="M613.84,1945.39l59.41-67.59a3.92,3.92,0,0,0-5.89-5.18L608,1940.22a3.92,3.92,0,0,0,5.89,5.17Z"/><polygon class="cls-17" points="690.86 2198.45 303.33 2198.45 324.37 1940.79 671.54 1940.79 690.86 2198.45"/><path class="cls-12" d="M299.81,1755c0,143.39,18.87,259.63-18.78,259.63S212.85,1898.39,212.85,1755s34.58-276.63,68.18-259.63c75.46,38.18,18.78,116.24,18.78,259.63"/><path class="cls-13" d="M241.66,1541.85c-29.82-21.7-5.45-35.81,18.06-68.13s90.59-73.69,120.42-52S356.58,1546.64,333.07,1579s-61.58-15.41-91.41-37.11"/><path class="cls-12" d="M925.22,1498c141.45-23.53,253-61.22,259.2-24.07s-103.48,86.32-244.93,109.84-278.55,11.28-267.3-24.65c25.28-80.71,111.59-37.6,253-61.12"/><path class="cls-13" d="M748.85,1524.36c26.42-25.74.29-36.23-27.6-64.85s-100.18-60-126.61-34.27,41.16,120.26,69,148.89,58.75-24,85.17-49.77"/><rect class="cls-18" x="1054.29" y="1434.71" width="55.79" height="123.21" transform="translate(-451.88 468.34) rotate(-20.3)"/><path class="cls-18" d="M319.11,2084.89c13.15,20,33.31,30,45,22.28s10.58-30.17-2.57-50.18-33.31-30-45-22.28-10.58,30.17,2.57,50.18"/><path class="cls-11" d="M542.31,1412.76h-99.9c0,11.42,22.36,20.67,49.95,20.67s49.95-9.25,49.95-20.67"/><path class="cls-19" d="M704.41,2937.6c16,23.28-107.59-2.85-155.37-34.77s-73.8-76.84-58.11-100.33,72.33-23.3,114.93,15.27c50.68,45.88,63,68.15,98.55,119.83"/><path class="cls-19" d="M280.65,2937.6c-16,23.28,107.58-2.85,155.37-34.77s73.8-76.84,58.11-100.33-72.33-23.3-114.93,15.27c-50.68,45.88-63,68.15-98.55,119.83"/><polygon class="cls-19" points="575.56 2807.34 421.39 2799.43 408.39 2670.18 592.54 2670.18 575.56 2807.34"/><polygon class="cls-19" points="466.35 2946.51 436.87 2826.43 497.53 2823.67 466.35 2946.51"/><polygon class="cls-19" points="518.19 2953.13 488.71 2833.05 549.37 2830.29 518.19 2953.13"/><line class="cls-13" x1="501.21" y1="2670.27" x2="493.51" y2="2850.93"/><polygon class="cls-13" points="489.09 2850.65 496.79 2669.99 505.64 2670.55 497.94 2851.21 489.09 2850.65"/><path class="cls-11" d="M564.58,2409.7c1.33-7,8.25-3.5,12.42,9.23,6.59,20.11,1.55,32.57-3.13,34.1-5.65,1.85-14.15-11.34-6.79-22.14,3.26-4.77-3.59-15.43-2.5-21.19"/><path class="cls-11" d="M445.88,2410.27c-1.33-7-8.24-3.49-12.42,9.24-6.59,20.11-1.55,32.57,3.13,34.1,5.65,1.85,14.15-11.35,6.79-22.14-3.26-4.77,3.59-15.44,2.5-21.2"/><polygon class="cls-20" points="677.71 2023.09 569.25 1941.17 669.79 1940.79 677.71 2023.09"/><polygon class="cls-20" points="317.56 2025.34 423.99 1940.79 323.46 1942.88 317.56 2025.34"/><path class="cls-18" d="M253.57,2173.14c-40-9.48-91.42-57.58-71.39-142,17.9-75.43,38.9-102.46,80-103.49,84.93-2.11,72.91,101.38,71.21,178.89s-35.4,77.11-79.86,66.58"/><rect class="cls-18" x="200.31" y="1920.37" width="123.21" height="55.79" transform="translate(-40.39 5.86) rotate(-1.19)"/><path class="cls-20" d="M480.88,1968.35a15,15,0,1,1,15,15,15,15,0,0,1-15-15"/><path class="cls-21" d="M315,1062.43a80.63,80.63,0,0,1,19.37-112.37c36.38-25.68,108.09-31.44,133.77,4.93s-4.38,101.13-40.76,126.81A80.64,80.64,0,0,1,315,1062.43"/><path class="cls-21" d="M690.53,1042.07a80.63,80.63,0,0,1-100.66,53.57c-42.59-13-91.1-66.12-78.1-108.71S594.36,928.4,637,941.41a80.64,80.64,0,0,1,53.58,100.66"/><path class="cls-22" d="M511.77,986.93s34.79,21.92,90.07,12.5c57.14-9.74,92.38,5.74,92.38,5.74,1.43-49.19-47.87-75.92-92-75.92-45.57,0-97,4.16-90.43,57.68"/><path class="cls-22" d="M309.21,978.91S348.81,968,392,968s83.79,3.9,83.79,3.9c1.9-26.61-48.4-49.34-83.76-42.69-34.5,6.49-71.81,16.08-82.84,49.66"/><path class="cls-23" d="M511.77,986.93s34.79,21.92,90.07,12.5c57.14-9.74,92.38,5.74,92.38,5.74-22.75-34-80.16-10.62-124.31-10.62-45.57,0-64.14-34.75-58.14-7.62"/><path class="cls-23" d="M309.21,978.91S348.81,968,392,968s83.79,3.9,83.79,3.9c.05-13.51-48.06-11-86.84-9.87-35.1,1-74.66-.05-79.76,16.84"/></g><path class="cls-24" d="M358.74,1510.08h48.57v12.77H391v38.94H375v-38.94h-16.3Z"/><path class="cls-24" d="M414.61,1510.08h16v18.09h17.46v-18.09H464.1v51.71H448.05v-20.92H430.59v20.92h-16Z"/><path class="cls-24" d="M506.51,1553.25H488.37l-2.52,8.54H469.53L489,1510.08H506.4l19.43,51.71H509.09Zm-3.32-11.18-5.71-18.59-5.64,18.59Z"/><path class="cls-24" d="M522.36,1510.08h48.57v12.77h-16.3v38.94h-16v-38.94h-16.3Z"/><path class="cls-24" d="M575.37,1544.68l15.21-1a11.59,11.59,0,0,0,2,5.64,8.42,8.42,0,0,0,7,3.14,7.84,7.84,0,0,0,5.28-1.6,4.82,4.82,0,0,0,1.85-3.72,4.75,4.75,0,0,0-1.77-3.6q-1.75-1.59-8.18-3-10.52-2.37-15-6.28a12.63,12.63,0,0,1-4.52-10,13.48,13.48,0,0,1,2.32-7.53,15.26,15.26,0,0,1,6.94-5.57c3.1-1.36,7.33-2,12.72-2q9.91,0,15.11,3.68t6.19,11.73l-15.06.88a7,7,0,0,0-7.83-6.66,6.41,6.41,0,0,0-4.2,1.18,3.61,3.61,0,0,0-1.41,2.87,2.88,2.88,0,0,0,1.17,2.23q1.13,1,5.36,1.9,10.47,2.27,15,4.57a15.73,15.73,0,0,1,6.59,5.73,14.48,14.48,0,0,1,2.07,7.65,16.39,16.39,0,0,1-2.75,9.17,17.22,17.22,0,0,1-7.69,6.37,31.05,31.05,0,0,1-12.45,2.17q-13.2,0-18.28-5.08A20.07,20.07,0,0,1,575.37,1544.68Z"/><path class="cls-24" d="M411.06,1596.76h16v18.1H444.5v-18.1h16.05v51.71H444.5v-20.91H427v20.91h-16Z"/><path class="cls-24" d="M469.15,1622.65q0-12.66,7.06-19.71t19.64-7.06q12.91,0,19.9,6.93t7,19.42q0,9.06-3.05,14.87a21.68,21.68,0,0,1-8.82,9q-5.76,3.22-14.37,3.23T482,1646.57a21.79,21.79,0,0,1-9.29-8.82Q469.15,1631.72,469.15,1622.65Zm16,.08q0,7.83,2.91,11.25a11,11,0,0,0,15.89.07q2.82-3.36,2.82-12,0-7.3-2.94-10.67a10.06,10.06,0,0,0-8-3.37,9.71,9.71,0,0,0-7.76,3.42Q485.14,1614.82,485.13,1622.73Z"/><path class="cls-24" d="M525.9,1596.76h48.57v12.77h-16.3v38.94h-16v-38.94H525.9Z"/><path class="cls-24" d="M580.78,1596.76h15.35v11.79l-3,23.66h-9.48l-2.9-23.66Zm.53,39h14.32v12.66H581.31Z"/><g class="cls-9"><path class="cls-23" d="M702.17,972.43l-13,27.47-10.91-8,22.24-20.67a1,1,0,0,1,1.63,1.18"/><path class="cls-23" d="M682.22,971.51l-3.54,22-10.31-3.91,12-18.85a1,1,0,0,1,1.88.71"/><path class="cls-23" d="M665.79,967.71l3.2,22.1-11-.66,5.81-21.56a1,1,0,0,1,2,.12"/><path class="cls-23" d="M654.48,972.08l3.2,22.1-11-.66L652.48,972a1,1,0,0,1,2,.12"/><path class="cls-23" d="M300.69,949.79l13.2,27.36,10.84-8.08-22.42-20.48a1,1,0,0,0-1.62,1.2"/><path class="cls-23" d="M320.64,948.7l3.72,22,10.28-4L322.5,948a1,1,0,0,0-1.86.73"/><path class="cls-23" d="M337,944.75l-3,22.13,11-.76-6-21.5a1,1,0,0,0-2,.13"/><path class="cls-23" d="M348.37,949l-3,22.12,11-.75-6-21.51a1,1,0,0,0-2,.14"/><path class="cls-25" d="M413.42,1005.17a12.35,12.35,0,1,1,12.35,12.35,12.35,12.35,0,0,1-12.35-12.35"/><path class="cls-25" d="M542.31,1025.26a12.36,12.36,0,1,1,12.35,12.35,12.35,12.35,0,0,1-12.35-12.35"/><path class="cls-26" d="M660.74,923.83c0,3.6-29.27-21.64-62.32-21.64s-65.57,8.6-65.57,5c0-16.52,32.51-16.52,65.57-16.52s62.32,29.56,62.32,33.16"/><path class="cls-11" d="M506.51,897.05c2.55,14.92,5.1,30,4.44,45.19-.65,14.84-5.39,28.89-9.14,43.14a236.5,236.5,0,0,0,3.55,132.31c1.24,3.87,7.36,2.22,6.11-1.68a230.89,230.89,0,0,1-10.7-84.3,226.55,226.55,0,0,1,6.4-41.75c3.62-14.41,8.56-28.5,9.83-43.39,1.48-17.17-1.49-34.34-4.38-51.2a3.2,3.2,0,0,0-3.9-2.22,3.25,3.25,0,0,0-2.21,3.9"/><path class="cls-11" d="M523,1108.85q1.06,6.64,2.14,13.27l1,6.33a16,16,0,0,1,.4,2.75c0,.14-.07.62,0,.56.09-.36-.11,0-.11,0a20.45,20.45,0,0,1-2.78.39,23.44,23.44,0,0,0-4.73.27c-3.3.67-6.56,3.15-6.31,6.84a3.24,3.24,0,0,0,3.17,3.17,3.2,3.2,0,0,0,3.17-3.17c0-.59-.09-.29-.13,0s.22-.14,0-.06a7.37,7.37,0,0,1,1.35-.56,19.34,19.34,0,0,1,3.84-.13c3.48-.09,7.27-1.18,8.52-4.82.7-2.06.17-4.23-.17-6.3s-.71-4.42-1.07-6.64l-2.19-13.56c-.27-1.69-2.38-2.63-3.9-2.21a3.23,3.23,0,0,0-2.21,3.89"/><path class="cls-11" d="M496.8,1141.91H482.49a3.17,3.17,0,1,0,0,6.33H496.8a3.17,3.17,0,1,0,0-6.33"/><path class="cls-11" d="M475.65,1140.79c0-2.79-.09-5.58-.13-8.37a3.16,3.16,0,0,0-1.57-2.73c-3-1.51-5.45-.45-8.36.55-1.85.64-3.16.33-4.55-1.37-3.37-4.14-.26-10,1.88-14.22,1.85-3.62-3.61-6.83-5.47-3.2-3.13,6.11-6.38,13.66-2.22,20.13a11.08,11.08,0,0,0,7.66,5.25,9.86,9.86,0,0,0,4.8-.63c.68-.25,1.35-.55,2-.77.1,0,.77-.26.75-.24s.52.09.27,0c-.52-.91-1-1.83-1.57-2.74q.07,4.18.13,8.37c.06,4.07,6.4,4.08,6.34,0"/><path class="cls-24" d="M422.46,1228.3s37.14-7.82,64.13-6.61c29,1.3,70.25,11.17,70.25,11.17s-45.15,33.63-73.66,31.32c-25.49-2.07-60.72-35.88-60.72-35.88"/><path class="cls-24" d="M427.49,1233.15l57,11.67a3.26,3.26,0,0,0,3.9-2.21,3.2,3.2,0,0,0-2.22-3.9l-57-11.66a3.24,3.24,0,0,0-3.9,2.21,3.19,3.19,0,0,0,2.21,3.89"/><path class="cls-24" d="M427.41,1233c16,2.44,30.51,11.63,47,11.46,4.08,0,4.09-6.38,0-6.34-15.84.16-29.91-8.88-45.34-11.23a3.27,3.27,0,0,0-3.9,2.21c-.41,1.5.51,3.64,2.22,3.9"/><path class="cls-24" d="M446.43,1224.26s21.49-7.09,28.7-7.21c7.74-.14,16.54,6.74,16.54,6.74s-9.14,6.49-16.77,6.31c-6.82-.17-28.47-5.84-28.47-5.84"/><path class="cls-24" d="M487.24,1221.42s9.2-5.3,16.34-4.33c7.67,1,26.21,10.15,26.21,10.15s-20.89,4-28.41,2.71c-6.71-1.19-14.14-8.53-14.14-8.53"/><path class="cls-2" d="M431.14,1233c31.5,1.27,63,2.74,94.52,3.79a193,193,0,0,0,26.35-.63c1.61-.17,5.21-2.2,4.82-3.28-.47-1.34-4.8-1.34-6.41-1.17a171.25,171.25,0,0,1-22.43.53c-7.8-.21-15.64-1.73-23.4-.9-15.22,1.63-30.58,2.61-47.07-1.89-8.49-2.31-24.39-1.18-33.19-1.53-3.86-.16,3,4.93,6.81,5.08"/><path class="cls-21" d="M528.3,1242.93c-14.7,13.19-28,12.71-31.52,8.81"/><path class="cls-12" d="M276.36,1071.53c-11.18.21-22.51-24-22.93-44.86-.46-22.4,11.54-48.07,22.93-47.87s22,26.46,21.41,48.54c-.56,19.74-10.33,44-21.41,44.19"/><path class="cls-12" d="M716.23,1104.52c-11.17.21-22.5-24-22.93-44.86-.45-22.4,11.55-48.08,22.93-47.87s22,26.46,21.42,48.54c-.56,19.73-10.33,44-21.42,44.19"/><path class="cls-26" d="M318.54,923.83c0,3.6,29.28-21.64,62.33-21.64s65.56,8.6,65.56,5c0-16.52-32.51-16.52-65.56-16.52s-62.33,29.56-62.33,33.16"/><path class="cls-10" d="M341.21,860.41c0,28.43,25.56,111.36-17.48,60.36-10-11.8-16.26-31.93-16.26-60.36S322.57,809,341.21,809s0,23,0,51.46"/><path class="cls-27" d="M724,1096.16c0,7.22-3.78,13.07-8.45,13.07s-8.44-5.85-8.44-13.07,3.78-13.07,8.44-13.07,8.45,5.85,8.45,13.07"/><path class="cls-27" d="M283.43,1071.14c0,7.22-3.78,13.07-8.44,13.07s-8.45-5.85-8.45-13.07,3.79-13.07,8.45-13.07,8.44,5.85,8.44,13.07"/><path class="cls-4" d="M1156.67,1584.84h0a20.14,20.14,0,0,1-14.21-24.68l65.34-242.47a20.14,20.14,0,0,1,38.89,10.47l-65.34,242.48a20.12,20.12,0,0,1-24.68,14.2"/><path class="cls-11" d="M556.86,1212.06c16.42,7.11,18.55,24,15.24,31.67"/><path class="cls-18" d="M1297.4,1430.59c4.14,40.93-24.48,105.23-110.78,113.94-77.14,7.78-109.56-3.22-124-41.75-29.81-79.56,71.92-102.09,145.71-125.85s84.45,8.21,89.06,53.66"/><path class="cls-18" d="M1198.51,1387.18c7.65-25.55,1.67-49.9-13.37-54.4s-33.41,12.55-41.06,38.1-1.66,49.9,13.37,54.4,33.41-12.56,41.06-38.1"/><path class="cls-7" d="M1229.87,1301a216.29,216.29,0,0,1-14-57.44,220.1,220.1,0,0,1,1.88-59.12,217.69,217.69,0,0,1,8.22-32.68c1.3-3.87-4.82-5.54-6.11-1.68a222.89,222.89,0,0,0-11.19,59.5,227,227,0,0,0,5.08,60.34,217.42,217.42,0,0,0,10,32.76,3.26,3.26,0,0,0,3.89,2.22c1.52-.42,2.85-2.3,2.22-3.9"/><path class="cls-7" d="M1241.51,1307.42c15.55-13.49,31.14-27.14,44.27-43.06,13-15.71,23.5-33.7,28.21-53.66a91.07,91.07,0,0,0,1.67-34c-.25-1.69-2.4-2.62-3.9-2.21a3.25,3.25,0,0,0-2.21,3.9c2.73,19-2.25,38.53-10.92,55.44-9,17.61-22.12,32.64-36.29,46.3-8.17,7.88-16.73,15.35-25.31,22.79a3.2,3.2,0,0,0,0,4.48,3.24,3.24,0,0,0,4.48,0"/><path class="cls-7" d="M1236.08,1304c-2.84-36.7-5.76-74.24,1.46-110.63a181.09,181.09,0,0,1,8.5-29.61,3.18,3.18,0,0,0-2.21-3.9,3.24,3.24,0,0,0-3.9,2.22c-13.48,35-14.35,73.17-12.37,110.17.56,10.59,1.37,21.17,2.19,31.75a3.24,3.24,0,0,0,3.16,3.17,3.19,3.19,0,0,0,3.17-3.17"/><path class="cls-7" d="M1237.52,1306.45a180.11,180.11,0,0,0,29.29-47.29,185.12,185.12,0,0,0,13.81-54.52,175.77,175.77,0,0,0,.19-31.37,3.26,3.26,0,0,0-3.17-3.17,3.18,3.18,0,0,0-3.17,3.17,174.29,174.29,0,0,1-3.87,53.83,178.25,178.25,0,0,1-20,50.2A169.8,169.8,0,0,1,1233,1302a3.26,3.26,0,0,0,0,4.48,3.19,3.19,0,0,0,4.48,0"/><path class="cls-7" d="M1234.43,1302.5q9.48-52.24,21.76-103.92,3.48-14.58,7.17-29.11c1-4-5.11-5.64-6.11-1.69q-13.08,51.46-23.36,103.58-2.9,14.7-5.57,29.46a3.25,3.25,0,0,0,2.21,3.89,3.2,3.2,0,0,0,3.9-2.21"/></g><g class="cls-28"><path class="cls-15" d="M1340.88,1161c-5.61,20.83-40.6,20.94-80.81,10.11s-69.21-32.93-64.79-49.34c6.92-25.68,39.47-15.62,80.81-10.11s69.21,32.92,64.79,49.34"/><path class="cls-15" d="M1341.59,1124.09c-8.77,15.24-37.07,23.18-72.52,13.63S1214,1106,1213.21,1089.5c-.78-17.42,37.07-23.18,72.52-13.62s64.59,33,55.86,48.21"/><path class="cls-15" d="M1337.87,1089.92c2.08,17.58-31.26,24.77-59.54,17.15s-50.69-28.86-42.87-44.74c8-16.2,31.26-24.77,59.54-17.14s41,29,42.87,44.73"/><path class="cls-15" d="M1321.35,1050.79c-2.27,8.41-15.73,12.09-30.07,8.23s-29.44-17.92-21.87-22.22c31.82-18,4.15-46.4,30.22-12.51,9.06,11.77,24,18.1,21.72,26.5"/><path class="cls-29" d="M1316.27,1049c-.25,3-5.34,3.23-10.39,2.8s-63.89-14.83-12.83-6.56c12.32,2-21.15-56,13.51-5.6,2.87,4.17,10,6.4,9.71,9.36"/><path class="cls-29" d="M1333.77,1167c-6.49,4.18-35.3,8.38-71.73-1.44s-55.43-28-60.2-34.11c-14.47-18.38,29.87,6.54,66.3,16.36s85.24,6.54,65.63,19.19"/><path class="cls-29" d="M1337.27,1130.34c-6.83,6.39-37.93,11.65-73.09,2.77s-45.07-26.85-49-34.74c-10.45-20.69,25.81,6.15,61.64,11.63,35.25,5.39,77.75,4.24,60.5,20.34"/><path class="cls-29" d="M1333.46,1101c-5.66,7.44-20.24.42-55.4-8.46s-42.18-9.25-43.46-18c-4.13-28,15.79-.15,51.63,5.33,35.25,5.39,63.9-.83,47.23,21.12"/><path class="cls-2" d="M1312.66,1048.59c0,1.23-2.14,1.45-4.24,1.38s-26.75-4.78-5.45-2.44c5.14.56-9.93-22.73,5.47-2.61,1.28,1.67,4.26,2.44,4.22,3.67"/><path class="cls-24" d="M1263.64,1130.22c1.88,1.39-20.45-6.51-29.32-12.5s-9.93-18-10.65-20c-1.89-5.3,5.55,8,14.62,13.6,13,8.06,19.2,14.33,25.35,18.88"/><path class="cls-24" d="M1333.33,1163.13c-1.68.93-7.47,6.75-17.72,5.72a138.91,138.91,0,0,1-21.24-3.68c-6.95-2.08,10.09-2.76,20.33-1.73s24.8-3.72,18.63-.31"/><path class="cls-2" d="M1334.25,1089.4c1.64,1.46,0,6-3.68,10.12s-11.34,1.89-13,.43,4.92-.2,8.59-4.33,6.43-7.68,8.07-6.22"/></g></g></g><ellipse class="cls-30" cx="1281.88" cy="720.98" rx="438.91" ry="237.21"/><polygon class="cls-30" points="1061.24 882.84 832.23 1012.53 890.88 828.85 973.68 784.91 1061.24 882.84"/><path class="cls-31" d="M1014.94,631.87c-.08.72-.16,2.17-.25,4.36s-.14,3.77-.18,4.73q-.12,2.16-.18,5t-.06,5.94c0,.18-.17.35-.49.5a1.77,1.77,0,0,1-1.71,0c-.32-.15-.49-.32-.49-.5a26.61,26.61,0,0,0-2.58-10.26q-2.34-4.95-6.72-4.95h-1a4.72,4.72,0,0,0-2.56.76q-1.21.76-1.88,4.55l-2.94,18.27h2.86a6.88,6.88,0,0,0,5-1.71q1.8-1.71,2.83-6.3c0-.18.22-.34.55-.49a2,2,0,0,1,.79-.23,2.34,2.34,0,0,1,1,.23c.32.15.46.31.42.49-.28,1.74-.59,3.51-.91,5.31s-.63,3.48-.92,5c-.28,1.74-.56,3.71-.82,5.9s-.54,4.12-.82,5.8a1,1,0,0,1-.61.54,2.39,2.39,0,0,1-.74.18,1.83,1.83,0,0,1-1-.22c-.25-.15-.37-.32-.37-.5.25-3.6-.09-6.12-1-7.56a4.56,4.56,0,0,0-4.11-2.16h-2.8l-3,18.31c-.08.48-.15,1-.21,1.66a13.2,13.2,0,0,0-.09,1.4,5.18,5.18,0,0,0,.7,2.93c.46.69,1.8,1.22,4,1.58.12,0,.2.21.25.62s.06.72.06.89a6.93,6.93,0,0,1-.22,1.52c-.14.59-.29.89-.45.89q-3,0-6.19-.23c-2.14-.15-4-.22-5.64-.22s-3.43.07-5.55.22-4.08.23-5.91.23q-.06,0-.18-.45a3.73,3.73,0,0,1-.13-1.07,5.25,5.25,0,0,1,.25-1.47q.24-.84.48-.93c2.49-.42,4.12-1,4.92-1.89s1.41-2.75,1.86-5.72l6.42-39.54c.08-.54.15-1.07.21-1.58a12.79,12.79,0,0,0,.09-1.49,5.28,5.28,0,0,0-.64-2.93c-.43-.63-1.78-1.16-4-1.58-.09-.06-.16-.28-.22-.66a6.26,6.26,0,0,1-.09-.85,6.76,6.76,0,0,1,.21-1.51c.15-.6.32-.89.52-.89l8.66.27q5.85.18,9,.18,2.87,0,8.29-.14C1010.14,632.09,1013,632,1014.94,631.87Z"/><path class="cls-31" d="M1049.59,655.45l-7.81,26.28c-.37,1.26-.63,2.24-.79,2.93a7.12,7.12,0,0,0-.25,1.48,2,2,0,0,0,.12.86.4.4,0,0,0,.37.22c.85,0,1.74-.7,2.65-2.11s1.52-2.12,1.8-2.12.65.32,1,1a3.74,3.74,0,0,1,.49,1.3c0,1.15-1.35,3.2-4,6.17s-5.1,4.46-7.26,4.46a4.87,4.87,0,0,1-3.78-1.4,5.72,5.72,0,0,1-1.28-4,17.36,17.36,0,0,1,.3-3.56c.21-.93.51-2,.92-3.29a41.1,41.1,0,0,1-5.52,9q-2.77,3.24-6.13,3.24a5.15,5.15,0,0,1-4.58-3,15.42,15.42,0,0,1-1.71-7.75q0-9.54,7.55-20.61t13.46-11.07a4.09,4.09,0,0,1,3.06,1.35,5.16,5.16,0,0,1,1.28,3.69l1.07-4c.08-.36.59-.63,1.52-.81a15.17,15.17,0,0,1,2.87-.27,8.45,8.45,0,0,1,3.39.68C1049.31,654.6,1049.75,655,1049.59,655.45Zm-11.85,5.67a3.62,3.62,0,0,0-.25-1.57.78.78,0,0,0-.73-.5q-1.1,0-3.29,2.84a57.93,57.93,0,0,0-4.63,7.24,65.94,65.94,0,0,0-3.93,8.55,22.27,22.27,0,0,0-1.74,7.47,3.6,3.6,0,0,0,.43,2,1.54,1.54,0,0,0,1.34.58q2.37,0,7.59-10.84T1037.74,661.12Z"/><path class="cls-31" d="M1090.76,685.24q0,1.53-4,6.08t-8,4.55a4.88,4.88,0,0,1-3.72-1.31,5.55,5.55,0,0,1-1.22-3.91,19.63,19.63,0,0,1,.22-2.8,36.5,36.5,0,0,1,.82-3.78l4.2-14.67c.28-1.08.5-2,.64-2.7a11.29,11.29,0,0,0,.21-2.16,6.37,6.37,0,0,0-.21-1.89,1,1,0,0,0-1.07-.63c-1,0-2.47,2.19-4.48,6.57a111.75,111.75,0,0,0-5.46,14.67l-2.37,10c-.13.48-.82.85-2.08,1.12a15.12,15.12,0,0,1-2.68.41,20.57,20.57,0,0,1-2.93-.41c-1.47-.27-2.16-.64-2.08-1.12l6-26.92c.28-1.2.49-2.13.61-2.79a9.76,9.76,0,0,0,.18-1.71,1.48,1.48,0,0,0-.15-.72.45.45,0,0,0-.4-.27c-.61,0-1.4.83-2.38,2.48s-1.62,2.47-2,2.47-.65-.33-1-1a4.14,4.14,0,0,1-.49-1.26q0-1.62,3.39-6.16t7-4.55a4.84,4.84,0,0,1,4.15,2.12,9.38,9.38,0,0,1,1.53,5.62q0,.81-.06,1.44a7,7,0,0,1-.24,1.26l-.84,3.42a33.1,33.1,0,0,1,5.73-9.58c2.43-2.85,4.81-4.28,7.12-4.28a5.14,5.14,0,0,1,3.84,1.85,7.73,7.73,0,0,1,1.7,5.44,27.34,27.34,0,0,1-.33,4,28.65,28.65,0,0,1-.89,4l-3.72,13.59c-.36,1.26-.63,2.24-.79,2.93a7.65,7.65,0,0,0-.24,1.48,2,2,0,0,0,.12.86.38.38,0,0,0,.36.22c.86,0,1.74-.7,2.66-2.11s1.51-2.12,1.8-2.12.65.32,1,1A3.54,3.54,0,0,1,1090.76,685.24Z"/><path class="cls-31" d="M1132.61,660.31a25.85,25.85,0,0,1-.49,2.93c-.25,1.11-.53,1.66-.85,1.66l-4-.27c0,.3,0,.71.06,1.22s.06,1,.06,1.39q0,7.83-4.15,12.42t-11.46,4.59a3.61,3.61,0,0,0-2.6.77,2.1,2.1,0,0,0-.76,1.39q0,2.07,3.2,3.2t5.58,2.12a19,19,0,0,1,6,3.69,9.13,9.13,0,0,1,2.84,7.2,15.44,15.44,0,0,1-5.16,11.56q-5.14,4.91-10.7,4.91c-4.52,0-8.12-1.17-10.83-3.51a10.57,10.57,0,0,1-4.06-8.19,9.8,9.8,0,0,1,1.93-6.3q1.92-2.43,6.49-3.33a10.07,10.07,0,0,1-3.23-2.75,6,6,0,0,1-1.16-3.64,9.07,9.07,0,0,1,1.92-5.54,9.7,9.7,0,0,1,5.89-3.47,11.61,11.61,0,0,1-3.78-4.54,15,15,0,0,1-1.22-6.35q0-8.37,4.54-13.5t9.85-5.13a9.57,9.57,0,0,1,5.92,1.67,11.7,11.7,0,0,1,3.48,4.36l6.28-.36c.2,0,.34.2.4.59A4.87,4.87,0,0,1,1132.61,660.31Zm-14.28,47.17a5,5,0,0,0-3.23-4.91,72.4,72.4,0,0,0-8.17-2.83,6.44,6.44,0,0,0-3.7,2.34,9.48,9.48,0,0,0,.64,10.48q1.92,2.21,6.43,2.21a7.56,7.56,0,0,0,5.93-2.34A7.33,7.33,0,0,0,1118.33,707.48Zm.73-46.36a6.52,6.52,0,0,0-.54-2.83,1.67,1.67,0,0,0-1.47-1.13q-1.83,0-4,6.17a37.05,37.05,0,0,0-2.23,12.73,6.4,6.4,0,0,0,.52,2.79,1.65,1.65,0,0,0,1.55,1.08q2.39,0,4.3-6.39A43.06,43.06,0,0,0,1119.06,661.12Z"/><path class="cls-31" d="M1182.2,654a5.13,5.13,0,0,1-.25,1.47c-.16.56-.32.85-.49.85a9.18,9.18,0,0,0-4.14,1.49q-1.59,1.13-2.32,5.82l-3.17,19.67c-.12.72-.21,1.37-.27,1.94a14.53,14.53,0,0,0-.09,1.49c0,1.62.42,2.62,1.25,3a12.48,12.48,0,0,0,3.2.81c.12,0,.2.21.25.62s.06.72.06.89a6.37,6.37,0,0,1-.22,1.52c-.14.59-.29.89-.45.89-1.27,0-3-.08-5.06-.23s-3.91-.22-5.37-.22-3.17.07-5.24.22-3.72.23-4.94.23c-.08,0-.16-.15-.22-.45a5.48,5.48,0,0,1-.09-1.07,5.88,5.88,0,0,1,.22-1.47q.21-.84.51-.93a15.52,15.52,0,0,0,4.24-1.13q1.38-.68,2.23-6.12l3.16-19.64c.12-.73.21-1.37.27-1.94s.1-1.07.1-1.49c0-1.63-.39-2.61-1.16-2.94a18.8,18.8,0,0,0-3.36-.94c-.08,0-.15-.2-.21-.58a6.26,6.26,0,0,1-.09-.85,7.47,7.47,0,0,1,.21-1.56c.14-.62.31-.93.52-.93,1.26,0,3,.09,5.09.27s3.91.27,5.34.27,3.17-.09,5.24-.27,3.72-.27,4.94-.27c0,0,.1.16.18.49A4.23,4.23,0,0,1,1182.2,654Z"/><path class="cls-31" d="M1220.26,667.06a43.85,43.85,0,0,1-1.25,10.22,31,31,0,0,1-3.69,9.22,24.91,24.91,0,0,1-5.88,6.89,12.64,12.64,0,0,1-8,2.48,8.63,8.63,0,0,1-7.87-4.77,22,22,0,0,1-2.75-11.17,42.06,42.06,0,0,1,1.19-10.17,36.38,36.38,0,0,1,3.75-9.27,21.19,21.19,0,0,1,6-6.7,13.15,13.15,0,0,1,7.87-2.66,8.64,8.64,0,0,1,7.87,4.73A21.9,21.9,0,0,1,1220.26,667.06Zm-9.3-7.83a6.92,6.92,0,0,0-.45-2.79,1.51,1.51,0,0,0-1.43-1q-1.57,0-3.15,3.38a52.37,52.37,0,0,0-3,9q-1,4.14-1.88,10a70.73,70.73,0,0,0-.85,9.85,7.24,7.24,0,0,0,.46,2.84,1.47,1.47,0,0,0,1.36,1q1.65,0,3.31-3.56a47.13,47.13,0,0,0,2.94-8.87q1.21-5.13,2-10.62A68.91,68.91,0,0,0,1211,659.23Z"/><path class="cls-31" d="M1282.42,655.45l-7.81,26.28c-.36,1.26-.63,2.24-.79,2.93a7.65,7.65,0,0,0-.24,1.48,2,2,0,0,0,.12.86.39.39,0,0,0,.37.22c.85,0,1.73-.7,2.65-2.11s1.51-2.12,1.8-2.12.65.32,1,1a3.54,3.54,0,0,1,.49,1.3c0,1.15-1.34,3.2-4,6.17s-5.11,4.46-7.26,4.46a4.87,4.87,0,0,1-3.78-1.4,5.68,5.68,0,0,1-1.29-4,17.27,17.27,0,0,1,.31-3.56,34.1,34.1,0,0,1,.92-3.29,41.1,41.1,0,0,1-5.52,9q-2.77,3.24-6.14,3.24a5.14,5.14,0,0,1-4.57-3,15.42,15.42,0,0,1-1.71-7.75q0-9.54,7.54-20.61t13.47-11.07a4.06,4.06,0,0,1,3,1.35,5.12,5.12,0,0,1,1.28,3.69l1.07-4q.12-.54,1.53-.81a15.1,15.1,0,0,1,2.87-.27,8.4,8.4,0,0,1,3.38.68C1282.15,654.6,1282.59,655,1282.42,655.45Zm-11.85,5.67a3.8,3.8,0,0,0-.24-1.57.79.79,0,0,0-.73-.5q-1.1,0-3.29,2.84a56.8,56.8,0,0,0-4.63,7.24,63.38,63.38,0,0,0-3.93,8.55,22.27,22.27,0,0,0-1.74,7.47,3.51,3.51,0,0,0,.43,2,1.54,1.54,0,0,0,1.34.58q2.37,0,7.58-10.84T1270.57,661.12Z"/><path class="cls-31" d="M1327.26,637.58a10.09,10.09,0,0,1-1.35,5.36,4,4,0,0,1-3.54,2.2,2.73,2.73,0,0,1-2.59-1.57,18.33,18.33,0,0,1-1.38-3.56,33.77,33.77,0,0,0-1.19-3.6,2.15,2.15,0,0,0-2-1.62c-2,0-3.42,1.46-4.4,4.36s-2.12,8.58-3.43,17H1314c.24,0,.39.24.46.72a11.6,11.6,0,0,1,.09,1.44,7.41,7.41,0,0,1-.34,2.07c-.22.78-.45,1.17-.7,1.17l-6.89-.36-5,31.06q-2.2,13.41-7,20.2t-11.56,6.8a9.06,9.06,0,0,1-6.77-3.11,10.26,10.26,0,0,1-3-7.06,8.65,8.65,0,0,1,1.4-5,4.37,4.37,0,0,1,3.79-2.07,3.64,3.64,0,0,1,3.2,1.84,19.89,19.89,0,0,1,1.92,3.83q.74,2,1.53,3.78t1.89,1.8c.93-.06,1.68-1,2.25-2.93a49.76,49.76,0,0,0,1.47-7.89l5.85-40.31a1.26,1.26,0,0,0-.06-.67.52.52,0,0,0-.55-.32H1291q-.24,0-.39-.75a5.61,5.61,0,0,1-.16-1,3.43,3.43,0,0,1,.25-1.1q.24-.66.48-.66a22,22,0,0,0,5.11-1.38c.9-.45,1.38-.95,1.46-1.49a47.43,47.43,0,0,1,7.72-18.69Q1311.21,628,1319,628q3.16-.09,5.73,3A10.06,10.06,0,0,1,1327.26,637.58Z"/><path class="cls-31" d="M1377.28,629.66a7.81,7.81,0,0,1-.09,1.08,11.39,11.39,0,0,1-.28,1.26l-11.59,47.85c-.2.78-.45,1.78-.73,3a13.27,13.27,0,0,0-.43,2.57,3.68,3.68,0,0,0,.12,1,.53.53,0,0,0,.55.4c.74,0,1.5-.9,2.29-2.7s1.31-2.7,1.56-2.7.59.32.91.95a3.54,3.54,0,0,1,.49,1.3q0,1.62-3.08,6.89c-2.06,3.51-4.22,5.27-6.5,5.27a3.85,3.85,0,0,1-3.38-1.62,8.09,8.09,0,0,1-1.13-4.68,20.25,20.25,0,0,1,.33-3.56c.23-1.23.56-2.63,1-4.19A49,49,0,0,1,1352,692q-2.8,3.91-6.77,3.92a6.27,6.27,0,0,1-5.55-3.42q-2.07-3.42-2.07-9.19a37.17,37.17,0,0,1,6.3-20.83q6.32-9.58,13.14-9.59a4.36,4.36,0,0,1,2.86.86,5,5,0,0,1,1.41,1.66l2.76-11.4c.2-.84.36-1.6.49-2.29a10.46,10.46,0,0,0,.18-1.75,1.46,1.46,0,0,0-.7-1.39,9.22,9.22,0,0,0-2.59-.77c-.13-.06-.24-.31-.34-.76a5.41,5.41,0,0,1-.15-1.13,6.59,6.59,0,0,1,.12-1.12c.08-.45.2-.68.37-.68q3-.72,7.53-2.25a36.32,36.32,0,0,0,6.13-2.52,2.53,2.53,0,0,1,.7-.4,2.27,2.27,0,0,1,.83-.23c.16,0,.3.11.42.32A1.24,1.24,0,0,1,1377.28,629.66Zm-17.14,30.65a3.72,3.72,0,0,0-.37-1.93,1.27,1.27,0,0,0-1.16-.59q-3.84,0-7.47,8.6a45.23,45.23,0,0,0-3.63,17.77,7.43,7.43,0,0,0,.52,3.2,1.54,1.54,0,0,0,1.37,1q1.33,0,3.2-3.28a51.38,51.38,0,0,0,3.63-8.42q1.83-5.4,2.87-9.54A29.38,29.38,0,0,0,1360.14,660.31Z"/><path class="cls-31" d="M1405.4,662.65q0,5.13-4.12,10t-11.5,4.9c-.12.78-.2,1.55-.24,2.3s-.06,1.45-.06,2.11a13.73,13.73,0,0,0,.85,5.22,2.94,2.94,0,0,0,2.87,2.07,6,6,0,0,0,4.45-2.25,20,20,0,0,0,3.3-4.77.73.73,0,0,1,.42.09,1.61,1.61,0,0,1,.28.32l.27.4a5.5,5.5,0,0,1,.49.95,1.17,1.17,0,0,1,.12.85,17.23,17.23,0,0,1-5.24,7.7q-3.8,3.28-7.45,3.29a8.68,8.68,0,0,1-7.16-3.69,14.57,14.57,0,0,1-2.84-9.19,36.52,36.52,0,0,1,6.25-20.83q6.26-9.31,12-9.32,4,0,5.67,3A13.9,13.9,0,0,1,1405.4,662.65Zm-7.5-.81a7.24,7.24,0,0,0-.28-2.29,1.18,1.18,0,0,0-1.25-.77q-1.89,0-3.72,4.46a35.55,35.55,0,0,0-2.38,10q3.3,0,5.46-3.82A15.4,15.4,0,0,0,1397.9,661.84Z"/><path class="cls-31" d="M1465.6,660.31a25.6,25.6,0,0,1-.48,2.93c-.25,1.11-.53,1.66-.86,1.66l-4-.27c0,.3,0,.71.06,1.22s.06,1,.06,1.39q0,7.83-4.15,12.42t-11.47,4.59a3.58,3.58,0,0,0-2.59.77,2.1,2.1,0,0,0-.76,1.39q0,2.07,3.2,3.2t5.58,2.12a19,19,0,0,1,6,3.69,9.13,9.13,0,0,1,2.84,7.2,15.44,15.44,0,0,1-5.16,11.56q-5.14,4.91-10.7,4.91-6.78,0-10.83-3.51a10.54,10.54,0,0,1-4.06-8.19,9.86,9.86,0,0,1,1.92-6.3c1.29-1.62,3.45-2.73,6.5-3.33a10.07,10.07,0,0,1-3.23-2.75,5.93,5.93,0,0,1-1.16-3.64,9.07,9.07,0,0,1,1.92-5.54,9.7,9.7,0,0,1,5.89-3.47,11.73,11.73,0,0,1-3.79-4.54,15.18,15.18,0,0,1-1.22-6.35q0-8.37,4.55-13.5t9.85-5.13a9.59,9.59,0,0,1,5.92,1.67,11.58,11.58,0,0,1,3.47,4.36l6.29-.36c.2,0,.33.2.39.59A4.07,4.07,0,0,1,1465.6,660.31Zm-14.27,47.17a5,5,0,0,0-3.23-4.91,71.94,71.94,0,0,0-8.18-2.83,6.42,6.42,0,0,0-3.69,2.34,9.48,9.48,0,0,0,.64,10.48q1.92,2.21,6.42,2.21a7.57,7.57,0,0,0,5.94-2.34A7.33,7.33,0,0,0,1451.33,707.48Zm.73-46.36a6.37,6.37,0,0,0-.55-2.83,1.65,1.65,0,0,0-1.46-1.13q-1.83,0-4.06,6.17a37.28,37.28,0,0,0-2.22,12.73,6.4,6.4,0,0,0,.52,2.79,1.65,1.65,0,0,0,1.55,1.08q2.39,0,4.3-6.39A43.06,43.06,0,0,0,1452.06,661.12Z"/><path class="cls-31" d="M1499.83,667.78a41.7,41.7,0,0,1-1.28,10.08,32.13,32.13,0,0,1-3.66,9,23.51,23.51,0,0,1-5.8,6.58,12.93,12.93,0,0,1-8,2.43,9.12,9.12,0,0,1-8-4.23,18.56,18.56,0,0,1-2.87-10.63,41.08,41.08,0,0,1,1.19-10,33.73,33.73,0,0,1,3.75-9.05,20.22,20.22,0,0,1,5.89-6.57,13.39,13.39,0,0,1,7.9-2.52,9.13,9.13,0,0,1,8,4.23A18.7,18.7,0,0,1,1499.83,667.78Zm-9-6.75a6.66,6.66,0,0,0-.46-2.83,1.5,1.5,0,0,0-1.43-1q-1.65,0-3.36,3.15a43.71,43.71,0,0,0-3.23,8.37,81.73,81.73,0,0,0-2.29,10.35,58.31,58.31,0,0,0-.82,8.55,7.06,7.06,0,0,0,.46,2.84,1.47,1.47,0,0,0,1.37,1q1.71,0,3.51-3.43a42.27,42.27,0,0,0,3.14-8.19,98.38,98.38,0,0,0,2.22-9.94A54.3,54.3,0,0,0,1490.83,661Z"/><path class="cls-31" d="M1548.57,629.66a8,8,0,0,1-.1,1.08,9.44,9.44,0,0,1-.27,1.26l-11.59,47.85c-.2.78-.45,1.78-.73,3a13.27,13.27,0,0,0-.43,2.57,3.68,3.68,0,0,0,.12,1,.52.52,0,0,0,.55.4c.73,0,1.5-.9,2.29-2.7s1.31-2.7,1.55-2.7.59.32.92.95a3.74,3.74,0,0,1,.49,1.3q0,1.62-3.08,6.89c-2.06,3.51-4.22,5.27-6.5,5.27a3.88,3.88,0,0,1-3.39-1.62,8.17,8.17,0,0,1-1.12-4.68,20.25,20.25,0,0,1,.33-3.56,42.18,42.18,0,0,1,1-4.19,49,49,0,0,1-5.31,10.13q-2.8,3.91-6.77,3.92a6.27,6.27,0,0,1-5.55-3.42c-1.38-2.28-2.08-5.34-2.08-9.19a37.18,37.18,0,0,1,6.31-20.83q6.32-9.58,13.14-9.59a4.36,4.36,0,0,1,2.86.86,4.85,4.85,0,0,1,1.4,1.66l2.77-11.4c.2-.84.36-1.6.48-2.29a9.62,9.62,0,0,0,.19-1.75,1.48,1.48,0,0,0-.7-1.39,9.32,9.32,0,0,0-2.6-.77c-.12-.06-.23-.31-.33-.76a5.52,5.52,0,0,1-.16-1.13,6.75,6.75,0,0,1,.13-1.12c.08-.45.2-.68.36-.68q3.06-.72,7.54-2.25a36.32,36.32,0,0,0,6.13-2.52,2.53,2.53,0,0,1,.7-.4,2.29,2.29,0,0,1,.82-.23c.17,0,.31.11.43.32A1.33,1.33,0,0,1,1548.57,629.66Zm-17.15,30.65a3.85,3.85,0,0,0-.36-1.93,1.28,1.28,0,0,0-1.16-.59q-3.84,0-7.47,8.6a45.23,45.23,0,0,0-3.63,17.77,7.43,7.43,0,0,0,.52,3.2,1.54,1.54,0,0,0,1.37,1q1.33,0,3.2-3.28a51.38,51.38,0,0,0,3.63-8.42q1.83-5.4,2.87-9.54A29.29,29.29,0,0,0,1531.42,660.31Z"/><path class="cls-31" d="M1576.69,662.65q0,5.13-4.12,10t-11.5,4.9c-.12.78-.2,1.55-.24,2.3s-.06,1.45-.06,2.11a13.73,13.73,0,0,0,.85,5.22,2.93,2.93,0,0,0,2.87,2.07,6,6,0,0,0,4.45-2.25,19.68,19.68,0,0,0,3.29-4.77.74.74,0,0,1,.43.09,1.61,1.61,0,0,1,.28.32l.27.4a5.5,5.5,0,0,1,.49.95,1.17,1.17,0,0,1,.12.85,17.34,17.34,0,0,1-5.25,7.7q-3.78,3.28-7.44,3.29a8.69,8.69,0,0,1-7.17-3.69,14.63,14.63,0,0,1-2.83-9.19,36.52,36.52,0,0,1,6.25-20.83q6.25-9.31,12-9.32,4,0,5.67,3A13.9,13.9,0,0,1,1576.69,662.65Zm-7.51-.81a7.29,7.29,0,0,0-.27-2.29,1.18,1.18,0,0,0-1.25-.77q-1.89,0-3.72,4.46a35.21,35.21,0,0,0-2.38,10q3.29,0,5.46-3.82A15.38,15.38,0,0,0,1569.18,661.84Z"/><path class="cls-31" d="M946,791.82q0,1.44-4.61,6.75T933,803.88a4,4,0,0,1-3.73-1.94,8.33,8.33,0,0,1-1.15-4.36,12.69,12.69,0,0,1,.3-2.84c.2-.87.43-1.75.67-2.65l5.8-17.73c.32-1,.56-1.85.7-2.48a7.75,7.75,0,0,0,.21-1.66,2.22,2.22,0,0,0-.18-1,.55.55,0,0,0-.49-.31c-.53,0-1.55,1.18-3.08,3.55s-2.43,3.56-2.71,3.56-.66-.33-1-1a4.14,4.14,0,0,1-.49-1.26,7.21,7.21,0,0,1,1.16-2.93,36.12,36.12,0,0,1,2.93-4.28,23.55,23.55,0,0,1,3.81-3.87,6.66,6.66,0,0,1,3.94-1.8,4.48,4.48,0,0,1,4.11,2.3,10.54,10.54,0,0,1,1.38,5.54,22.79,22.79,0,0,1-.19,2.88,13.22,13.22,0,0,1-.79,3.15l-4.64,15c-.36,1.26-.63,2.28-.79,3.06a9.66,9.66,0,0,0-.24,1.62c0,.36.06.58.18.67a.61.61,0,0,0,.37.14c.89,0,1.94-1,3.14-2.84s2-2.83,2.29-2.83.58.31.91.94A3.57,3.57,0,0,1,946,791.82Zm4.7-46.45a10.14,10.14,0,0,1-1.62,5.76,4.38,4.38,0,0,1-7.84,0,10.88,10.88,0,0,1,0-11.52,4.38,4.38,0,0,1,7.84,0A10.14,10.14,0,0,1,950.65,745.37Z"/><path class="cls-31" d="M989.44,793.26q0,1.53-4,6.07t-8,4.55a4.88,4.88,0,0,1-3.72-1.31,5.55,5.55,0,0,1-1.22-3.91,19.38,19.38,0,0,1,.22-2.79,36,36,0,0,1,.82-3.78l4.2-14.67c.29-1.08.5-2,.64-2.7a11.29,11.29,0,0,0,.21-2.16,6.37,6.37,0,0,0-.21-1.89,1,1,0,0,0-1.07-.63c-1,0-2.47,2.19-4.48,6.57a111.75,111.75,0,0,0-5.46,14.67l-2.37,10c-.12.48-.82.85-2.08,1.12a15.12,15.12,0,0,1-2.68.41,20.57,20.57,0,0,1-2.93-.41c-1.47-.27-2.16-.64-2.08-1.12l6-26.91c.28-1.2.49-2.13.61-2.79a9.76,9.76,0,0,0,.18-1.71,1.48,1.48,0,0,0-.15-.72.45.45,0,0,0-.4-.27c-.61,0-1.4.82-2.38,2.47s-1.62,2.48-2,2.48-.65-.33-1-1a4.14,4.14,0,0,1-.49-1.26q0-1.62,3.39-6.17t7-4.55a4.84,4.84,0,0,1,4.15,2.12,9.39,9.39,0,0,1,1.53,5.63q0,.81-.06,1.44a7,7,0,0,1-.24,1.26l-.84,3.42a33.15,33.15,0,0,1,5.73-9.59c2.43-2.85,4.81-4.28,7.12-4.28a5.14,5.14,0,0,1,3.84,1.85,7.76,7.76,0,0,1,1.7,5.45,27.21,27.21,0,0,1-.33,4,28.8,28.8,0,0,1-.89,4l-3.72,13.59c-.36,1.26-.63,2.23-.79,2.92a7.6,7.6,0,0,0-.24,1.49,2,2,0,0,0,.12.85.39.39,0,0,0,.36.23c.86,0,1.74-.71,2.66-2.12S987.69,791,988,791s.65.31,1,.94A3.57,3.57,0,0,1,989.44,793.26Z"/><path class="cls-31" d="M1031.29,768.33a25.71,25.71,0,0,1-.49,2.92c-.24,1.11-.53,1.67-.85,1.67l-4-.27c0,.3,0,.7.06,1.21s.06,1,.06,1.4q0,7.83-4.15,12.42t-11.46,4.59a3.61,3.61,0,0,0-2.6.76,2.12,2.12,0,0,0-.76,1.4q0,2.07,3.2,3.19t5.58,2.12a19,19,0,0,1,6,3.69,9.13,9.13,0,0,1,2.84,7.2,15.46,15.46,0,0,1-5.16,11.57q-5.14,4.9-10.7,4.9c-4.52,0-8.12-1.17-10.83-3.51A10.57,10.57,0,0,1,994,815.4a9.86,9.86,0,0,1,1.93-6.3q1.92-2.43,6.49-3.33a10.07,10.07,0,0,1-3.23-2.75,6,6,0,0,1-1.16-3.64,9.07,9.07,0,0,1,1.92-5.54,9.69,9.69,0,0,1,5.89-3.46,11.64,11.64,0,0,1-3.78-4.55,15,15,0,0,1-1.22-6.34q0-8.37,4.54-13.51t9.85-5.13a9.57,9.57,0,0,1,5.92,1.67,11.65,11.65,0,0,1,3.48,4.37l6.28-.37c.2,0,.34.2.4.59A5,5,0,0,1,1031.29,768.33ZM1017,815.49a5,5,0,0,0-3.23-4.9,72.2,72.2,0,0,0-8.17-2.84,6.44,6.44,0,0,0-3.7,2.34,9.49,9.49,0,0,0,.64,10.49q1.92,2.2,6.43,2.2a7.56,7.56,0,0,0,5.93-2.34A7.33,7.33,0,0,0,1017,815.49Zm.74-46.35a6.56,6.56,0,0,0-.55-2.84,1.67,1.67,0,0,0-1.47-1.13q-1.83,0-4.05,6.17a37.11,37.11,0,0,0-2.23,12.74,6.4,6.4,0,0,0,.52,2.79,1.65,1.65,0,0,0,1.55,1.08q2.38,0,4.3-6.39A43.09,43.09,0,0,0,1017.75,769.14Z"/><path class="cls-31" d="M1066.61,768.51a10.58,10.58,0,0,1-1.26,5.4,3.78,3.78,0,0,1-3.38,2.16,2.27,2.27,0,0,1-1.75-.63,6.14,6.14,0,0,1-1-1.53,10.38,10.38,0,0,0-.86-1.53,1.48,1.48,0,0,0-1.28-.72q-1.95,0-5.22,9.13a184.48,184.48,0,0,0-5.89,20.48c-.13.48-.84.85-2.13,1.12a16.44,16.44,0,0,1-2.62.41,20.49,20.49,0,0,1-2.92-.41c-1.46-.27-2.15-.64-2.07-1.12l6-26.91c.28-1.32.48-2.28.61-2.88a8.34,8.34,0,0,0,.18-1.62,1.48,1.48,0,0,0-.15-.72.46.46,0,0,0-.4-.27c-.61,0-1.4.82-2.38,2.47s-1.63,2.48-2,2.48-.65-.33-1-1a4.29,4.29,0,0,1-.48-1.26c0-1.08,1.12-3.14,3.38-6.17s4.59-4.55,7-4.55a4.84,4.84,0,0,1,4.15,2.12,9.39,9.39,0,0,1,1.53,5.63q0,.81-.06,1.44a7,7,0,0,1-.25,1.26l-1.75,7a80.46,80.46,0,0,1,5.48-13.1q2.5-4.37,5.19-4.37a4.41,4.41,0,0,1,3.77,2.12A9.52,9.52,0,0,1,1066.61,768.51Z"/><path class="cls-31" d="M1096,770.67q0,5.13-4.12,10t-11.5,4.91c-.12.78-.2,1.54-.24,2.29s-.06,1.46-.06,2.12a13.77,13.77,0,0,0,.85,5.22,2.94,2.94,0,0,0,2.87,2.07,6,6,0,0,0,4.45-2.25,19.68,19.68,0,0,0,3.29-4.77.74.74,0,0,1,.43.09,1.5,1.5,0,0,1,.28.31l.27.41a6.15,6.15,0,0,1,.49.94,1.19,1.19,0,0,1,.12.86,17.36,17.36,0,0,1-5.25,7.69q-3.78,3.28-7.44,3.29a8.7,8.7,0,0,1-7.17-3.69,14.62,14.62,0,0,1-2.83-9.18,36.55,36.55,0,0,1,6.25-20.84q6.25-9.31,12-9.32,4,0,5.67,3A13.94,13.94,0,0,1,1096,770.67Zm-7.51-.81a7.37,7.37,0,0,0-.27-2.3,1.18,1.18,0,0,0-1.25-.77q-1.89,0-3.72,4.46a35.28,35.28,0,0,0-2.38,10q3.29,0,5.46-3.83A15.35,15.35,0,0,0,1088.44,769.86Z"/><path class="cls-31" d="M1144.32,737.68a7.56,7.56,0,0,1-.09,1.07A8.14,8.14,0,0,1,1144,740l-11.59,47.85c-.2.78-.44,1.79-.73,3a14.06,14.06,0,0,0-.43,2.56,3.64,3.64,0,0,0,.13,1,.52.52,0,0,0,.55.41q1.09,0,2.28-2.7c.8-1.8,1.31-2.7,1.56-2.7s.59.31.91.94a3.57,3.57,0,0,1,.49,1.31q0,1.62-3.08,6.88t-6.5,5.27a3.85,3.85,0,0,1-3.38-1.62,8.17,8.17,0,0,1-1.13-4.68,19.37,19.37,0,0,1,.34-3.56c.22-1.23.56-2.62,1-4.18a48.87,48.87,0,0,1-5.3,10.12c-1.88,2.61-4.13,3.92-6.78,3.92a6.29,6.29,0,0,1-5.55-3.42q-2.07-3.42-2.07-9.18a37.14,37.14,0,0,1,6.31-20.84q6.3-9.59,13.13-9.59a4.39,4.39,0,0,1,2.87.86,5,5,0,0,1,1.4,1.66l2.76-11.4c.2-.84.37-1.6.49-2.29a10.36,10.36,0,0,0,.18-1.75,1.46,1.46,0,0,0-.7-1.39,9.3,9.3,0,0,0-2.59-.76c-.12-.06-.24-.32-.34-.77a5.33,5.33,0,0,1-.15-1.12,6.69,6.69,0,0,1,.12-1.13c.08-.45.2-.67.37-.67q3-.72,7.53-2.25a36,36,0,0,0,6.13-2.52,2.59,2.59,0,0,1,.71-.41,2.18,2.18,0,0,1,.82-.22.51.51,0,0,1,.43.31A1.36,1.36,0,0,1,1144.32,737.68Zm-17.14,30.65a3.77,3.77,0,0,0-.37-1.94,1.27,1.27,0,0,0-1.16-.59q-3.84,0-7.47,8.6a45.28,45.28,0,0,0-3.63,17.78,7.37,7.37,0,0,0,.52,3.19,1.56,1.56,0,0,0,1.37,1q1.35,0,3.21-3.29a50.44,50.44,0,0,0,3.62-8.41q1.85-5.4,2.87-9.54A29.38,29.38,0,0,0,1127.18,768.33Z"/><path class="cls-31" d="M1165.73,791.82q0,1.44-4.6,6.75t-8.33,5.31a4,4,0,0,1-3.72-1.94,8.24,8.24,0,0,1-1.16-4.36,12.69,12.69,0,0,1,.3-2.84c.21-.87.43-1.75.67-2.65l5.8-17.73c.33-1,.56-1.85.7-2.48a7.75,7.75,0,0,0,.21-1.66,2.22,2.22,0,0,0-.18-1,.54.54,0,0,0-.49-.31c-.53,0-1.55,1.18-3.08,3.55s-2.43,3.56-2.71,3.56-.65-.33-1-1a4.45,4.45,0,0,1-.49-1.26,7.21,7.21,0,0,1,1.16-2.93,37.36,37.36,0,0,1,2.93-4.28,23.55,23.55,0,0,1,3.81-3.87,6.66,6.66,0,0,1,3.94-1.8,4.5,4.5,0,0,1,4.12,2.3,10.63,10.63,0,0,1,1.37,5.54,24.71,24.71,0,0,1-.18,2.88,13.76,13.76,0,0,1-.8,3.15l-4.63,15c-.37,1.26-.63,2.28-.8,3.06a9.66,9.66,0,0,0-.24,1.62c0,.36.06.58.18.67a.63.63,0,0,0,.37.14c.89,0,1.94-1,3.14-2.84s2-2.83,2.29-2.83.59.31.91.94A3.57,3.57,0,0,1,1165.73,791.82Zm4.7-46.45a10.14,10.14,0,0,1-1.62,5.76,4.38,4.38,0,0,1-7.84,0,10.94,10.94,0,0,1,0-11.52,4.38,4.38,0,0,1,7.84,0A10.14,10.14,0,0,1,1170.43,745.37Z"/><path class="cls-31" d="M1201.48,770.67q0,5.13-4.12,10t-11.5,4.91c-.12.78-.2,1.54-.24,2.29s-.06,1.46-.06,2.12a13.77,13.77,0,0,0,.85,5.22,2.94,2.94,0,0,0,2.87,2.07,6,6,0,0,0,4.45-2.25,19.68,19.68,0,0,0,3.29-4.77.74.74,0,0,1,.43.09,1.5,1.5,0,0,1,.28.31l.27.41a5.37,5.37,0,0,1,.49.94,1.19,1.19,0,0,1,.12.86,17.28,17.28,0,0,1-5.25,7.69q-3.78,3.28-7.44,3.29a8.7,8.7,0,0,1-7.17-3.69,14.62,14.62,0,0,1-2.83-9.18,36.55,36.55,0,0,1,6.25-20.84q6.25-9.31,12-9.32,4,0,5.67,3A13.94,13.94,0,0,1,1201.48,770.67Zm-7.51-.81a7.37,7.37,0,0,0-.27-2.3,1.18,1.18,0,0,0-1.25-.77q-1.89,0-3.72,4.46a35.28,35.28,0,0,0-2.38,10q3.29,0,5.46-3.83A15.35,15.35,0,0,0,1194,769.86Z"/><path class="cls-31" d="M1243.69,793.26q0,1.53-4,6.07t-8,4.55a4.85,4.85,0,0,1-3.72-1.31,5.55,5.55,0,0,1-1.22-3.91,19.33,19.33,0,0,1,.21-2.79c.15-1,.42-2.22.83-3.78l4.2-14.67c.28-1.08.5-2,.64-2.7a11.29,11.29,0,0,0,.21-2.16,6.37,6.37,0,0,0-.21-1.89,1,1,0,0,0-1.07-.63c-1,0-2.47,2.19-4.49,6.57a114.68,114.68,0,0,0-5.46,14.67l-2.37,10c-.12.48-.81.85-2.07,1.12a15.07,15.07,0,0,1-2.69.41,20.75,20.75,0,0,1-2.93-.41c-1.46-.27-2.15-.64-2.07-1.12l6-26.91c.28-1.2.48-2.13.61-2.79a9.76,9.76,0,0,0,.18-1.71,1.48,1.48,0,0,0-.15-.72.47.47,0,0,0-.4-.27c-.61,0-1.4.82-2.38,2.47s-1.63,2.48-1.95,2.48-.65-.33-1-1a4.45,4.45,0,0,1-.49-1.26q0-1.62,3.39-6.17t7-4.55a4.86,4.86,0,0,1,4.15,2.12,9.39,9.39,0,0,1,1.53,5.63q0,.81-.06,1.44a6.25,6.25,0,0,1-.25,1.26l-.83,3.42a33.15,33.15,0,0,1,5.73-9.59c2.43-2.85,4.81-4.28,7.12-4.28a5.14,5.14,0,0,1,3.84,1.85,7.81,7.81,0,0,1,1.7,5.45,27.21,27.21,0,0,1-.33,4,28.8,28.8,0,0,1-.89,4l-3.72,13.59c-.37,1.26-.63,2.23-.79,2.92a7.09,7.09,0,0,0-.25,1.49,1.83,1.83,0,0,0,.13.85.39.39,0,0,0,.36.23c.86,0,1.74-.71,2.66-2.12s1.51-2.11,1.79-2.11.66.31,1,.94A3.57,3.57,0,0,1,1243.69,793.26Z"/><path class="cls-31" d="M1277,769a9.13,9.13,0,0,1-.88,4.23,2.79,2.79,0,0,1-2.59,1.71,2.58,2.58,0,0,1-2.14-1.58,25.53,25.53,0,0,1-1.58-3.19,24.58,24.58,0,0,0-1.62-3.29,2.48,2.48,0,0,0-2-1.49,1.64,1.64,0,0,0-1.53.73,4.61,4.61,0,0,0-.43,2.25,10,10,0,0,0,1.38,4.18l2.71,5.27a57.5,57.5,0,0,1,2.81,6.21,18.07,18.07,0,0,1,1.28,6.48A14.12,14.12,0,0,1,1269,800a10.39,10.39,0,0,1-8.2,3.87,9.38,9.38,0,0,1-6.65-2.79,8.44,8.44,0,0,1-2.93-6.21,7.34,7.34,0,0,1,.92-4,2.92,2.92,0,0,1,2.62-1.44,2.78,2.78,0,0,1,2.23,1.62,27.73,27.73,0,0,1,1.8,3.42q.86,1.8,1.83,3.42t2.19,1.62a1.38,1.38,0,0,0,1.22-.63,3.76,3.76,0,0,0,.43-2.07,11.42,11.42,0,0,0-1.28-4.55q-1.29-2.74-2.5-5.17a59,59,0,0,1-2.66-6.08,17.68,17.68,0,0,1-1.19-6.16,16.44,16.44,0,0,1,3.08-9.68,9.86,9.86,0,0,1,8.51-4.37,7.87,7.87,0,0,1,6.1,2.7A8.13,8.13,0,0,1,1277,769Z"/><path class="cls-31" d="M1310.61,770.67q0,5.13-4.12,10t-11.5,4.91c-.12.78-.2,1.54-.24,2.29s-.07,1.46-.07,2.12a13.75,13.75,0,0,0,.86,5.22,2.94,2.94,0,0,0,2.87,2.07,6,6,0,0,0,4.45-2.25,19.68,19.68,0,0,0,3.29-4.77.74.74,0,0,1,.43.09,1.26,1.26,0,0,1,.27.31c.11.15.2.29.28.41a6.15,6.15,0,0,1,.49.94,1.19,1.19,0,0,1,.12.86,17.36,17.36,0,0,1-5.25,7.69q-3.78,3.28-7.44,3.29a8.69,8.69,0,0,1-7.17-3.69,14.62,14.62,0,0,1-2.83-9.18,36.55,36.55,0,0,1,6.25-20.84q6.26-9.31,12-9.32,4,0,5.67,3A13.94,13.94,0,0,1,1310.61,770.67Zm-7.51-.81a7.37,7.37,0,0,0-.27-2.3,1.19,1.19,0,0,0-1.25-.77q-1.89,0-3.72,4.46a35.28,35.28,0,0,0-2.38,10q3.29,0,5.46-3.83A15.35,15.35,0,0,0,1303.1,769.86Z"/><path class="cls-31" d="M1349,768.51a10.58,10.58,0,0,1-1.25,5.4,3.79,3.79,0,0,1-3.39,2.16,2.26,2.26,0,0,1-1.74-.63,6.14,6.14,0,0,1-1-1.53,10.38,10.38,0,0,0-.86-1.53,1.49,1.49,0,0,0-1.28-.72c-1.31,0-3,3-5.22,9.13a184.39,184.39,0,0,0-5.9,20.48c-.12.48-.83.85-2.13,1.12a16.21,16.21,0,0,1-2.61.41,20.75,20.75,0,0,1-2.93-.41c-1.46-.27-2.15-.64-2.06-1.12l6-26.91c.29-1.32.49-2.28.61-2.88a7.69,7.69,0,0,0,.19-1.62,1.48,1.48,0,0,0-.15-.72.47.47,0,0,0-.4-.27c-.61,0-1.4.82-2.38,2.47s-1.63,2.48-2,2.48-.65-.33-1-1a4.45,4.45,0,0,1-.49-1.26q0-1.62,3.39-6.17c2.26-3,4.58-4.55,7-4.55a4.86,4.86,0,0,1,4.15,2.12,9.39,9.39,0,0,1,1.53,5.63c0,.54,0,1-.07,1.44a7,7,0,0,1-.24,1.26l-1.75,7a80.46,80.46,0,0,1,5.48-13.1q2.51-4.37,5.18-4.37a4.42,4.42,0,0,1,3.78,2.12A9.52,9.52,0,0,1,1349,768.51Z"/><path class="cls-31" d="M1396.8,765.08a5.7,5.7,0,0,1-.46,2.08c-.3.78-.57,1.17-.82,1.17l-6-.27-5,21.69c-.17.72-.31,1.45-.43,2.2a12.2,12.2,0,0,0-.18,1.85,3.64,3.64,0,0,0,.12,1.08.51.51,0,0,0,.55.36q1.51,0,3.52-2.93c1.33-1.95,2.14-2.92,2.42-2.92s.72.33,1.19,1a3.26,3.26,0,0,1,.69,1.35,7.61,7.61,0,0,1-1.37,2.61,27.35,27.35,0,0,1-3.2,4,39.72,39.72,0,0,1-4.24,4,6.69,6.69,0,0,1-4.24,1.58,5,5,0,0,1-4.18-2,9.23,9.23,0,0,1-1.55-5.71,14,14,0,0,1,.15-2.25c.1-.6.25-1.41.46-2.43l5.36-23.31-4.63.18c-.25,0-.42-.27-.52-.81a7.86,7.86,0,0,1-.15-1.36,5.56,5.56,0,0,1,.46-2.11c.3-.75.56-1.13.76-1.13h5.31l2.25-9.72c.08-.48.89-.85,2.42-1.12a24.51,24.51,0,0,1,2.85-.41,13.93,13.93,0,0,1,2.78.45c1.29.3,1.87.66,1.75,1.08l-2.25,9.72h5.51c.24,0,.41.27.52.81A7.66,7.66,0,0,1,1396.8,765.08Z"/><path class="cls-31" d="M1421.38,791.82q0,1.44-4.61,6.75t-8.32,5.31a4,4,0,0,1-3.72-1.94,8.24,8.24,0,0,1-1.16-4.36,12.69,12.69,0,0,1,.3-2.84c.21-.87.43-1.75.67-2.65l5.8-17.73c.32-1,.56-1.85.7-2.48a7.75,7.75,0,0,0,.21-1.66,2.22,2.22,0,0,0-.18-1,.54.54,0,0,0-.49-.31c-.53,0-1.55,1.18-3.08,3.55s-2.43,3.56-2.71,3.56-.65-.33-1-1a4.45,4.45,0,0,1-.49-1.26,7.21,7.21,0,0,1,1.16-2.93,37.36,37.36,0,0,1,2.93-4.28,23.55,23.55,0,0,1,3.81-3.87,6.66,6.66,0,0,1,3.94-1.8,4.5,4.5,0,0,1,4.12,2.3,10.63,10.63,0,0,1,1.37,5.54,22.79,22.79,0,0,1-.19,2.88,13.22,13.22,0,0,1-.79,3.15l-4.63,15c-.37,1.26-.63,2.28-.8,3.06a9.66,9.66,0,0,0-.24,1.62c0,.36.06.58.18.67a.63.63,0,0,0,.37.14c.89,0,1.94-1,3.14-2.84s2-2.83,2.29-2.83.59.31.91.94A3.57,3.57,0,0,1,1421.38,791.82Zm4.7-46.45a10.14,10.14,0,0,1-1.62,5.76,4.38,4.38,0,0,1-7.84,0,10.94,10.94,0,0,1,0-11.52,4.38,4.38,0,0,1,7.84,0A10.14,10.14,0,0,1,1426.08,745.37Z"/><path class="cls-31" d="M1454,737.68a7.41,7.41,0,0,1-.1,1.12c-.06.45-.13.85-.21,1.21l-11,49.74c-.32,1.5-.57,2.64-.73,3.42a10,10,0,0,0-.24,1.53.58.58,0,0,0,.12.4.39.39,0,0,0,.3.14c.9,0,1.88-.83,2.94-2.48s1.75-2.47,2.08-2.47.59.31.92.94a3.77,3.77,0,0,1,.49,1.31q0,1.44-4.34,6.39t-8,5a3.67,3.67,0,0,1-3.26-1.71,8.82,8.82,0,0,1-1.13-4.86,18,18,0,0,1,.15-2.38c.1-.75.26-1.69.46-2.83L1441,752c.2-.84.37-1.6.49-2.29a10.46,10.46,0,0,0,.18-1.75,1.48,1.48,0,0,0-.7-1.4,9.3,9.3,0,0,0-2.59-.76c-.12-.06-.24-.32-.34-.77a5.33,5.33,0,0,1-.15-1.12,6.69,6.69,0,0,1,.12-1.13c.08-.45.19-.67.31-.67,1.75-.42,4.13-1.14,7.16-2.16a40,40,0,0,0,6.43-2.61,2.47,2.47,0,0,1,.73-.41,2.41,2.41,0,0,1,.8-.22.48.48,0,0,1,.45.31A1.58,1.58,0,0,1,1454,737.68Z"/><path class="cls-31" d="M1528.25,791.82q0,1.44-4.64,6.75t-8.36,5.31a4,4,0,0,1-3.7-1.89,8.46,8.46,0,0,1-1.12-4.41,14.13,14.13,0,0,1,.21-2.57,27.38,27.38,0,0,1,.76-2.92l5.55-16.92c.24-.84.46-1.62.64-2.34a7.69,7.69,0,0,0,.27-1.8,2,2,0,0,0-.21-1,.6.6,0,0,0-.52-.31q-1.94,0-5,5.8a183.92,183.92,0,0,0-7.66,17.78l-2.45,7.65q-.3.81-2,1.35a10.26,10.26,0,0,1-3.09.54,9.43,9.43,0,0,1-3.42-.59c-1-.38-1.47-.82-1.35-1.3l8.36-25.74c.32-1,.56-1.85.7-2.48a7.75,7.75,0,0,0,.21-1.66,2.22,2.22,0,0,0-.18-1,.55.55,0,0,0-.49-.31q-2,0-5.37,6a146.93,146.93,0,0,0-7.81,17.55l-2.39,7.65q-.32.81-2,1.35a10.26,10.26,0,0,1-3.14.54,8.45,8.45,0,0,1-3.28-.63c-1-.42-1.47-.84-1.34-1.26l8.29-26.55c.25-.84.46-1.62.64-2.34a7.27,7.27,0,0,0,.28-1.8,1.85,1.85,0,0,0-.22-1,.6.6,0,0,0-.51-.31q-.73,0-3,3.55c-1.55,2.37-2.44,3.56-2.69,3.56s-.66-.33-1-1a4,4,0,0,1-.52-1.26,7.15,7.15,0,0,1,1.15-2.93,37.19,37.19,0,0,1,2.92-4.28,23.48,23.48,0,0,1,3.8-3.87,6.62,6.62,0,0,1,3.93-1.8,4.27,4.27,0,0,1,4,2.16,10.23,10.23,0,0,1,1.28,5.32,21.83,21.83,0,0,1-.18,2.7,13.83,13.83,0,0,1-.79,3.06l-.31,1a38.34,38.34,0,0,1,6.6-10.49q3.53-3.74,6.84-3.74a3.75,3.75,0,0,1,3.74,2.48,12.88,12.88,0,0,1,1,5,20.39,20.39,0,0,1-.24,3,13.18,13.18,0,0,1-.8,3l-.3,1.08a40.24,40.24,0,0,1,6.26-10.58q3.4-3.91,6.45-3.92a4.47,4.47,0,0,1,4.1,2.3,10.63,10.63,0,0,1,1.37,5.54,19.93,19.93,0,0,1-.21,2.88,20.48,20.48,0,0,1-.77,3.15l-4.63,15a30.94,30.94,0,0,0-.86,3.19,10,10,0,0,0-.18,1.49c0,.36.05.58.15.67a.59.59,0,0,0,.4.14c.81,0,1.85-1,3.11-2.84s2-2.83,2.32-2.83.59.31.91.94A3.57,3.57,0,0,1,1528.25,791.82Z"/><path class="cls-31" d="M1556.07,791.82q0,1.44-4.61,6.75t-8.32,5.31a4,4,0,0,1-3.73-1.94,8.34,8.34,0,0,1-1.16-4.36,12.67,12.67,0,0,1,.31-2.84c.2-.87.43-1.75.67-2.65l5.8-17.73c.32-1,.55-1.85.7-2.48a7.75,7.75,0,0,0,.21-1.66,2.22,2.22,0,0,0-.18-1,.55.55,0,0,0-.49-.31q-.8,0-3.08,3.55t-2.71,3.56c-.33,0-.66-.33-1-1a4.14,4.14,0,0,1-.49-1.26,7.21,7.21,0,0,1,1.16-2.93,36.12,36.12,0,0,1,2.93-4.28,23.55,23.55,0,0,1,3.81-3.87,6.64,6.64,0,0,1,3.94-1.8,4.48,4.48,0,0,1,4.11,2.3,10.54,10.54,0,0,1,1.38,5.54,24.82,24.82,0,0,1-.19,2.88,13.22,13.22,0,0,1-.79,3.15l-4.64,15c-.36,1.26-.63,2.28-.79,3.06a9.66,9.66,0,0,0-.24,1.62c0,.36.06.58.18.67a.61.61,0,0,0,.37.14c.89,0,1.94-1,3.14-2.84s2-2.83,2.28-2.83.59.31.92.94A3.77,3.77,0,0,1,1556.07,791.82Zm4.69-46.45a10.14,10.14,0,0,1-1.61,5.76,4.38,4.38,0,0,1-7.84,0,10.88,10.88,0,0,1,0-11.52,4.38,4.38,0,0,1,7.84,0A10.14,10.14,0,0,1,1560.76,745.37Z"/><path class="cls-31" d="M1598.22,768.33a25.71,25.71,0,0,1-.49,2.92c-.24,1.11-.53,1.67-.85,1.67l-4-.27c0,.3,0,.7.06,1.21s.06,1,.06,1.4q0,7.83-4.14,12.42t-11.47,4.59a3.56,3.56,0,0,0-2.59.76,2.14,2.14,0,0,0-.77,1.4q0,2.07,3.2,3.19t5.59,2.12a19.1,19.1,0,0,1,5.94,3.69c1.9,1.68,2.84,4.08,2.84,7.2a15.48,15.48,0,0,1-5.15,11.57q-5.16,4.9-10.71,4.9-6.76,0-10.83-3.51a10.56,10.56,0,0,1-4-8.19,9.86,9.86,0,0,1,1.92-6.3q1.92-2.43,6.49-3.33a10.07,10.07,0,0,1-3.23-2.75,6,6,0,0,1-1.16-3.64,9.07,9.07,0,0,1,1.92-5.54,9.75,9.75,0,0,1,5.89-3.46,11.64,11.64,0,0,1-3.78-4.55,15,15,0,0,1-1.22-6.34q0-8.37,4.54-13.51t9.85-5.13a9.57,9.57,0,0,1,5.92,1.67,11.56,11.56,0,0,1,3.48,4.37l6.28-.37c.21,0,.34.2.4.59A5,5,0,0,1,1598.22,768.33Zm-14.28,47.16a4.93,4.93,0,0,0-3.23-4.9,71.51,71.51,0,0,0-8.17-2.84,6.44,6.44,0,0,0-3.7,2.34,9.54,9.54,0,0,0,.64,10.49q1.92,2.2,6.43,2.2a7.56,7.56,0,0,0,5.93-2.34A7.33,7.33,0,0,0,1583.94,815.49Zm.74-46.35a6.56,6.56,0,0,0-.55-2.84,1.67,1.67,0,0,0-1.47-1.13q-1.83,0-4.05,6.17a37.11,37.11,0,0,0-2.23,12.74,6.4,6.4,0,0,0,.52,2.79,1.65,1.65,0,0,0,1.55,1.08q2.38,0,4.3-6.39A42.75,42.75,0,0,0,1584.68,769.14Z"/><path class="cls-31" d="M1614.2,796.77a8.65,8.65,0,0,1-1.4,5,3.75,3.75,0,0,1-6.71,0,9.39,9.39,0,0,1,0-9.9,3.75,3.75,0,0,1,6.71,0A8.65,8.65,0,0,1,1614.2,796.77Zm8.72-48.34-9.73,35.38a1.35,1.35,0,0,1-.45.72,1.49,1.49,0,0,1-1,.27,1.23,1.23,0,0,1-1.13-.54,2.22,2.22,0,0,1-.27-1.35l1.83-39.25a6,6,0,0,1,1.28-3.69,4.65,4.65,0,0,1,3.86-1.53,5.15,5.15,0,0,1,5.22,3.29A9.61,9.61,0,0,1,1622.92,748.43Z"/></svg>