<svg id="Layer_1" data-name="Layer 1" xmlns="http://www.w3.org/2000/svg" width="150mm" height="150mm" viewBox="0 0 425.2 425.2"><defs><style>.cls-1{fill:#1d1d1b;}</style></defs><path class="cls-1" d="M163.47,131.92c0,.18-.21.38-.63.59a2.8,2.8,0,0,1-1.26.32,2.76,2.76,0,0,1-.73-.14c-.3-.1-.46-.19-.46-.28a17.78,17.78,0,0,0-3.88-8.79q-3.25-4.09-9.42-4.09h-4.2a5.9,5.9,0,0,0-2.8.7c-.88.46-1.33,1.61-1.33,3.43v14.77h3.5a7.66,7.66,0,0,0,5.67-2.1,9.14,9.14,0,0,0,2.52-5.53c0-.14.18-.27.53-.39a3.12,3.12,0,0,1,2,0c.35.12.52.25.52.39q0,2.58-.21,4.83t-.21,4.62c0,1.63.07,3.16.21,4.58s.21,3,.21,4.66c0,.14-.17.27-.52.38a3,3,0,0,1-2,0c-.35-.11-.53-.24-.53-.38a9.73,9.73,0,0,0-2.41-5.64q-1.92-2-5.78-2h-3.5v13.58a5.07,5.07,0,0,0,1.61,4.13c1.08.88,3,1.47,5.67,1.75.14,0,.27.2.39.59a3.4,3.4,0,0,1,.17,1,3.25,3.25,0,0,1-.17,1c-.12.37-.25.56-.39.56-2.28,0-4.69-.06-7.21-.18s-4.85-.17-7-.17-4.37.06-6.68.17-4.61.18-6.9.18c-.14,0-.26-.18-.38-.53a3.13,3.13,0,0,1-.18-1,3.07,3.07,0,0,1,.18-.91c.12-.38.24-.59.38-.63q4.06-.49,5.36-1.75a5.6,5.6,0,0,0,1.29-4.13V124.71a5.58,5.58,0,0,0-1.29-4.13c-.86-.84-2.65-1.43-5.36-1.75-.14,0-.26-.26-.38-.63a3.19,3.19,0,0,1-.18-.91,3.14,3.14,0,0,1,.18-1c.12-.35.24-.52.38-.52L129,116q7,.14,11.48.14c2.66,0,6.33,0,11-.11s8.43-.15,11.27-.24c0,2,.09,4.65.25,7.94S163.33,129.72,163.47,131.92Z"/><path class="cls-1" d="M205.05,149a16.2,16.2,0,0,1-4.72,11.58q-4.72,4.93-13.83,4.94t-13.82-4.9a16,16,0,0,1-4.8-11.62,16.89,16.89,0,0,1,4.76-11.8q4.77-5.14,13.86-5.14,8.9,0,13.72,5.07A16.68,16.68,0,0,1,205.05,149Zm-12.74-.07a34.3,34.3,0,0,0-1.12-10.12,4.52,4.52,0,0,0-4.69-3.39,4.58,4.58,0,0,0-4.72,3.46,33.47,33.47,0,0,0-1.16,10.05q0,6.78,1.16,10a5,5,0,0,0,9.38,0Q192.32,155.64,192.31,148.93Z"/><path class="cls-1" d="M259.3,163a3.54,3.54,0,0,1-.17,1c-.12.38-.25.56-.39.56-1.44,0-3.11-.07-5-.22s-3.65-.23-5.29-.23a45.46,45.46,0,0,0-4.69.23c-1.54.15-3,.22-4.41.22-.14,0-.27-.18-.38-.56a3.25,3.25,0,0,1-.18-1A2.92,2.92,0,0,1,239,162c.11-.35.24-.55.38-.6a2.8,2.8,0,0,0,2.1-1.37c.47-.77.7-2.29.7-4.54V144.38a11.17,11.17,0,0,0-.8-5c-.54-1-1.62-1.47-3.26-1.47a4.27,4.27,0,0,0-3.29,1.36,15.31,15.31,0,0,0-2.52,4.38v11.83a10.56,10.56,0,0,0,.67,4.43,2.45,2.45,0,0,0,2.06,1.48c.14,0,.27.18.39.53a3.12,3.12,0,0,1,0,2c-.12.35-.25.52-.39.52-1.44,0-2.91-.07-4.41-.22a44,44,0,0,0-4.69-.23c-1.63,0-3.39.07-5.28.23s-3.54.22-4.94.22c-.14,0-.27-.17-.38-.52a3.14,3.14,0,0,1-.18-1,2.87,2.87,0,0,1,.18-1c.11-.32.24-.51.38-.56,2.06-.28,3.35-.76,3.89-1.44s.8-2.17.8-4.47v-11q0-2.94-.63-3.75c-.42-.54-1.49-.9-3.22-1.09-.14,0-.27-.18-.38-.56a3.07,3.07,0,0,1-.18-.91,2.8,2.8,0,0,1,.18-.87c.11-.35.24-.53.38-.53a67.84,67.84,0,0,0,6.55-2.19c2.77-1,4.82-1.89,6.12-2.54a5.81,5.81,0,0,1,.7-.34,2.23,2.23,0,0,1,.84-.21,2,2,0,0,1,1.23.31c.25.21.36.41.31.6l-.28,6.72a10.61,10.61,0,0,1,4.45-5.25,12.22,12.22,0,0,1,6.4-1.82,10.39,10.39,0,0,1,8.19,3.29A10.75,10.75,0,0,1,254,142.7v12.81q0,3.38.84,4.47c.56.73,1.87,1.21,3.92,1.44q.21,0,.39.6A3.75,3.75,0,0,1,259.3,163Z"/><path class="cls-1" d="M294.23,135.91a6.2,6.2,0,0,1-.24,1.64c-.17.59-.39.88-.67.88l-10.43-.28v18.13a4.38,4.38,0,0,0,.81,2.9,3.45,3.45,0,0,0,2.76.95,5.61,5.61,0,0,0,2.91-.81,8.65,8.65,0,0,0,2.34-2,.56.56,0,0,1,.7-.28,1.84,1.84,0,0,1,.77.49,4.35,4.35,0,0,1,.53.87,2.2,2.2,0,0,1,.24.88v.28a.24.24,0,0,1-.14.21,14.91,14.91,0,0,1-4.48,3.6,14,14,0,0,1-7.07,1.72q-5.75,0-8.68-3t-2.87-9.9l.14-13.16a1.12,1.12,0,0,0-.21-.7A.73.73,0,0,0,270,138h-4.34c-.19,0-.35-.21-.49-.63a3.38,3.38,0,0,1-.21-.91,3,3,0,0,1,.21-.88,1.53,1.53,0,0,1,.42-.73,72.26,72.26,0,0,0,7.88-4.94,50.92,50.92,0,0,0,6.68-5.63,1.32,1.32,0,0,1,.67-.39,3.06,3.06,0,0,1,.87-.17,3.4,3.4,0,0,1,1,.17c.35.12.52.25.52.39l-.28,9.17h10.36c.28,0,.5.3.67.91A6.18,6.18,0,0,1,294.23,135.91Z"/><path class="cls-1" d="M106.23,267.82a1.84,1.84,0,0,1-.1.56c-.06.21-.14.32-.22.32-1.3,0-2.62,0-4-.1s-2.61-.1-3.84-.1-2.44,0-3.66.1-2.47.1-3.78.1c-.08,0-.15-.1-.22-.3a2.08,2.08,0,0,1-.1-.58,2,2,0,0,1,.1-.52c.07-.22.14-.34.22-.36,1.52-.19,2.48-.52,2.88-1a3.69,3.69,0,0,0,.6-2.36v-7.92H83.35v7.92a3.81,3.81,0,0,0,.6,2.36c.4.5,1.38.84,2.92,1,.08,0,.16.11.22.34a1.56,1.56,0,0,1,0,1.1c-.06.21-.14.32-.22.32-1.3,0-2.57,0-3.8-.1s-2.45-.1-3.68-.1-2.5,0-3.82.1-2.63.1-3.94.1c-.08,0-.15-.1-.22-.3a2.08,2.08,0,0,1-.1-.58,2,2,0,0,1,.1-.52c.07-.22.14-.34.22-.36a5.57,5.57,0,0,0,3.06-1,3.17,3.17,0,0,0,.74-2.36V246a3.15,3.15,0,0,0-.74-2.36,5.49,5.49,0,0,0-3.06-1c-.08,0-.15-.15-.22-.36a2.19,2.19,0,0,1-.1-.52,2,2,0,0,1,.1-.58c.07-.2.14-.3.22-.3,1.31,0,2.62,0,3.94.1s2.6.1,3.82.1,2.46,0,3.68-.1,2.5-.1,3.8-.1c.08,0,.16.1.22.32a1.79,1.79,0,0,1,.1.56,2,2,0,0,1-.1.54c-.06.22-.14.34-.22.34-1.54.16-2.52.49-2.92,1a3.77,3.77,0,0,0-.6,2.36v7.68h10.8V246a4,4,0,0,0-.54-2.4q-.54-.69-2.94-1c-.08,0-.15-.15-.22-.36a2.19,2.19,0,0,1-.1-.52,2,2,0,0,1,.1-.58c.07-.2.14-.3.22-.3,1.31,0,2.57,0,3.78.1s2.44.1,3.66.1,2.54,0,3.84-.1,2.63-.1,4-.1c.08,0,.16.1.22.32a1.79,1.79,0,0,1,.1.56,2,2,0,0,1-.1.54c-.06.22-.14.34-.22.34a5.28,5.28,0,0,0-3.08,1,3.23,3.23,0,0,0-.76,2.36v17.56a3.26,3.26,0,0,0,.76,2.36,5.36,5.36,0,0,0,3.08,1c.08,0,.16.11.22.34A1.83,1.83,0,0,1,106.23,267.82Z"/><path class="cls-1" d="M132.07,259.9a9.27,9.27,0,0,1-2.7,6.62q-2.7,2.82-7.9,2.82c-3.44,0-6.07-.94-7.9-2.8a9.2,9.2,0,0,1-2.74-6.64,9.64,9.64,0,0,1,2.72-6.74q2.73-2.94,7.92-2.94c3.39,0,6,1,7.84,2.9A9.51,9.51,0,0,1,132.07,259.9Zm-7.28,0a19.5,19.5,0,0,0-.64-5.78,2.58,2.58,0,0,0-2.68-1.94,2.62,2.62,0,0,0-2.7,2,19.11,19.11,0,0,0-.66,5.74,18.26,18.26,0,0,0,.66,5.72,2.62,2.62,0,0,0,2.7,1.84,2.58,2.58,0,0,0,2.66-1.86A18.25,18.25,0,0,0,124.79,259.86Z"/><path class="cls-1" d="M157.83,258a.56.56,0,0,1-.2.44.91.91,0,0,1-.56.16H146a4.88,4.88,0,0,0,0,.74v.86c0,2.24.37,3.8,1.1,4.68a3.9,3.9,0,0,0,3.18,1.32,8.84,8.84,0,0,0,3.24-.72,5.82,5.82,0,0,0,2.6-1.8q0-.09.24.06l.36.26a2.24,2.24,0,0,1,.34.42.78.78,0,0,1,.14.42,1,1,0,0,1,0,.16.41.41,0,0,1-.1.16,11.64,11.64,0,0,1-3,2.8,9.08,9.08,0,0,1-5.24,1.36,10.09,10.09,0,0,1-7.2-2.76,8.68,8.68,0,0,1-2.92-6.52,9.52,9.52,0,0,1,2.78-7,9.89,9.89,0,0,1,7.34-2.78,9.21,9.21,0,0,1,6.56,2.24A7.24,7.24,0,0,1,157.83,258Zm-6.64-3a3.69,3.69,0,0,0-.54-2,1.8,1.8,0,0,0-1.62-.84,2.07,2.07,0,0,0-2,1.28,9.46,9.46,0,0,0-.84,3.36l3.28-.08a2.37,2.37,0,0,0,1.28-.34C151.06,256.12,151.19,255.67,151.19,255Z"/><path class="cls-1" d="M183.71,243.82a3.09,3.09,0,0,1-.76,2.06,2.77,2.77,0,0,1-2.24.9,2.36,2.36,0,0,1-1.72-.64,6.31,6.31,0,0,1-1.08-1.44,12.7,12.7,0,0,0-.82-1.42,1.27,1.27,0,0,0-1-.7,2.42,2.42,0,0,0-1.64.58c-.45.38-.68,1.83-.68,4.34v3.72h4.48q.24,0,.36.48a3.75,3.75,0,0,1,.12.92,3.81,3.81,0,0,1-.14.92c-.09.34-.21.5-.34.48l-4.52-.16v9.72a3.69,3.69,0,0,0,.64,2.56,3.93,3.93,0,0,0,2.36.8c.08,0,.15.11.22.34a1.83,1.83,0,0,1,.1.54,1.77,1.77,0,0,1-.1.58c-.07.2-.14.3-.22.3-.83,0-1.87,0-3.12-.1s-2.35-.1-3.28-.1-2,0-3.14.1-2.15.1-3,.1c-.08,0-.15-.11-.22-.32a1.84,1.84,0,0,1-.1-.56,1.67,1.67,0,0,1,.1-.52c.07-.22.14-.34.22-.36a3.58,3.58,0,0,0,2.26-.78,4.67,4.67,0,0,0,.46-2.58v-9.24a.66.66,0,0,0-.12-.38.4.4,0,0,0-.36-.18h-2.2c-.11,0-.2-.12-.28-.34a1.78,1.78,0,0,1-.12-.5,1.88,1.88,0,0,1,.12-.52c.08-.24.16-.38.24-.4q.65-.17,1.68-.48c.69-.22,1-.43,1-.64a11.56,11.56,0,0,1,10.72-11.28,7.17,7.17,0,0,1,4.54,1.22A3.66,3.66,0,0,1,183.71,243.82Z"/><path class="cls-1" d="M195.79,267.84a1.84,1.84,0,0,1-.1.56c-.07.21-.14.32-.22.32-.83,0-1.86-.05-3.1-.13s-2.33-.13-3.26-.13-1.91,0-3,.13-2,.13-2.84.13c-.08,0-.15-.11-.22-.32a1.84,1.84,0,0,1-.1-.56,1.67,1.67,0,0,1,.1-.52c.07-.22.14-.34.22-.36a3.36,3.36,0,0,0,2.1-.81,3.85,3.85,0,0,0,.62-2.57V247.06a2.71,2.71,0,0,0-.6-2.1,4,4,0,0,0-2.12-.66c-.08,0-.15-.14-.22-.34a1.57,1.57,0,0,1-.1-.5,1.52,1.52,0,0,1,.1-.5c.07-.2.14-.3.22-.3a35.17,35.17,0,0,0,4.22-1.3c1.53-.58,2.81-1.1,3.82-1.58a2.07,2.07,0,0,1,.4-.2,1.29,1.29,0,0,1,.48-.12,1.11,1.11,0,0,1,.7.18c.15.12.21.23.18.34,0,.93-.12,2.08-.2,3.44s-.12,2.46-.12,3.32v16.84a3.8,3.8,0,0,0,.64,2.57,3.1,3.1,0,0,0,2.08.81c.08,0,.15.11.22.34A1.83,1.83,0,0,1,195.79,267.84Z"/><path class="cls-1" d="M220,258a.56.56,0,0,1-.2.44.91.91,0,0,1-.56.16h-11a4.88,4.88,0,0,0,0,.74v.86c0,2.24.37,3.8,1.1,4.68a3.9,3.9,0,0,0,3.18,1.32,8.84,8.84,0,0,0,3.24-.72,5.82,5.82,0,0,0,2.6-1.8q0-.09.24.06l.36.26a2.24,2.24,0,0,1,.34.42.78.78,0,0,1,.14.42,1,1,0,0,1,0,.16.41.41,0,0,1-.1.16,11.64,11.64,0,0,1-3,2.8A9.08,9.08,0,0,1,211,269.3a10.09,10.09,0,0,1-7.2-2.76,8.68,8.68,0,0,1-2.92-6.52,9.52,9.52,0,0,1,2.78-7,9.89,9.89,0,0,1,7.34-2.78,9.21,9.21,0,0,1,6.56,2.24A7.24,7.24,0,0,1,220,258Zm-6.64-3a3.69,3.69,0,0,0-.54-2,1.8,1.8,0,0,0-1.62-.84,2.07,2.07,0,0,0-2,1.28,9.46,9.46,0,0,0-.84,3.36l3.28-.08a2.37,2.37,0,0,0,1.28-.34C213.22,256.12,213.35,255.67,213.35,255Z"/><path class="cls-1" d="M244.71,253.46a3.27,3.27,0,0,1-.82,2.3,2.76,2.76,0,0,1-2.14.9,2.53,2.53,0,0,1-1.4-.36,5.67,5.67,0,0,1-.92-.72,8,8,0,0,0-.78-.76,1.4,1.4,0,0,0-.94-.36,1.76,1.76,0,0,0-1.34.52,7.27,7.27,0,0,0-1.06,1.52v7.05a3.69,3.69,0,0,0,.64,2.54,4,4,0,0,0,2.4.87c.08,0,.15.1.22.32a1.79,1.79,0,0,1,.1.56,2,2,0,0,1-.1.54c-.07.22-.14.34-.22.34-.83,0-1.87-.05-3.14-.13s-2.37-.13-3.3-.13-1.95,0-3.12.13-2.16.13-3,.13c-.08,0-.15-.12-.22-.34a2,2,0,0,1-.1-.54,1.79,1.79,0,0,1,.1-.56c.07-.22.14-.32.22-.32a3.57,3.57,0,0,0,2.24-.84,4.54,4.54,0,0,0,.48-2.56v-6.28a3.87,3.87,0,0,0-.38-2.1,2.69,2.69,0,0,0-1.86-.66c-.08,0-.15-.1-.22-.3a1.57,1.57,0,0,1-.1-.5,1.67,1.67,0,0,1,.1-.52c.07-.22.14-.32.22-.32a33.85,33.85,0,0,0,3.64-1.2q2.33-.87,3.6-1.47a2.17,2.17,0,0,1,.4-.19,1.34,1.34,0,0,1,1.18,0,.45.45,0,0,1,.22.36l-.2,3.81a8.5,8.5,0,0,1,2.48-2.88,4.94,4.94,0,0,1,2.92-1.16,4.69,4.69,0,0,1,3.06.9A2.93,2.93,0,0,1,244.71,253.46Z"/><path class="cls-1" d="M277.47,252.42a3.69,3.69,0,0,1-.14.94c-.09.33-.22.5-.38.5l-6-.16v10.36a2.51,2.51,0,0,0,.46,1.66,2,2,0,0,0,1.58.54,3.27,3.27,0,0,0,1.66-.46,5.1,5.1,0,0,0,1.34-1.14.32.32,0,0,1,.4-.16,1,1,0,0,1,.44.28,2.13,2.13,0,0,1,.3.5,1.27,1.27,0,0,1,.14.5v.16a.14.14,0,0,1-.08.12,8.64,8.64,0,0,1-2.56,2.06,8.06,8.06,0,0,1-4,1,6.58,6.58,0,0,1-5-1.74Q264,265.62,264,261.7l.08-7.52a.63.63,0,0,0-.12-.4.41.41,0,0,0-.36-.16h-2.48c-.11,0-.2-.12-.28-.36a2,2,0,0,1-.12-.52,1.64,1.64,0,0,1,.12-.5.84.84,0,0,1,.24-.42,41.5,41.5,0,0,0,4.5-2.82,28.89,28.89,0,0,0,3.82-3.22.68.68,0,0,1,.38-.22,1.57,1.57,0,0,1,.5-.1,1.73,1.73,0,0,1,.58.1c.2.06.3.14.3.22L271,251H277c.16,0,.29.17.38.52A3.6,3.6,0,0,1,277.47,252.42Z"/><path class="cls-1" d="M301.79,258a.56.56,0,0,1-.2.44.91.91,0,0,1-.56.16H290a4.88,4.88,0,0,0,0,.74v.86c0,2.24.37,3.8,1.1,4.68a3.9,3.9,0,0,0,3.18,1.32,8.84,8.84,0,0,0,3.24-.72,5.82,5.82,0,0,0,2.6-1.8q0-.09.24.06l.36.26a2.24,2.24,0,0,1,.34.42.78.78,0,0,1,.14.42,1,1,0,0,1,0,.16.41.41,0,0,1-.1.16,11.64,11.64,0,0,1-3,2.8,9.08,9.08,0,0,1-5.24,1.36,10.09,10.09,0,0,1-7.2-2.76,8.68,8.68,0,0,1-2.92-6.52,9.52,9.52,0,0,1,2.78-7,9.89,9.89,0,0,1,7.34-2.78,9.21,9.21,0,0,1,6.56,2.24A7.24,7.24,0,0,1,301.79,258Zm-6.64-3a3.69,3.69,0,0,0-.54-2,1.8,1.8,0,0,0-1.62-.84,2.07,2.07,0,0,0-2,1.28,9.46,9.46,0,0,0-.84,3.36l3.28-.08a2.37,2.37,0,0,0,1.28-.34C295,256.12,295.15,255.67,295.15,255Z"/><path class="cls-1" d="M330.19,267.82a2.08,2.08,0,0,1-.1.58c-.07.2-.14.3-.22.3-.83,0-1.82,0-3-.1s-2.21-.1-3.14-.1-2,0-3.32.1-2.32.1-3.12.1c-.08,0-.16-.1-.22-.3a1.77,1.77,0,0,1-.1-.58,1.67,1.67,0,0,1,.1-.52c.06-.22.14-.34.22-.36a3.89,3.89,0,0,0,1-.22.46.46,0,0,0,.3-.42,1.79,1.79,0,0,0-.22-.72c-.15-.3-.41-.75-.78-1.36l-1.27-2.09-1.53,2.17a8.8,8.8,0,0,0-.72,1.1,1.42,1.42,0,0,0-.2.7.65.65,0,0,0,.28.56,2.44,2.44,0,0,0,1,.28c.08,0,.14.11.2.34a2.6,2.6,0,0,1,.08.54,2.08,2.08,0,0,1-.1.58c-.07.2-.14.3-.22.3-.64,0-1.32,0-2-.1s-1.38-.1-2-.1a20.63,20.63,0,0,0-2.18.1c-.66.06-1.26.1-1.82.1-.08,0-.16-.11-.22-.32a1.84,1.84,0,0,1-.1-.56,1.52,1.52,0,0,1,.12-.52q.12-.33.24-.36a10.82,10.82,0,0,0,2.84-.62,7.92,7.92,0,0,0,2.24-2.1l3-3.65-3.76-5.27a7.28,7.28,0,0,0-2.14-2.26,10.55,10.55,0,0,0-2.5-.48c-.08,0-.16-.14-.22-.32a1.62,1.62,0,0,1-.1-.56,1.73,1.73,0,0,1,.1-.58c.06-.2.14-.3.22-.3.82,0,1.82,0,3,.13s2.22.13,3.16.13,2-.05,3.24-.13,2.24-.13,3-.13c.08,0,.15.1.22.32a2.14,2.14,0,0,1,.1.56,2.42,2.42,0,0,1-.1.54c-.07.22-.14.34-.22.34a2.05,2.05,0,0,0-.94.22.53.53,0,0,0-.3.46,1.72,1.72,0,0,0,.26.77,11.31,11.31,0,0,0,.86,1.29l1.44,2.05,1.44-2.09.72-1.11a1.54,1.54,0,0,0,.24-.83.5.5,0,0,0-.3-.5,4.22,4.22,0,0,0-1.06-.26c-.08,0-.16-.14-.22-.34a1.64,1.64,0,0,1-.1-.54,1.79,1.79,0,0,1,.1-.56c.06-.22.14-.32.22-.32a20,20,0,0,1,2.18.13c.81.08,1.54.13,2.18.13a14.14,14.14,0,0,0,2-.13,10.14,10.14,0,0,1,1.66-.13c.08,0,.15.1.22.3a2,2,0,0,1,.1.58,2.42,2.42,0,0,1-.1.54c-.07.22-.14.34-.22.34a7.63,7.63,0,0,0-2.72.62,8.39,8.39,0,0,0-2.32,2.16L321.66,259l3.58,5.23a7.06,7.06,0,0,0,1.89,2,7.38,7.38,0,0,0,2.74.69c.08,0,.15.11.22.34A2.24,2.24,0,0,1,330.19,267.82Z"/><path class="cls-1" d="M350.63,252.42a3.69,3.69,0,0,1-.14.94c-.1.33-.22.5-.38.5l-6-.16v10.36a2.51,2.51,0,0,0,.46,1.66,2,2,0,0,0,1.58.54,3.3,3.3,0,0,0,1.66-.46,5.26,5.26,0,0,0,1.34-1.14.32.32,0,0,1,.4-.16,1.06,1.06,0,0,1,.44.28,3.13,3.13,0,0,1,.3.5,1.27,1.27,0,0,1,.14.5v.16a.14.14,0,0,1-.08.12,8.77,8.77,0,0,1-2.56,2.06,8.08,8.08,0,0,1-4,1,6.58,6.58,0,0,1-5-1.74q-1.68-1.74-1.64-5.66l.08-7.52a.63.63,0,0,0-.12-.4.41.41,0,0,0-.36-.16h-2.48c-.11,0-.2-.12-.28-.36a2,2,0,0,1-.12-.52,1.64,1.64,0,0,1,.12-.5.84.84,0,0,1,.24-.42,41.5,41.5,0,0,0,4.5-2.82,29.55,29.55,0,0,0,3.82-3.22.68.68,0,0,1,.38-.22,1.52,1.52,0,0,1,.5-.1,1.77,1.77,0,0,1,.58.1c.2.06.3.14.3.22l-.16,5.24h5.92c.16,0,.28.17.38.52A3.6,3.6,0,0,1,350.63,252.42Z"/><path class="cls-1" d="M151.87,319s0,.2,0,.44a1.61,1.61,0,0,1-.16.48,2.49,2.49,0,0,1-.36.44c-.16.16-.28.21-.36.16a35.93,35.93,0,0,1-8.54-7.26,16,16,0,0,1-.14-19.72,35.71,35.71,0,0,1,8.68-7.46c.08-.06.21,0,.38.18a1.71,1.71,0,0,1,.34.42,3.62,3.62,0,0,1,.18.52c.07.24.06.38,0,.44a14.26,14.26,0,0,0-4.22,6.54,31,31,0,0,0-1.18,9.14,31.44,31.44,0,0,0,1.14,9.16A14.64,14.64,0,0,0,151.87,319Z"/><path class="cls-1" d="M179.59,307.38a10.16,10.16,0,0,1-2.78,6.8c-1.85,2.1-4.55,3.16-8.1,3.16a7.48,7.48,0,0,1-3.66-.68,5,5,0,0,0-2.66-.68,2.3,2.3,0,0,0-1.24.3,2,2,0,0,0-.76.94.69.69,0,0,1-.38.2,2.1,2.1,0,0,1-.46.08,1.9,1.9,0,0,1-.5-.1c-.2-.07-.3-.14-.3-.22,0-.35.06-.86.1-1.52s.06-1.51.06-2.52v-18a2.72,2.72,0,0,0-.6-2.08,3.77,3.77,0,0,0-2.08-.68c-.08,0-.15-.1-.22-.3a1.57,1.57,0,0,1-.1-.5,1.67,1.67,0,0,1,.1-.52c.07-.22.14-.32.22-.32a41.44,41.44,0,0,0,4.3-1.32,39.73,39.73,0,0,0,3.7-1.52,2.07,2.07,0,0,1,.4-.2,1.29,1.29,0,0,1,.48-.12,1.16,1.16,0,0,1,.72.16.45.45,0,0,1,.2.36c-.08,1-.15,2.18-.22,3.52s-.1,2.41-.1,3.24v5.6a5,5,0,0,1,2.06-1.6,7.3,7.3,0,0,1,3-.6,9.12,9.12,0,0,1,6.2,2.26Q179.58,302.73,179.59,307.38Zm-7.24.16a11.76,11.76,0,0,0-.8-5,2.89,2.89,0,0,0-2.84-1.58,2.73,2.73,0,0,0-2.22.92,3,3,0,0,0-.78,2v8.88a2.94,2.94,0,0,0,.6,1.9,2.34,2.34,0,0,0,1.92.74,3.24,3.24,0,0,0,3.26-2.46A16.32,16.32,0,0,0,172.35,307.54Z"/><path class="cls-1" d="M197.47,315.84a1.84,1.84,0,0,1-.1.56c-.07.21-.14.32-.22.32-.83,0-1.86-.05-3.1-.13s-2.33-.13-3.26-.13-1.91,0-3,.13-2,.13-2.84.13c-.08,0-.15-.11-.22-.32a1.84,1.84,0,0,1-.1-.56,1.67,1.67,0,0,1,.1-.52c.07-.22.14-.34.22-.36a3.36,3.36,0,0,0,2.1-.81,3.85,3.85,0,0,0,.62-2.57V295.06a2.71,2.71,0,0,0-.6-2.1,4,4,0,0,0-2.12-.66c-.08,0-.15-.14-.22-.34a1.57,1.57,0,0,1-.1-.5,1.52,1.52,0,0,1,.1-.5c.07-.2.14-.3.22-.3a35.17,35.17,0,0,0,4.22-1.3c1.53-.58,2.81-1.1,3.82-1.58a2.07,2.07,0,0,1,.4-.2,1.29,1.29,0,0,1,.48-.12,1.11,1.11,0,0,1,.7.18c.15.12.21.23.18.34-.05.93-.12,2.08-.2,3.44s-.12,2.46-.12,3.32v16.84a3.8,3.8,0,0,0,.64,2.57,3.1,3.1,0,0,0,2.08.81c.08,0,.15.11.22.34A1.83,1.83,0,0,1,197.47,315.84Z"/><path class="cls-1" d="M223.07,314.78a.54.54,0,0,0,0,.2s0,.1-.12.16a5.54,5.54,0,0,1-2.36,1.44,10,10,0,0,1-3.28.56,4.45,4.45,0,0,1-2.66-.74,3.46,3.46,0,0,1-1.34-2,5.58,5.58,0,0,1-2.34,2.06,8.28,8.28,0,0,1-3.5.66,6.89,6.89,0,0,1-3.86-1,3.54,3.54,0,0,1-1.58-3.16,4.36,4.36,0,0,1,2.6-3.84,33.51,33.51,0,0,1,8.72-2.84l.12-3.92a2.57,2.57,0,0,0-.36-1.64,1.54,1.54,0,0,0-1.2-.4,3.57,3.57,0,0,0-1.54.32,1.42,1.42,0,0,0-.78,1.32,6.07,6.07,0,0,1-1,3.44,3.12,3.12,0,0,1-2.48,1,2.9,2.9,0,0,1-2.26-.86,3,3,0,0,1-.78-2.06c0-1.34,1.09-2.56,3.26-3.68a15.7,15.7,0,0,1,7.3-1.68c2.45,0,4.13.61,5,1.84a7.81,7.81,0,0,1,1.22,5l-.2,7c-.05.93.08,1.54.4,1.82a1.44,1.44,0,0,0,.92.42,1.91,1.91,0,0,0,.68-.12,2,2,0,0,0,.56-.32q.16-.12.54.3A1.25,1.25,0,0,1,223.07,314.78Zm-9.84-7a7.6,7.6,0,0,0-3.4,1.52,3.58,3.58,0,0,0-1,2.76,2.31,2.31,0,0,0,.54,1.6,1.91,1.91,0,0,0,1.5.6,2.39,2.39,0,0,0,1.46-.5,2.71,2.71,0,0,0,.82-1.9Z"/><path class="cls-1" d="M246.47,303a3.23,3.23,0,0,1-.68,2,2.35,2.35,0,0,1-2,.9,2.45,2.45,0,0,1-2.14-.88,6.69,6.69,0,0,1-.94-2A12.86,12.86,0,0,0,240,301a1.57,1.57,0,0,0-1.56-.94,2.75,2.75,0,0,0-2.46,1.46q-.9,1.45-.9,5.82a11.68,11.68,0,0,0,.88,4.92c.59,1.25,1.83,1.88,3.72,1.88a8.46,8.46,0,0,0,3.12-.62,7.07,7.07,0,0,0,2.36-1.42c0-.06.11,0,.26.06a1.12,1.12,0,0,1,.34.3,2.24,2.24,0,0,1,.34.42.74.74,0,0,1,.14.38,1,1,0,0,1,0,.16.64.64,0,0,1-.06.16,8.59,8.59,0,0,1-3.24,2.6,11.24,11.24,0,0,1-12-1.52,8.71,8.71,0,0,1-3.08-7,8.53,8.53,0,0,1,3.06-6.94,12.12,12.12,0,0,1,13-1.16C245.62,300.52,246.47,301.64,246.47,303Z"/><path class="cls-1" d="M277,315.84a1.77,1.77,0,0,1-.1.58c-.07.2-.14.3-.22.3-.83,0-1.64-.05-2.44-.13a23.43,23.43,0,0,0-2.6-.13c-.93,0-2,0-3.24.13s-2.24.13-3,.13c-.08,0-.15-.11-.22-.32a1.84,1.84,0,0,1-.1-.56,1.67,1.67,0,0,1,.1-.52c.07-.22.14-.34.22-.36a2.33,2.33,0,0,0,.86-.25.52.52,0,0,0,.26-.48,2.36,2.36,0,0,0-.2-.81,4.43,4.43,0,0,0-.88-1.2L262.47,309a1.15,1.15,0,0,0-.46-.3,1.92,1.92,0,0,0-.7-.1v3a5.77,5.77,0,0,0,.4,2.53,1.49,1.49,0,0,0,1.2.85c.08,0,.15.11.22.34a1.56,1.56,0,0,1,0,1.1c-.07.21-.14.32-.22.32-.83,0-1.65-.05-2.46-.13a23.93,23.93,0,0,0-2.62-.13c-.91,0-1.93,0-3.08.13s-2.12.13-2.92.13c-.08,0-.15-.1-.22-.3a1.77,1.77,0,0,1-.1-.58,1.67,1.67,0,0,1,.1-.52c.07-.22.14-.34.22-.36a3.45,3.45,0,0,0,2.08-.77,3.89,3.89,0,0,0,.6-2.61V295.06a2.67,2.67,0,0,0-.62-2.08,3.82,3.82,0,0,0-2.06-.68c-.08,0-.15-.14-.22-.34a1.57,1.57,0,0,1-.1-.5,1.52,1.52,0,0,1,.1-.5c.07-.2.14-.3.22-.3a35.17,35.17,0,0,0,4.22-1.3c1.53-.58,2.81-1.1,3.82-1.58a2.07,2.07,0,0,1,.4-.2,1.29,1.29,0,0,1,.48-.12,1.11,1.11,0,0,1,.7.18c.15.12.21.23.18.34-.05.93-.12,2.08-.2,3.44s-.12,2.46-.12,3.32v12.08a2.16,2.16,0,0,0,.56-.08,1.61,1.61,0,0,0,.56-.32l3.64-3a7.65,7.65,0,0,0,1.12-1.13,1.42,1.42,0,0,0,.32-.77.69.69,0,0,0-.38-.62,4.38,4.38,0,0,0-1.54-.34c-.08,0-.15-.11-.22-.32a1.84,1.84,0,0,1-.1-.56,1.79,1.79,0,0,1,.1-.56c.07-.22.14-.32.22-.32a19.64,19.64,0,0,1,2.38.13,20.8,20.8,0,0,0,2.26.13,18.4,18.4,0,0,0,2-.13,18.42,18.42,0,0,1,2.28-.13c.08,0,.15.1.22.32a1.79,1.79,0,0,1,.1.56,2,2,0,0,1-.1.54c-.07.22-.14.34-.22.34a7.77,7.77,0,0,0-2.4.68,15.61,15.61,0,0,0-3.36,2.18L267,304.86l5.95,7.21a17,17,0,0,0,2,2,3.39,3.39,0,0,0,1.73.85c.08,0,.15.11.21.34A1.83,1.83,0,0,1,277,315.84Z"/><path class="cls-1" d="M280.87,287.58c-.08-.08-.08-.24,0-.46l.16-.46a1.06,1.06,0,0,1,.38-.46c.17-.12.29-.17.34-.14a35.86,35.86,0,0,1,8.54,7.24,16.07,16.07,0,0,1,0,19.92,35.77,35.77,0,0,1-8.54,7.28q-.12,0-.36-.18a2.13,2.13,0,0,1-.36-.42,2.69,2.69,0,0,1-.16-.5.68.68,0,0,1,0-.46,14.86,14.86,0,0,0,4.26-6.54,31.2,31.2,0,0,0,1.14-9.14,31.67,31.67,0,0,0-1.14-9.12A14.23,14.23,0,0,0,280.87,287.58Z"/></svg>