<svg id="Layer_1" data-name="Layer 1" xmlns="http://www.w3.org/2000/svg" xmlns:xlink="http://www.w3.org/1999/xlink" width="1980mm" height="1080mm" viewBox="0 0 5612.6 3061.42"><defs><style>.cls-1,.cls-13{fill:none;}.cls-2{fill:#c2a2cc;}.cls-3,.cls-4{fill:#f2c9e1;}.cls-4{stroke:#e25a9c;stroke-width:40px;}.cls-29,.cls-4{stroke-miterlimit:10;}.cls-5{fill:#eccaa5;}.cls-6{fill:#e1c19e;}.cls-7{clip-path:url(#clip-path);}.cls-8{clip-path:url(#clip-path-2);}.cls-9{fill:#f1e204;}.cls-10{fill:#e25a9c;}.cls-11{fill:#ddbe9b;}.cls-12{fill:#ef8095;}.cls-13{stroke:#ef8095;stroke-linecap:round;stroke-linejoin:round;stroke-width:1.68px;}.cls-14{fill:#6495bf;}.cls-15{fill:#d98faa;}.cls-16{fill:#5c88ae;}.cls-17{fill:#fff;}.cls-18{fill:#a980b8;}.cls-19{fill:#1d1d1b;}.cls-20{fill:#f2d5e6;}.cls-21{fill:#001400;}.cls-22{fill:#efe88c;}.cls-23{fill:#d96b94;}.cls-24{fill:#b3b3b3;}.cls-25{fill:#808081;}.cls-26{clip-path:url(#clip-path-4);}.cls-27{fill:#eb92a7;}.cls-28,.cls-29{fill:#c54191;}.cls-29{stroke:#c54191;}</style><clipPath id="clip-path"><rect class="cls-1" x="959.38" y="305.71" width="1675.76" height="1988.7"/></clipPath><clipPath id="clip-path-2"><rect class="cls-1" x="959.38" y="305.71" width="1675.76" height="1988.7"/></clipPath><clipPath id="clip-path-4"><rect class="cls-1" x="2402.21" y="732.02" width="216.96" height="199.32" transform="translate(1054.44 3039.53) rotate(-74.92)"/></clipPath></defs><rect class="cls-2" width="246.64" height="3061.42"/><rect class="cls-2" x="671.83" width="425.2" height="3061.42"/><rect class="cls-3" x="246.64" width="425.2" height="3061.42"/><rect class="cls-3" x="1097.03" width="425.2" height="3061.42"/><rect class="cls-2" x="4862.3" width="425.2" height="3061.42"/><rect class="cls-2" x="2341.87" width="425.2" height="3061.42"/><rect class="cls-2" x="4011.91" width="425.2" height="3061.42"/><rect class="cls-2" x="3181.48" width="425.2" height="3061.42"/><rect class="cls-2" x="1522.23" width="425.2" height="3061.42"/><rect class="cls-3" x="4437.11" width="425.2" height="3061.42"/><rect class="cls-3" x="2756.28" width="425.2" height="3061.42"/><rect class="cls-3" x="3586.71" width="425.2" height="3061.42"/><rect class="cls-3" x="1947.42" width="425.2" height="3061.42"/><rect class="cls-3" x="5287.5" width="325.1" height="3061.42"/><circle class="cls-4" cx="1455.77" cy="1555.85" r="992.13"/><path class="cls-5" d="M1497.32,2526.45l-41.55,1.59c-28.15,0-120.59,1.15-116.1-23.8l-60.27-362.73c0-32.87,85.88-40.85,114-40.85h119.8c28.15,0,116.1,0,129.56,47.13L1607.34,2498C1619.73,2528.05,1525.48,2526.45,1497.32,2526.45Z"/><line class="cls-5" x1="1457.56" y1="2283.24" x2="1461.09" y2="2528.03"/><polygon class="cls-6" points="1455.78 2528.04 1452.24 2283.25 1462.88 2283.23 1466.41 2528.03 1455.78 2528.04"/><g id="Artwork_25" data-name="Artwork 25"><g class="cls-7"><g class="cls-8"><path class="cls-9" d="M1314.23,374.35h317.31a115.63,115.63,0,0,1,113.54,93.74l230.83,1197.36a2.49,2.49,0,0,1-.27,1.67c-87.94,154.57-75.19,96.88-116.41,117.8-.8.4-49.84-60.37-49.84-59.48v38c0,48.12,27.69,154.43-52.48,124.68-91.23-33.85-573.52-39.4-630.45-7.46-31.52,17.7-62.9-22.59-57.78-101.1-3.88-47.44-46.66-35.08-47.62-34.74-104.25,37.13-46.82-113.65-37.83-159.82L1200.72,467.88a115.64,115.64,0,0,1,113.51-93.53"/><path class="cls-6" d="M1498.1,1283.16h-60.87a35.6,35.6,0,0,1-35.59-35.6l10.16-88.33c0-19.66,5.78-25.43,25.43-25.43h60.87c19.66,0,22.11,2.45,22.11,22.1l13.49,91.66a35.6,35.6,0,0,1-35.6,35.6"/><path class="cls-5" d="M1331.24,1116.73l-5.32-4.16c-2.32-1.82-4.75-3.5-7.22-5.12-49.65-32.65-73.48-82.44-98.14-137.2-18.33-40.71-14.81-82-18.15-115.63-1.06-10.7-2-22.52,0-33.07l28.4-241.78c13.1-95.63,41.75-245.11,138.27-245.11h222.07c96.6,0,121,147.58,132.74,244.84.3,2.48.49,5,.6,7.46l11.61,287.69c.09,2.2.28,4.4.51,6.59,4.85,46.41-7.95,76.59-25.29,121.87-4.23,11,7.44-14.54,0,0-.13.25-.67,1.4-1.49,3.2a302.11,302.11,0,0,1-55.65,82.28l-.25.27c-5.67,6.82-21.83,16.72-29.16,21.71-15.89,10.81-51.94,34.81-58.42,38.3C1477.05,1197,1434.48,1199,1357,1133.8c-3.13-2.64-10.5-7.07-16.11-10.43a95.13,95.13,0,0,1-9.67-6.64"/><path class="cls-9" d="M1685.66,336.21c58.56,41.12,69.93,172.29,46.79,219.32-36.75,74.64-198.78-135.61-185.32-35.82,9.34,69.26-112.11-172.19-67.21-197.25,42.18-23.54,150.41-25.12,205.74,13.75"/><path class="cls-9" d="M1316.25,320.65c-62,14-125.84,124-99.19,160.2s144.45,8.62,195.67-29.06S1497.5,338,1457.23,318c-37.83-18.78-79-11.37-141,2.65"/><path class="cls-5" d="M1648.33,2125.85H1301.81a56.2,56.2,0,0,1-56.19-56.2V1315.92a56.2,56.2,0,0,1,56.19-56.2h346.52a56.2,56.2,0,0,1,56.19,56.2v753.73a56.2,56.2,0,0,1-56.19,56.2"/><path class="cls-10" d="M1694.6,1769.25H1249.38a9.23,9.23,0,0,1-9.19-10.11c1.82-18.6,5.43-58.46,5.43-81.68V1315.92a56.2,56.2,0,0,1,56.19-56.2h346.52a56.2,56.2,0,0,1,56.19,56.2v443.41a9.92,9.92,0,0,1-9.92,9.92"/><path class="cls-11" d="M1481.83,1843.31c0,10.49-4.25,19-9.49,19s-9.5-8.5-9.5-19,4.25-19,9.5-19,9.49,8.51,9.49,19"/><path class="cls-12" d="M1321.87,1955.32,1243.35,1866a5.18,5.18,0,0,1,7.78-6.84l78.53,89.35a5.18,5.18,0,1,1-7.79,6.84"/><path class="cls-13" d="M1321.87,1955.32,1243.35,1866a5.18,5.18,0,0,1,7.78-6.84l78.53,89.35a5.18,5.18,0,1,1-7.79,6.84Z"/><path class="cls-12" d="M1628.25,1959.9l78.53-89.36a5.18,5.18,0,0,0-7.79-6.84l-78.52,89.36a5.18,5.18,0,0,0,7.78,6.84"/><path class="cls-13" d="M1628.25,1959.9l78.53-89.36a5.18,5.18,0,0,0-7.79-6.84l-78.52,89.36a5.18,5.18,0,0,0,7.78,6.84Z"/><polygon class="cls-14" points="1730.06 2294.41 1217.8 2294.41 1245.62 1953.82 1704.52 1953.82 1730.06 2294.41"/><path class="cls-5" d="M1213.14,1708.23c0,189.54,24.95,343.19-24.82,343.19s-90.12-153.65-90.12-343.19,45.71-365.66,90.12-343.19c99.76,50.47,24.82,153.65,24.82,343.19"/><path class="cls-10" d="M1136.29,1426.48c-39.43-28.68-7.22-47.34,23.86-90.06s119.75-97.41,159.17-68.72-31.14,165.1-62.21,207.82-81.4-20.36-120.82-49"/><path class="cls-5" d="M2039.85,1368.56c187-31.09,334.45-80.91,342.61-31.81s-136.78,114.1-323.76,145.2-368.2,14.9-353.32-32.6c33.42-106.68,147.5-49.69,334.47-80.79"/><path class="cls-10" d="M1806.71,1403.35c34.93-34,.38-47.88-36.48-85.72s-132.43-79.31-167.36-45.29,54.4,159,91.26,196.81,77.65-31.77,112.58-65.8"/><rect class="cls-15" x="2210.46" y="1284.85" width="73.75" height="162.87" transform="translate(-334.42 864.47) rotate(-20.3)"/><path class="cls-6" d="M1533.7,1255.84H1401.64c0,15.09,29.56,27.32,66,27.32s66-12.23,66-27.32"/><polygon class="cls-16" points="1712.68 2062.6 1569.3 1954.32 1702.2 1953.82 1712.68 2062.6"/><polygon class="cls-16" points="1236.62 2065.58 1377.29 1953.82 1244.41 1956.57 1236.62 2065.58"/><path class="cls-15" d="M1152,2260.94c-52.93-12.53-120.85-76.1-94.37-187.67,23.66-99.7,51.42-135.44,105.79-136.79,112.27-2.8,96.39,134,94.13,236.46s-46.79,101.92-105.55,88"/><rect class="cls-15" x="1081.62" y="1926.83" width="162.87" height="73.75" transform="translate(-40.52 24.57) rotate(-1.19)"/><path class="cls-16" d="M1452.5,1990.24a19.84,19.84,0,1,1,19.84,19.84,19.84,19.84,0,0,1-19.84-19.84"/><path class="cls-17" d="M1233.2,792.76a106.6,106.6,0,0,1,25.6-148.54c48.09-34,142.88-41.57,176.83,6.52s-5.8,133.67-53.89,167.62a106.58,106.58,0,0,1-148.54-25.6"/><path class="cls-17" d="M1729.61,765.84a106.58,106.58,0,0,1-133,70.82c-56.3-17.19-120.42-87.41-103.23-143.71s109.17-77.36,165.47-60.17a106.59,106.59,0,0,1,70.81,133.06"/><path class="cls-18" d="M1493.33,693s46,29,119.06,16.53c75.52-12.88,122.11,7.58,122.11,7.58,1.89-65-63.28-100.35-121.64-100.35-60.23,0-128.19,5.5-119.53,76.24"/><path class="cls-18" d="M1225.57,682.36S1277.91,668,1335,668s110.75,5.15,110.75,5.15c2.52-35.18-64-65.22-110.71-56.43-45.61,8.58-94.93,21.25-109.51,65.65"/><path class="cls-19" d="M1493.33,693s46,29,119.06,16.53c75.52-12.88,122.11,7.58,122.11,7.58-30.08-44.95-106-14-164.33-14-60.23,0-84.78-45.92-76.84-10.07"/><path class="cls-19" d="M1225.57,682.36S1277.91,668,1335,668s110.75,5.15,110.75,5.15c.07-17.85-63.53-14.59-114.79-13-46.4,1.39-98.69-.06-105.43,22.27"/></g><path class="cls-20" d="M1291,1384.48h64.21v16.88h-21.54v51.47h-21.13v-51.47H1291Z"/><path class="cls-20" d="M1364.9,1384.48H1386v23.92h23.08v-23.92h21.21v68.35H1409.1v-27.65H1386v27.65H1364.9Z"/><path class="cls-20" d="M1486.37,1441.55h-24l-3.33,11.28h-21.57l25.69-68.35h23l25.69,68.35h-22.12Zm-4.38-14.78-7.55-24.57-7.46,24.57Z"/><path class="cls-20" d="M1507.32,1384.48h64.21v16.88H1550v51.47h-21.12v-51.47h-21.55Z"/><path class="cls-20" d="M1577.4,1430.22l20.1-1.26a15.36,15.36,0,0,0,2.65,7.46q3.27,4.15,9.33,4.15c3,0,5.34-.71,7-2.12a6.38,6.38,0,0,0,2.45-4.92,6.3,6.3,0,0,0-2.33-4.76q-2.34-2.1-10.82-4-13.89-3.12-19.82-8.3a16.68,16.68,0,0,1-6-13.19,17.9,17.9,0,0,1,3-10,20.33,20.33,0,0,1,9.19-7.37q6.12-2.67,16.8-2.68,13.11,0,20,4.88t8.19,15.5l-19.91,1.16q-.8-4.61-3.34-6.71a10.68,10.68,0,0,0-7-2.1,8.47,8.47,0,0,0-5.55,1.56,4.79,4.79,0,0,0-1.87,3.8,3.8,3.8,0,0,0,1.54,2.94c1,.9,3.36,1.74,7.09,2.52q13.84,3,19.84,6a20.88,20.88,0,0,1,8.72,7.57,19.3,19.3,0,0,1,2.72,10.12,21.68,21.68,0,0,1-3.63,12.12,22.8,22.8,0,0,1-10.17,8.42q-6.52,2.86-16.46,2.87-17.43,0-24.15-6.72A26.48,26.48,0,0,1,1577.4,1430.22Z"/><path class="cls-20" d="M1360.2,1499.07h21.12V1523h23.08v-23.91h21.22v68.35H1404.4v-27.65h-23.08v27.65H1360.2Z"/><path class="cls-20" d="M1437,1533.29q0-16.74,9.33-26.07t26-9.32q17.07,0,26.3,9.16t9.23,25.67q0,12-4,19.65a28.84,28.84,0,0,1-11.66,11.94q-7.62,4.26-19,4.26-11.57,0-19.14-3.68a28.84,28.84,0,0,1-12.29-11.66Q1437,1545.28,1437,1533.29Zm21.13.09q0,10.35,3.84,14.87a13,13,0,0,0,10.47,4.53q6.81,0,10.54-4.43t3.73-15.9q0-9.66-3.9-14.11a13.32,13.32,0,0,0-10.56-4.45,12.83,12.83,0,0,0-10.25,4.52Q1458.12,1522.94,1458.12,1533.38Z"/><path class="cls-20" d="M1512,1499.07h64.2v16.87h-21.54v51.48h-21.12v-51.48H1512Z"/><path class="cls-20" d="M1584.55,1499.07h20.29v15.57l-3.92,31.28h-12.54l-3.83-31.28Zm.7,51.61h18.93v16.74h-18.93Z"/><g class="cls-8"><path class="cls-19" d="M1745,673.79l-17.12,36.31-14.42-10.54,29.4-27.34a1.35,1.35,0,0,1,2.14,1.57"/><path class="cls-19" d="M1718.63,672.58,1714,701.72l-13.63-5.17,15.82-24.91a1.35,1.35,0,0,1,2.48.94"/><path class="cls-19" d="M1696.92,667.55l4.22,29.21-14.55-.87,7.68-28.5a1.36,1.36,0,0,1,2.65.16"/><path class="cls-19" d="M1682,673.33l4.23,29.21-14.55-.87,7.68-28.5a1.35,1.35,0,0,1,2.64.16"/><path class="cls-19" d="M1214.32,643.86,1231.75,680l14.33-10.67-29.63-27.07a1.35,1.35,0,0,0-2.13,1.58"/><path class="cls-19" d="M1240.68,642.42l4.92,29.1,13.58-5.29-16-24.77a1.35,1.35,0,0,0-2.47,1"/><path class="cls-19" d="M1262.34,637.2l-4,29.25,14.54-1L1265,637a1.36,1.36,0,0,0-2.65.18"/><path class="cls-19" d="M1277.34,642.85l-4,29.25,14.54-1L1280,642.67a1.35,1.35,0,0,0-2.64.18"/><path class="cls-21" d="M1363.32,717.06a16.33,16.33,0,1,1,16.33,16.33,16.33,16.33,0,0,1-16.33-16.33"/><path class="cls-21" d="M1533.7,743.63A16.33,16.33,0,1,1,1550,760a16.33,16.33,0,0,1-16.32-16.32"/><path class="cls-22" d="M1690.25,609.55c0,4.75-38.7-28.61-82.39-28.61s-86.66,11.37-86.66,6.61c0-21.83,43-21.83,86.66-21.83s82.39,39.07,82.39,43.83"/><path class="cls-6" d="M1486.37,574.15c3.38,19.72,6.74,39.64,5.87,59.73-.86,19.62-7.12,38.19-12.08,57a312.65,312.65,0,0,0,4.69,174.9c1.65,5.11,9.74,2.93,8.08-2.22a305.12,305.12,0,0,1-14.14-111.43,298.24,298.24,0,0,1,8.46-55.19c4.78-19,11.3-37.68,13-57.36,2-22.69-2-45.39-5.79-67.68-.38-2.23-3.13-3.48-5.15-2.92-2.36.64-3.31,2.91-2.93,5.15"/><path class="cls-6" d="M1508.13,854.12q1.41,8.76,2.83,17.53l1.35,8.37a22.5,22.5,0,0,1,.53,3.64c0,.19-.1.82-.07.74.11-.48-.14,0-.15,0a26.42,26.42,0,0,1-3.67.51,31.14,31.14,0,0,0-6.25.35c-4.36.89-8.68,4.17-8.34,9a4.29,4.29,0,0,0,4.19,4.19,4.23,4.23,0,0,0,4.19-4.19c-.06-.77-.12-.38-.18,0s.3-.19,0-.08a9,9,0,0,1,1.8-.74,24,24,0,0,1,5.06-.17c4.61-.12,9.62-1.57,11.27-6.38.93-2.72.22-5.59-.22-8.33l-1.42-8.77-2.89-17.93c-.37-2.23-3.15-3.47-5.16-2.92-2.37.65-3.28,2.91-2.92,5.15"/><path class="cls-6" d="M1473.53,897.81h-18.9a4.19,4.19,0,0,0,0,8.38h18.9a4.19,4.19,0,0,0,0-8.38"/><path class="cls-6" d="M1445.58,896.33c-.06-3.69-.11-7.37-.17-11.06a4.17,4.17,0,0,0-2.07-3.61c-3.95-2-7.21-.6-11,.73-2.45.85-4.18.43-6-1.82-4.46-5.46-.34-13.26,2.48-18.79,2.45-4.79-4.77-9-7.23-4.22-4.13,8.07-8.43,18.05-2.93,26.6a14.64,14.64,0,0,0,10.13,6.94,13.1,13.1,0,0,0,6.34-.83c.9-.33,1.78-.73,2.7-1l1-.31c.16-.07.69.12.37,0l-2.08-3.62c.06,3.69.12,7.37.17,11.06.08,5.38,8.46,5.4,8.38,0"/><path class="cls-20" d="M1375.27,1012s49.1-10.33,84.77-8.73c38.32,1.71,92.86,14.75,92.86,14.75s-59.67,44.46-97.37,41.4c-33.69-2.73-80.26-47.42-80.26-47.42"/><path class="cls-20" d="M1381.93,1018.43l75.29,15.41a4.29,4.29,0,0,0,5.16-2.92,4.22,4.22,0,0,0-2.93-5.15l-75.3-15.42a4.29,4.29,0,0,0-5.15,2.93,4.23,4.23,0,0,0,2.93,5.15"/><path class="cls-20" d="M1381.81,1018.15c21.2,3.23,40.33,15.37,62.16,15.15,5.39,0,5.4-8.43,0-8.37-20.94.21-39.54-11.75-59.94-14.85-2.23-.34-4.5.56-5.15,2.92-.54,2,.68,4.81,2.93,5.15"/><path class="cls-20" d="M1407,1006.67s28.41-9.37,37.93-9.54c10.23-.17,21.86,8.92,21.86,8.92s-12.08,8.58-22.17,8.33c-9-.21-37.62-7.71-37.62-7.71"/><path class="cls-20" d="M1460.9,1002.92s12.16-7,21.6-5.73c10.14,1.37,34.64,13.42,34.64,13.42s-27.61,5.34-37.54,3.58c-8.88-1.57-18.7-11.27-18.7-11.27"/><path class="cls-3" d="M1386.75,1018.2c41.64,1.67,83.28,3.61,124.94,5a253,253,0,0,0,34.83-.83c2.13-.22,6.89-2.9,6.37-4.34-.63-1.76-6.34-1.76-8.48-1.54a227.15,227.15,0,0,1-29.64.71c-10.32-.29-20.68-2.29-30.93-1.2-20.12,2.16-40.42,3.45-62.22-2.5-11.23-3-32.25-1.55-43.87-2-5.11-.21,3.9,6.52,9,6.72"/><path class="cls-17" d="M1515.18,1031.34c-19.44,17.45-37,16.81-41.67,11.65"/><path class="cls-5" d="M1182.14,804.78c-14.76.28-29.75-31.73-30.31-59.29-.6-29.61,15.26-63.55,30.31-63.28s29.14,35,28.32,64.17c-.74,26.08-13.66,58.13-28.32,58.4"/><path class="cls-5" d="M1763.6,848.39c-14.77.27-29.76-31.74-30.31-59.3-.6-29.61,15.25-63.55,30.31-63.27s29.14,35,28.31,64.16c-.75,26.08-13.66,58.13-28.31,58.41"/><path class="cls-22" d="M1237.91,609.55c0,4.75,38.7-28.61,82.38-28.61s86.67,11.37,86.67,6.61c0-21.83-43-21.83-86.67-21.83s-82.38,39.07-82.38,43.83"/><path class="cls-9" d="M1267.87,525.72c0,37.57,33.79,147.19-23.1,79.78-13.17-15.6-21.5-42.21-21.5-79.78s20-68,44.6-68,0,30.46,0,68"/><path class="cls-23" d="M1773.83,837.34c0,9.54-5,17.28-11.16,17.28s-11.16-7.74-11.16-17.28,5-17.28,11.16-17.28,11.16,7.73,11.16,17.28"/><path class="cls-23" d="M1191.5,804.27c0,9.54-5,17.28-11.16,17.28s-11.16-7.74-11.16-17.28,5-17.28,11.16-17.28,11.16,7.73,11.16,17.28"/><path class="cls-24" d="M2345.78,1483.3h0a26.61,26.61,0,0,1-18.77-32.62l86.36-320.52a26.62,26.62,0,1,1,51.4,13.86l-86.36,320.51a26.61,26.61,0,0,1-32.63,18.77"/><path class="cls-6" d="M1552.93,990.55c21.7,9.39,24.52,31.75,20.15,41.86"/><path class="cls-15" d="M2531.81,1279.4c5.48,54.11-32.36,139.1-146.44,150.61-102,10.29-144.81-4.25-163.89-55.18-39.4-105.17,95.07-134.95,192.61-166.35s111.63,10.84,117.72,70.92"/><path class="cls-15" d="M2401.1,1222c10.11-33.76,2.19-66-17.68-71.91s-44.17,16.6-54.28,50.36-2.2,66,17.67,71.91,44.18-16.6,54.29-50.36"/><path class="cls-25" d="M2442.54,1108.15a286,286,0,0,1-18.54-75.93,291.38,291.38,0,0,1,2.48-78.14,287.82,287.82,0,0,1,10.87-43.2c1.72-5.12-6.37-7.32-8.08-2.23a294.76,294.76,0,0,0-14.79,78.65,299.47,299.47,0,0,0,6.72,79.77,287.06,287.06,0,0,0,13.26,43.3c.83,2.11,2.81,3.57,5.16,2.93,2-.55,3.75-3,2.92-5.15"/><path class="cls-25" d="M2457.94,1116.59c20.55-17.83,41.15-35.86,58.51-56.91,17.13-20.76,31.06-44.55,37.29-70.94a120.2,120.2,0,0,0,2.2-44.91c-.32-2.24-3.17-3.47-5.15-2.92-2.41.66-3.25,2.9-2.92,5.15,3.61,25.16-3,50.93-14.43,73.29-11.94,23.28-29.25,43.14-48,61.2-10.81,10.41-22.12,20.29-33.46,30.12a4.22,4.22,0,0,0,0,5.92,4.27,4.27,0,0,0,5.93,0"/><path class="cls-25" d="M2450.76,1112.07c-3.76-48.5-7.62-98.13,1.93-146.23a237.43,237.43,0,0,1,11.24-39.14c.81-2.11-.9-4.6-2.93-5.15-2.36-.65-4.33.8-5.15,2.92-17.82,46.26-19,96.73-16.36,145.63.75,14,1.81,28,2.89,42a4.29,4.29,0,0,0,4.19,4.19c2.13,0,4.36-1.92,4.19-4.19"/><path class="cls-25" d="M2452.66,1115.32a238.78,238.78,0,0,0,38.72-62.51,245.12,245.12,0,0,0,18.25-72.07,229.78,229.78,0,0,0,.24-41.47,4.29,4.29,0,0,0-4.18-4.19c-2.12,0-4.38,1.92-4.19,4.19a230.71,230.71,0,0,1-5.11,71.16,235.68,235.68,0,0,1-26.39,66.35,224.54,224.54,0,0,1-23.26,32.61,4.31,4.31,0,0,0,0,5.93c1.51,1.5,4.44,1.72,5.92,0"/><path class="cls-25" d="M2448.57,1110.09q12.53-69.06,28.77-137.36,4.59-19.29,9.47-38.49c1.33-5.23-6.75-7.45-8.08-2.23q-17.28,68-30.87,136.91-3.83,19.45-7.37,38.94a4.32,4.32,0,0,0,2.93,5.16c2,.55,4.75-.69,5.15-2.93"/></g><g class="cls-26"><path class="cls-12" d="M2589.28,923.06c-7.42,27.53-53.67,27.68-106.81,13.36S2391,892.9,2396.82,871.2c9.15-33.94,52.18-20.65,106.82-13.36,54.79,7.31,91.49,43.52,85.64,65.22"/><path class="cls-12" d="M2590.22,874.27c-11.59,20.13-49,30.63-95.86,18s-72.86-42-73.83-63.74c-1-23,49-30.64,95.86-18s85.38,43.68,73.83,63.74"/><path class="cls-12" d="M2585.3,829.1c2.75,23.23-41.32,32.73-78.7,22.66s-67-38.15-56.66-59.14c10.55-21.41,41.32-32.73,78.7-22.66s54.2,38.37,56.66,59.14"/><path class="cls-12" d="M2563.46,777.37c-3,11.12-20.79,16-39.74,10.87s-38.92-23.69-28.91-29.37c42.06-23.86,5.49-61.33,40-16.53,12,15.56,31.7,23.92,28.7,35"/><path class="cls-27" d="M2556.76,775c-.33,3.92-7.07,4.27-13.74,3.72s-84.46-19.61-17-8.69c16.29,2.64-28-74.06,17.86-7.4,3.8,5.52,13.16,8.46,12.84,12.37"/><path class="cls-27" d="M2579.89,931c-8.58,5.53-46.66,11.08-94.82-1.9S2411.8,892,2405.49,884c-19.12-24.29,39.49,8.65,87.65,21.63s112.67,8.65,86.75,25.36"/><path class="cls-27" d="M2584.52,882.52c-9,8.44-50.14,15.4-96.62,3.66s-59.58-35.49-64.84-45.92c-13.81-27.35,34.12,8.13,81.49,15.37,46.58,7.13,102.76,5.61,80,26.89"/><path class="cls-27" d="M2579.47,843.67c-7.47,9.84-26.74.55-73.22-11.19s-55.76-12.22-57.46-23.77c-5.45-37.06,20.88-.19,68.25,7,46.59,7.12,84.47-1.11,62.43,27.91"/><path class="cls-3" d="M2552,774.46c-.05,1.63-2.83,1.92-5.61,1.83s-35.35-6.33-7.19-3.24c6.79.75-13.13-30,7.23-3.44,1.68,2.21,5.62,3.23,5.57,4.85"/><path class="cls-20" d="M2487.18,882.37c2.48,1.84-27-8.62-38.76-16.53s-13.12-23.73-14.08-26.41c-2.49-7,7.35,10.54,19.33,18,17.15,10.65,25.39,18.94,33.51,25"/><path class="cls-20" d="M2579.3,925.86c-2.22,1.23-9.88,8.92-23.42,7.56a183.56,183.56,0,0,1-28.08-4.86c-9.18-2.75,13.34-3.64,26.88-2.28s32.78-4.92,24.62-.42"/><path class="cls-3" d="M2580.52,828.4c2.17,1.93,0,7.92-4.87,13.38s-15,2.5-17.15.58,6.5-.28,11.35-5.74,8.5-10.14,10.67-8.22"/></g><g class="cls-8"><path class="cls-15" d="M1231.54,2148c17.38,26.46,44,39.64,59.54,29.46s14-39.89-3.39-66.34-44-39.64-59.54-29.45-14,39.88,3.39,66.33"/></g></g></g><path class="cls-28" d="M3497.06,724.54q-1.93,14.82-4.67,36.88t-4,33.34q-14.49,0-35.91,6.92a148.25,148.25,0,0,1-45.9,6.93q-32.87,0-58.14-9.83t-42-25.92a103.51,103.51,0,0,1-25-36.89,116.69,116.69,0,0,1-8.22-43.32q0-46.71,36.89-82.46t99-35.75q27.38,0,45.1,4.83a124.42,124.42,0,0,0,32.53,4.83q.64,15.46,1.93,34.79t2.58,35.43c0,.64-1,1.24-2.9,1.77a19.4,19.4,0,0,1-5.15.81,12.83,12.83,0,0,1-3.71-.65,4.22,4.22,0,0,1-2.74-1.93q-4.19-23.51-24-44t-44.94-20.45q-38,0-53.14,29.15t-15.14,73.6q0,43.49,15,72t52,28.51q29.63,0,48.31-20.62a135.93,135.93,0,0,0,28-48c.21-.86,1.12-1.5,2.73-1.93a16.2,16.2,0,0,1,4-.65,18.08,18.08,0,0,1,4.51.81C3496.09,723.31,3497.06,723.89,3497.06,724.54Z"/><path class="cls-28" d="M3813.69,692.65q0,48.32-33,82.14t-93.25,33.82q-60.24,0-93.41-34t-33.18-82q0-48,33.18-83.1t93.41-35.11q58.95,0,92.61,34.62T3813.69,692.65Zm-66.36,0q0-44.45-12.88-73.6t-47-29.15q-34.47,0-47.19,29.47t-12.72,73.28q0,44.77,12.72,72.64t47.19,27.86q34.14,0,47-28T3747.33,692.65Z"/><path class="cls-28" d="M4126.13,692.65q0,48.32-33,82.14t-93.25,33.82q-60.22,0-93.41-34t-33.17-82q0-48,33.17-83.1t93.41-35.11q58.95,0,92.61,34.62T4126.13,692.65Zm-66.36,0q0-44.45-12.88-73.6t-47-29.15q-34.46,0-47.19,29.47T3940,692.65q0,44.77,12.72,72.64t47.19,27.86q34.14,0,47-28T4059.77,692.65Z"/><path class="cls-28" d="M4458.22,796.37a14.67,14.67,0,0,1-.81,4.67c-.54,1.61-1.12,2.42-1.77,2.42q-15.78,0-26.57-.81t-25.61-.81q-14.82,0-32.85.81t-33.83.81c-.64,0-1.23-.87-1.77-2.58a15.29,15.29,0,0,1-.8-4.51,18.09,18.09,0,0,1,.64-4.19c.43-1.71,1-2.68,1.61-2.9q8.05-1,11.92-3.38a7.71,7.71,0,0,0,3.87-6.93,12.79,12.79,0,0,0-1.13-4.67,39.6,39.6,0,0,0-4-6.92L4305.54,710a21.78,21.78,0,0,0-8.05-7.4q-4.52-2.26-13.85-2.26v61.85q0,12.88,4.83,19t23.51,8c.65,0,1.24.92,1.77,2.74a16.39,16.39,0,0,1,.81,4.35,15.34,15.34,0,0,1-.81,4.51c-.53,1.71-1.12,2.58-1.77,2.58q-15.78,0-30.6-.81t-29.63-.81q-14.82,0-30.76.81t-31.73.81c-.64,0-1.24-.81-1.77-2.42a12.49,12.49,0,0,1,0-8.86c.53-1.71,1.13-2.68,1.77-2.9q18.67-2.25,24.64-8t6-19V620.82q0-13.2-4-18.68t-29.15-8.38c-.64-.21-1.23-1.18-1.77-2.89a12.63,12.63,0,0,1,0-8.86c.54-1.61,1.13-2.42,1.77-2.42q15.78,0,33,.81t32.05.8q14.82,0,32.21-.8t33.18-.81q1,0,1.77,2.58a15.63,15.63,0,0,1,.8,4.51,16.72,16.72,0,0,1-.8,4.35q-.81,2.73-1.77,2.73-22.23,2.26-27.87,7.9t-5.63,19.16v61.85a27.33,27.33,0,0,0,10.14-1.62q4-1.6,9.18-6.76l61.53-58.62a36.3,36.3,0,0,0,4.5-5.32,9.87,9.87,0,0,0,1.62-5.63c0-2.79-1.51-5.1-4.51-6.93s-8.27-3.17-15.79-4c-.64-.21-1.23-1.18-1.77-2.89a14.68,14.68,0,0,1-.8-4.19,15.29,15.29,0,0,1,.8-4.51q.81-2.58,1.77-2.58,11.59,0,27.7.81t28.67.8q10.31,0,19.49-.8t15.94-.81c.65,0,1.24.81,1.77,2.42a14.67,14.67,0,0,1,.81,4.67,13,13,0,0,1-1,4.51c-.64,1.72-1.28,2.57-1.93,2.57a85.88,85.88,0,0,0-32,9.51,108.23,108.23,0,0,0-24,17.23l-38.95,38.67L4426,768.35q6.4,10.3,13.66,15.13a35.68,35.68,0,0,0,16.27,5.8c.58,0,1.12.92,1.6,2.74A18.35,18.35,0,0,1,4458.22,796.37Z"/><path class="cls-28" d="M4634.41,796.37a14.67,14.67,0,0,1-.81,4.67c-.54,1.61-1.13,2.42-1.77,2.42q-15.78,0-31.73-.81t-30.76-.81q-14.82,0-30.92.81t-31.89.81c-.64,0-1.23-.87-1.77-2.58a15.34,15.34,0,0,1-.81-4.51,14.75,14.75,0,0,1,.81-4.19c.54-1.71,1.13-2.68,1.77-2.9q19-2.25,25-8t6-19V620.82q0-13.2-6-19t-25-8.06c-.64-.21-1.23-1.18-1.77-2.89a14.75,14.75,0,0,1-.81-4.19,15.34,15.34,0,0,1,.81-4.51q.81-2.58,1.77-2.58,15.78,0,31.89.81t30.92.8q14.82,0,30.76-.8t31.73-.81c.64,0,1.23.81,1.77,2.42a14.67,14.67,0,0,1,.81,4.67,16.39,16.39,0,0,1-.81,4.35q-.81,2.73-1.77,2.73-18.36,1.93-24.48,8.06t-6.12,19V762.23q0,12.88,6.12,19t24.48,8c.64,0,1.23.92,1.77,2.74A16.39,16.39,0,0,1,4634.41,796.37Z"/><path class="cls-28" d="M4965.21,586.68a16.39,16.39,0,0,1-.81,4.35q-.81,2.73-1.77,2.73-18,1.93-25.29,7.9t-7.56,19.16l-3.55,183.92c0,.65-.7,1.34-2.09,2.1s-3.71,1.12-6.93,1.12a33.92,33.92,0,0,1-6.12-.48,6.18,6.18,0,0,1-3.86-2.09L4750.68,647.15l-1.93,115.06q-.65,12.57,6.77,18.86t26.09,8.21c.64,0,1.23.81,1.77,2.42a14.93,14.93,0,0,1,.8,4.67,15.63,15.63,0,0,1-.8,4.51c-.54,1.71-1.13,2.58-1.77,2.58q-12.24,0-22.55-.81t-21.58-.81q-11.59,0-21.42.81t-20.78.81c-.64,0-1.23-.87-1.77-2.58a15.29,15.29,0,0,1-.8-4.51,11.43,11.43,0,0,1,1-4.51c.65-1.5,1.29-2.36,1.93-2.58q18.36-1.93,25.45-8t7.09-19l5.15-131.1q.28-17.4-7.11-26.25t-28-11.12c-.64-.21-1.18-1.18-1.61-2.89a18.09,18.09,0,0,1-.64-4.19,14.65,14.65,0,0,1,.8-4.67c.54-1.61,1.13-2.42,1.77-2.42q7.74,0,18.36.81t17.29.8a124.38,124.38,0,0,0,14.56-.8,156.35,156.35,0,0,1,17.7-.81l144,145.59V620.82q0-13.2-7.73-19t-26.41-8.06c-.65-.21-1.24-1.07-1.78-2.57a13.5,13.5,0,0,1-.8-4.51,15.63,15.63,0,0,1,.8-4.51c.54-1.72,1.13-2.58,1.78-2.58q12.55,0,21.42.81t20.13.8q11.6,0,22.87-.8t21.9-.81c.64,0,1.23.81,1.77,2.42A14.67,14.67,0,0,1,4965.21,586.68Z"/><path class="cls-28" d="M5261.86,704.41a16.3,16.3,0,0,1-.8,4.35q-.81,2.73-1.77,2.73-15.47,1.62-21.26,8.39t-5.8,18.72v32.58a58.41,58.41,0,0,0,.81,11.62,40,40,0,0,0,2.73,7.74A399.39,399.39,0,0,1,5191.32,803a236.92,236.92,0,0,1-52.18,5.65q-31.24,0-55.72-9.66t-40.59-26.09A104.35,104.35,0,0,1,5019,736.14a120.13,120.13,0,0,1-8.06-43.49,113.45,113.45,0,0,1,8.86-44.93q8.86-20.78,26.9-37.85,17.72-16.43,44.61-25.93t59.75-9.5a149.46,149.46,0,0,1,39,5.47q20.3,5.49,35.11,5.48,0,13.2.65,34t1,35c0,.64-.92,1.24-2.74,1.77a17.78,17.78,0,0,1-5,.81,11.69,11.69,0,0,1-4-.65,4.07,4.07,0,0,1-2.42-1.93A99.28,99.28,0,0,0,5186,608.9a63.46,63.46,0,0,0-45.9-18.68q-29,0-45.9,28.67t-16.91,73.76q0,43.49,16.43,72t45.41,28.51q19.65,0,26.58-5.17t6.92-15.49v-38.4q0-11-5.8-15.49t-25.77-6.78q-1,0-1.77-2.58a16.14,16.14,0,0,1-.8-4.83,14.65,14.65,0,0,1,.8-4.67c.54-1.61,1.13-2.42,1.77-2.42q15.8,0,27.71,1t26.41,1q14.82,0,31.57-1t32.53-1q1,0,1.77,2.58A15.29,15.29,0,0,1,5261.86,704.41Z"/><path class="cls-28" d="M4118.78,916.51a9.39,9.39,0,0,1-.48,2.41c-.33,1.08-.76,1.61-1.29,1.61q-4.68.33-8.78,4.91a63.83,63.83,0,0,0-8.46,13l-44.93,88.26a5.48,5.48,0,0,1-1.77.8,9.7,9.7,0,0,1-3.06.48,9.14,9.14,0,0,1-3.3-.48,5.19,5.19,0,0,1-1.53-.8l-19-40.73L3998,1026.67a5.78,5.78,0,0,1-1.29.8,8.9,8.9,0,0,1-3.54.48,9.61,9.61,0,0,1-3.06-.48,5.48,5.48,0,0,1-1.77-.8l-42.52-90q-4.18-8.7-6.61-11.84t-11.75-4.27c-.32-.11-.7-.59-1.13-1.45a5,5,0,0,1-.64-2.09,9.2,9.2,0,0,1,.32-2.26c.21-.85.48-1.28.8-1.28q8.07,0,14.43.4t13.79.4q7.41,0,12-.4t12.49-.4c.33,0,.65.4,1,1.2A6.36,6.36,0,0,1,3981,917a18.82,18.82,0,0,1-.16,2.17c-.11.92-.32,1.37-.64,1.37a12,12,0,0,0-5.88,1.37,3.73,3.73,0,0,0-1.86,3.29,11.67,11.67,0,0,0,1.05,4.18,47.62,47.62,0,0,0,2.18,4.66l30.26,64.08,15.74-21.63-18.52-39.84q-5-10.47-8.29-13.13a12.74,12.74,0,0,0-6.85-3c-.32-.11-.69-.59-1.12-1.45a5,5,0,0,1-.65-2.09,8,8,0,0,1,.4-2.26c.27-.85.57-1.28.89-1.28q7.89,0,12.72.4t12.25.4q7.25,0,12.57-.4t13.21-.4c.32,0,.61.43.88,1.28a7.7,7.7,0,0,1,.41,2.26,19.24,19.24,0,0,1-.17,2.17c-.1.92-.32,1.37-.64,1.37-2.9,0-5,.57-6.28,1.69a5.27,5.27,0,0,0-1.93,4.11,10.46,10.46,0,0,0,.8,3.94c.54,1.34,1.08,2.6,1.61,3.78l7.54,15.38,9.36-13.44a56,56,0,0,0,3.78-6,9.58,9.58,0,0,0,1.21-4.43,4,4,0,0,0-1.93-3.62q-1.93-1.2-6.93-1.37c-.32-.11-.56-.59-.72-1.45A11.9,11.9,0,0,1,4045,917a6.36,6.36,0,0,1,.48-2.34c.32-.8.64-1.2,1-1.2q5.47,0,9.66.4t6.76.4a55.16,55.16,0,0,0,7-.4,64.4,64.4,0,0,1,8-.4c.22,0,.43.32.65,1a6.75,6.75,0,0,1,.32,2.1,9.08,9.08,0,0,1-.49,2.41c-.32,1.08-.75,1.61-1.28,1.61q-3.22.16-6.69,3.22a44.6,44.6,0,0,0-6.68,7.57l-18.84,27.48,16.74,34.53L4090.54,936a47.42,47.42,0,0,0,2.26-5.14,13,13,0,0,0,.8-4.34,5.39,5.39,0,0,0-1.77-4.18c-1.18-1.07-3.39-1.66-6.61-1.77-.32-.11-.56-.59-.72-1.45a11.9,11.9,0,0,1-.24-2.09,6.36,6.36,0,0,1,.48-2.34c.32-.8.64-1.2,1-1.2a79.78,79.78,0,0,1,9,.4,54.45,54.45,0,0,0,6.46.4,64.84,64.84,0,0,0,7.5-.4,82.13,82.13,0,0,1,9.12-.4c.22,0,.43.32.65,1A6.75,6.75,0,0,1,4118.78,916.51Z"/><path class="cls-28" d="M4204.3,1021.83a7.35,7.35,0,0,1-.41,2.34c-.27.8-.56,1.21-.88,1.21q-7.89,0-15.87-.41t-15.38-.4q-7.41,0-15.46.4t-15.94.41c-.32,0-.62-.43-.89-1.29a7.65,7.65,0,0,1-.4-2.26,7.34,7.34,0,0,1,.4-2.09c.27-.86.57-1.34.89-1.45q9.49-1.12,12.48-4t3-9.5v-70.7q0-6.6-3-9.5t-12.48-4c-.32-.11-.62-.59-.89-1.45a7.28,7.28,0,0,1-.4-2.09,7.65,7.65,0,0,1,.4-2.26c.27-.85.57-1.28.89-1.28q7.89,0,15.94.4t15.46.4q7.41,0,15.38-.4t15.87-.4c.32,0,.61.4.88,1.2a7.4,7.4,0,0,1,.41,2.34,8.14,8.14,0,0,1-.41,2.17c-.27.92-.56,1.37-.88,1.37q-9.18,1-12.24,4t-3.06,9.5v70.7q0,6.45,3.06,9.5t12.24,4c.32,0,.61.46.88,1.37A8.21,8.21,0,0,1,4204.3,1021.83Z"/><path class="cls-28" d="M4349.89,951.13c0,.54-.41,1-1.21,1.45a5.93,5.93,0,0,1-2.82.65,8.47,8.47,0,0,1-1.77-.25c-.75-.16-1.18-.34-1.29-.56q-2.25-8.85-10.71-19.57t-15.86-10.71h-2.42q-3.71,0-5.31,1.53a6.26,6.26,0,0,0-1.61,4.75v76.34q0,6.45,3.06,9.5t12.4,4c.32,0,.61.46.88,1.37a8.21,8.21,0,0,1,.41,2.17,7.7,7.7,0,0,1-.41,2.26c-.27.86-.56,1.29-.88,1.29q-7.74,0-15.87-.41t-15.38-.4q-7.41,0-15.46.4t-15.94.41c-.32,0-.62-.43-.89-1.29a7.65,7.65,0,0,1-.4-2.26,7.34,7.34,0,0,1,.4-2.09c.27-.86.57-1.34.89-1.45q9.49-1.12,12.48-4t3-9.5V928.42q0-3.54-1.45-4.91c-1-.91-2.79-1.37-5.48-1.37h-1.29q-6.6,0-16.26,9.91T4237,952.42c-.11.32-.51.54-1.21.64a11.51,11.51,0,0,1-1.69.17,6.54,6.54,0,0,1-2.82-.65c-.91-.43-1.37-.91-1.37-1.45q1.62-8.05,3.47-19.73T4236,912a169.83,169.83,0,0,0,17.56,1.61q11.91.64,37.52.64,21.9,0,36.48-.64t19.25-1.61q.48,7.72,1.29,18.36T4349.89,951.13Z"/><path class="cls-28" d="M4516.09,1021.83a7.65,7.65,0,0,1-.4,2.26c-.27.86-.56,1.29-.89,1.29q-7.89,0-15.94-.41t-15.46-.4q-7.41,0-14.74.4t-15.22.41c-.32,0-.62-.41-.88-1.21a6.17,6.17,0,0,1,0-4.43c.26-.86.56-1.34.88-1.45q9.18-1.12,11.6-4c1.61-1.93,2.41-5.09,2.41-9.5V972.87H4424v31.89c0,4.3.81,7.46,2.42,9.5s5.52,3.39,11.75,4c.32,0,.62.46.89,1.37a8.12,8.12,0,0,1,.4,2.17,7.65,7.65,0,0,1-.4,2.26c-.27.86-.57,1.29-.89,1.29q-7.89,0-15.3-.41t-14.81-.4q-7.41,0-15.39.4t-15.86.41c-.32,0-.62-.41-.88-1.21a6.17,6.17,0,0,1,0-4.43c.26-.86.56-1.34.88-1.45q9.35-1.12,12.32-4t3-9.5v-70.7q0-6.6-3-9.5t-12.32-4c-.32-.11-.62-.59-.88-1.45a6.17,6.17,0,0,1,0-4.43c.26-.8.56-1.2.88-1.2q7.89,0,15.86.4t15.39.4q7.4,0,14.81-.4t15.3-.4c.32,0,.62.43.89,1.28a7.65,7.65,0,0,1,.4,2.26,8.06,8.06,0,0,1-.4,2.17c-.27.92-.57,1.37-.89,1.37q-9.35,1-11.75,4t-2.42,9.5V965h43.48V934.06q0-6.93-2.17-9.66t-11.84-3.87c-.32-.11-.62-.59-.88-1.45a6.17,6.17,0,0,1,0-4.43c.26-.8.56-1.2.88-1.2q7.89,0,15.22.4t14.74.4q7.56,0,15.46-.4t15.94-.4c.33,0,.62.43.89,1.28a7.65,7.65,0,0,1,.4,2.26,8.06,8.06,0,0,1-.4,2.17c-.27.92-.56,1.37-.89,1.37q-9.33,1-12.4,4t-3.06,9.5v70.7q0,6.45,3.06,9.5t12.4,4c.33,0,.62.46.89,1.37A8.12,8.12,0,0,1,4516.09,1021.83Z"/><path class="cls-28" d="M3624.18,1223.83q0,52.08-43.21,82.41t-117.84,30.33a154,154,0,0,1-37.58-4.3v79.46q0,21.48,10.2,31.67t41.34,13.42q1.6,0,2.95,4.57a27.54,27.54,0,0,1,1.34,7.24,25.84,25.84,0,0,1-1.34,7.52q-1.35,4.29-2.95,4.29-26.31,0-53.15-1.34t-51.54-1.34q-24.69,0-51.26,1.34t-52.88,1.34c-1.08,0-2.06-1.34-3-4a21,21,0,0,1,0-14.77c.9-2.86,1.88-4.47,3-4.83q31.13-3.75,41.06-13.42t9.94-31.67V1167.46q0-17.71-10.47-25.5t-40.53-11c-1.08-.36-2.06-2-3-4.83a21,21,0,0,1,0-14.77c.9-2.68,1.88-4,3-4q26.29,0,55,1.34t53.42,1.34q24.69,0,43-1.34t44.55-1.34q84.83,0,122.4,31.13T3624.18,1223.83Zm-110.59-7.51q0-46.71-14.49-64.69t-41.34-18q-17.18,0-24.69,8.06t-7.52,25.76v123.48q0,12.35,11,15.83t15.3,3.49q31.66,0,46.7-23.62T3513.59,1216.32Z"/><path class="cls-28" d="M4068.69,1468.63a25.84,25.84,0,0,1-1.34,7.52q-1.35,4.29-2.95,4.29-25.76,0-52-1.34t-48.28-1.34q-24.67,0-52.84,1.34t-54.48,1.34c-1.07,0-2.06-1.34-3-4a24.45,24.45,0,0,1-1.34-7.79,40.35,40.35,0,0,1,.8-7q.81-4.29,2.42-4.83,25.77-1.6,34.08-6.71t8.32-15.84a39.8,39.8,0,0,0-1.87-10.73q-1.87-6.45-4-11.81l-14.63-37.58H3764.84l-13.05,31.14a115.86,115.86,0,0,0-5.09,14.22,44,44,0,0,0-1.87,11.54q0,11.28,6.16,18t34.09,7.78q1.61,0,2.14,4.57a65.12,65.12,0,0,1,.54,7.24,24.74,24.74,0,0,1-1.34,7.79q-1.35,4-3,4-23.1,0-36-1.34t-34.31-1.34q-17.68,0-31.09,1.34t-31.62,1.34q-1.6,0-2.69-4.56a33.76,33.76,0,0,1-1.06-7.25q0-2.67,2.41-7t4-4.83q23.09-2.14,36-14t26.3-39.72L3848.59,1103q.52-1.61,5.9-3a39.49,39.49,0,0,1,20.4,0q5.37,1.35,5.91,3L4000,1403.14q9.66,26.83,23.08,38.92t40.27,14.76q1.61,0,3.48,4.57A20.56,20.56,0,0,1,4068.69,1468.63Zm-201.37-120.25-45.2-118.19L3775,1348.38Z"/><path class="cls-28" d="M4573.32,1468.63a32.8,32.8,0,0,1-2.41,7.52q-1.89,4.29-3.49,4.29-15,0-39.73-1.34t-33.82-1.34q-12.89,0-33.82,1.34t-33.82,1.34L4358.59,1343q-8.06-16.11-19.33-22.28t-30.6-6.17v97.17q0,21.48,8.05,31.67t39.19,13.42c1.08,0,2.06,1.52,3,4.57a27.54,27.54,0,0,1,1.34,7.24,25.84,25.84,0,0,1-1.34,7.52c-.9,2.86-1.88,4.29-3,4.29q-26.31,0-51-1.34t-49.39-1.34q-24.69,0-51.27,1.34t-52.87,1.34c-1.08,0-2.06-1.34-3-4a21,21,0,0,1,0-14.77c.9-2.86,1.88-4.47,3-4.83q31.13-3.75,41.06-13.42t9.94-31.67V1176.05q0-22-9.94-31.67T4151.37,1131c-1.08-.36-2.06-2-3-4.83a21,21,0,0,1,0-14.77c.9-2.68,1.88-4,3-4q26.29,0,53.95,1.34t52.34,1.34q24.69,0,44-1.34t45.63-1.34q87,0,125.62,28.72t38.66,67.37q0,36.51-17.49,58.79t-56.78,34.09L4511,1419.24q11.3,18.79,23.11,26.85t36.54,10.73q1.6,0,2.42,4.57A20.52,20.52,0,0,1,4573.32,1468.63ZM4401,1213.1q0-41.34-15-60.4t-46.17-19.06q-19.34,0-25.23,7.52t-5.91,26.3v121.33q3.23.54,9.4,1.07c4.11.37,8,.54,11.54.54q38.11,0,54.76-17.18T4401,1213.1Z"/><path class="cls-28" d="M4854.09,1468.63a24.74,24.74,0,0,1-1.34,7.79c-.9,2.68-1.88,4-3,4q-26.31,0-52.88-1.34t-51.26-1.34q-24.7,0-51.54,1.34t-53.15,1.34c-1.07,0-2.06-1.43-2.95-4.29a25.5,25.5,0,0,1-1.34-7.52,24.53,24.53,0,0,1,1.34-7c.89-2.86,1.88-4.47,2.95-4.83q31.66-3.75,41.61-13.42t9.93-31.67V1176.05q0-22-9.93-31.67T4641,1131c-1.07-.36-2.06-2-2.95-4.83a24.41,24.41,0,0,1-1.34-7,25.56,25.56,0,0,1,1.34-7.52c.89-2.86,1.88-4.29,2.95-4.29q26.31,0,53.15,1.34t51.54,1.34q24.69,0,51.26-1.34t52.88-1.34c1.08,0,2.06,1.34,3,4a24.74,24.74,0,0,1,1.34,7.79,27.53,27.53,0,0,1-1.34,7.25c-.9,3-1.88,4.56-3,4.56q-30.6,3.22-40.8,13.42t-10.2,31.67v235.68q0,21.48,10.2,31.67t40.8,13.42c1.08,0,2.06,1.52,3,4.57A27.54,27.54,0,0,1,4854.09,1468.63Z"/><path class="cls-28" d="M5170.82,1256.58a346.62,346.62,0,0,1,59.59,44.83q27.92,26,27.92,65.76,0,56.91-41.07,89.38T5113.91,1489q-38.11,0-65.22-10.47t-62-16.91q-.54-19.32-.53-51.53t-1.61-56.91c0-1.07,1.51-2,4.56-3a28.54,28.54,0,0,1,7.78-1.34,24.7,24.7,0,0,1,7.25,1.07c2.32.72,3.67,1.79,4,3.22q10.2,47.79,42.68,78.92t63.07,31.13q31.14,0,44.83-13.68t13.69-37.32q0-29-27.92-48.85t-60.12-38.65a334.31,334.31,0,0,1-60.67-44.56q-27.92-25.77-27.91-63.35,0-49.92,37.85-84t103.88-34.09q29.52,0,51,7.25a361.22,361.22,0,0,0,46.16,12.07q.54,19.34,1.88,48.32t3.49,47.78c0,1.07-1.52,2.06-4.56,2.95a23.17,23.17,0,0,1-14.76.27c-2.51-.71-4.12-1.79-4.84-3.22q-10.2-41.88-30.06-65.76T5137,1124.52q-25.23,0-39.73,13.42t-14.49,33.82q0,26.84,27.11,45.9T5170.82,1256.58Z"/><rect class="cls-29" x="3263.96" y="917" width="629.11" height="10"/><rect class="cls-29" x="3265.83" y="1014.57" width="661.72" height="10"/><rect class="cls-29" x="4547.75" y="917" width="629.11" height="10"/><rect class="cls-29" x="4547.75" y="1014.57" width="629.11" height="10"/></svg>