<svg id="Layer_1" data-name="Layer 1" xmlns="http://www.w3.org/2000/svg" xmlns:xlink="http://www.w3.org/1999/xlink" width="1000mm" height="600mm" viewBox="0 0 2834.65 1700.79"><defs><style>.cls-1{fill:none;}.cls-2{fill:#d59ec7;stroke:#fff;stroke-miterlimit:10;stroke-width:20px;}.cls-3{clip-path:url(#clip-path);}.cls-4{fill:#f2d2dd;}.cls-5{fill:#4a3022;}.cls-6{fill:#f2d5e6;}.cls-7{fill:#967058;}.cls-8{fill:#1d1d1b;}.cls-9{fill:#001400;}.cls-10{fill:#fff;}.cls-11{fill:#70473a;}.cls-12{fill:#5f2a80;}</style><clipPath id="clip-path"><rect class="cls-1" x="934.02" y="178.37" width="966.61" height="966.61"/></clipPath></defs><rect class="cls-2" x="71.87" y="105.73" width="2681.87" height="1489.34"/><g id="Artwork_18" data-name="Artwork 18"><g class="cls-3"><g class="cls-3"><path class="cls-4" d="M1417.32,178.37c266.92,0,483.31,216.38,483.31,483.31S1684.24,1145,1417.32,1145,934,928.6,934,661.68s216.38-483.31,483.3-483.31"/></g><g class="cls-3"><path class="cls-5" d="M1421.22,480.15c107.39-.42,194.76,79.52,195.15,178.54s-85.72,345.31-193.11,345.73-195.41-245.2-195.8-344.22,86.36-179.63,193.76-180.05"/><path class="cls-6" d="M1578.2,767c-32.36,18.68-76.88,2.13-99.45-37s-14.63-85.92,17.72-104.6,76.88-2.13,99.44,37,14.64,85.91-17.71,104.6"/><path class="cls-6" d="M1265.28,764.08c-31-20.78-35.85-68-10.74-105.54s70.63-51.07,101.67-30.29,35.86,68,10.75,105.55-70.63,51.06-101.68,30.28"/><path class="cls-7" d="M1423,1004.4c-61.39.85-111.64-33.08-112.23-75.79s48.09-121.32,109.48-122.17,112.24,76.38,112.84,119.09-48.7,78-110.09,78.87"/><path class="cls-7" d="M1245.78,662.61c9.21-17.74,39.61-52.43,73-52.43s47.73,20.77,60.44,36.2c22.72,27.59-27.06,15.39-60.44,15.39s-83,20.2-73,.84"/><path class="cls-7" d="M1472.86,646c15.09-13.11,27.24-36.07,60.61-35.91s66,35.43,72.29,54.39c10.61,31.72-39.16-2.64-72.54-2.8s-78.49.08-60.36-15.68"/><path class="cls-8" d="M1359.67,696.17a14.7,14.7,0,1,1-14.69-14.7,14.69,14.69,0,0,1,14.69,14.7"/><path class="cls-8" d="M1519.63,696.17a14.7,14.7,0,1,1-14.69-14.7,14.69,14.69,0,0,1,14.69,14.7"/><path class="cls-9" d="M1421.92,873.08c18.72,0,46.79,3.85,46.79,18.2s-28.07,45.49-46.79,45.49-43-33.17-43-47.52,24.25-16.17,43-16.17"/><path class="cls-10" d="M1439.07,892.26c0,3.36-7.68,2.37-17.15,2.37s-17.16,1-17.16-2.37,7.68-6.09,17.16-6.09,17.15,2.73,17.15,6.09"/><path class="cls-8" d="M1361.81,907.48a7.35,7.35,0,1,1-7.35-7.35,7.35,7.35,0,0,1,7.35,7.35"/><path class="cls-8" d="M1347.11,934.41a7.35,7.35,0,1,1-7.35-7.35,7.35,7.35,0,0,1,7.35,7.35"/><path class="cls-8" d="M1378.94,934.41a7.35,7.35,0,1,1-7.35-7.35,7.35,7.35,0,0,1,7.35,7.35"/><path class="cls-8" d="M1497.59,907.48a7.35,7.35,0,1,1-7.35-7.35,7.35,7.35,0,0,1,7.35,7.35"/><path class="cls-8" d="M1476.06,936.77a7.35,7.35,0,1,1-7.35-7.35,7.35,7.35,0,0,1,7.35,7.35"/><path class="cls-8" d="M1508.87,934.41a7.35,7.35,0,1,1-7.34-7.35,7.35,7.35,0,0,1,7.34,7.35"/><path class="cls-5" d="M1298.94,533.22c-30.89,21.52-57.61,95.11-106.65-5.06-38.73-79.1-129.47-141.19-94.94-144.25,39.21-3.47,101.69-15.27,166.43,46.07,69.64,66,77,74.08,35.16,103.24"/><path class="cls-5" d="M1534.36,532.28c30.69,21.81,56.7,95.65,106.7-4.06,39.47-78.72,130.79-140,96.29-143.34-39.18-3.84-101.54-16.23-166.85,44.5-70.27,65.34-77.73,73.35-36.14,102.9"/><path class="cls-11" d="M1293,529.33c-22.08,15.38-41.17,68-76.23-3.61-27.68-56.54-92.53-100.92-67.85-103.1,28-2.48,72.68-10.92,119,32.93,49.78,47.17,55,52.95,25.13,73.78"/><path class="cls-11" d="M1541.63,529.33c22.08,15.38,41.18,68,76.24-3.61,27.67-56.54,92.53-100.92,67.85-103.1-28-2.48-72.68-10.92-119,32.93-49.78,47.17-55.06,52.95-25.14,73.78"/><path class="cls-11" d="M1420.24,806.44c-15.71,0-29.7,12.59-29.7,0s15.66-49.56,31.37-49.56,29.53,37.21,32,49.56-18,0-33.68,0"/><path class="cls-11" d="M1425.46,651.63c0,24.82,2.43,37.11-3.23,37.11s-4.16-14.92-4.16-39.74-1.63-38.82,4-38.82,3.37,16.63,3.37,41.45"/><path class="cls-11" d="M1490.88,557.84c0,5.48-30.88-4.08-69-4.08s-69,10.74-69,5.26,30.88-15.19,69-15.19,69,8.52,69,14"/></g></g></g><path class="cls-12" d="M688.33,1335.51a9.88,9.88,0,0,1-.5,2.7c-.33,1.14-.7,1.7-1.1,1.7q-9.6,1-13.2,5.21t-3.6,11.62V1377a36.6,36.6,0,0,0,.5,7.21,25,25,0,0,0,1.7,4.81,248.49,248.49,0,0,1-27.6,7.72,147.78,147.78,0,0,1-32.4,3.5q-19.39,0-34.6-6a71.49,71.49,0,0,1-25.2-16.2,64.71,64.71,0,0,1-14.8-22.8,74.6,74.6,0,0,1-5-27,68.17,68.17,0,0,1,22.2-51.4q11-10.2,27.7-16.1a110.84,110.84,0,0,1,37.1-5.9,93.07,93.07,0,0,1,24.2,3.4,85.41,85.41,0,0,0,21.8,3.4q0,8.21.4,21.1t.6,21.7c0,.4-.56.77-1.7,1.1a10.78,10.78,0,0,1-3.1.5,7.25,7.25,0,0,1-2.5-.4,2.51,2.51,0,0,1-1.5-1.2,61.53,61.53,0,0,0-16.5-28.2,39.39,39.39,0,0,0-28.5-11.6q-18,0-28.5,17.8t-10.5,45.8q0,27,10.2,44.7t28.2,17.7q12.21,0,16.5-3.21t4.3-9.61v-23.85q0-6.81-3.6-9.62t-16-4.21c-.4,0-.77-.53-1.1-1.6a10.12,10.12,0,0,1-.5-3,9.26,9.26,0,0,1,.5-2.9c.33-1,.7-1.5,1.1-1.5q9.79,0,17.2.65t16.4.65q9.2,0,19.6-.65t20.2-.65c.4,0,.77.54,1.1,1.6A9.37,9.37,0,0,1,688.33,1335.51Z"/><path class="cls-12" d="M867.93,1392.61a9.65,9.65,0,0,1-.5,2.8c-.33,1.07-.7,1.6-1.1,1.6q-9.6,0-19.39-.5t-18-.5q-9.19,0-19.69.5T789,1397c-.4,0-.77-.5-1.1-1.5a8.94,8.94,0,0,1-.5-2.9,14.85,14.85,0,0,1,.3-2.6q.3-1.59.9-1.8,9.6-.6,12.69-2.5a6.41,6.41,0,0,0,3.1-5.9,14.74,14.74,0,0,0-.7-4c-.46-1.6-1-3.06-1.49-4.4l-5.46-14h-42l-4.86,11.6a44,44,0,0,0-1.9,5.3,16.64,16.64,0,0,0-.7,4.3,9.51,9.51,0,0,0,2.3,6.7q2.29,2.51,12.7,2.9c.4,0,.66.57.8,1.7a25.49,25.49,0,0,1,.2,2.7,9.22,9.22,0,0,1-.5,2.9c-.34,1-.7,1.5-1.1,1.5q-8.61,0-13.4-.5t-12.78-.5q-6.59,0-11.58.5t-11.78.5c-.4,0-.74-.57-1-1.7a12.25,12.25,0,0,1-.4-2.7,5.77,5.77,0,0,1,.9-2.6q.9-1.59,1.5-1.8,8.6-.8,13.4-5.2t9.8-14.8l49.6-111.8c.13-.4.87-.76,2.2-1.1a14.69,14.69,0,0,1,7.6,0c1.33.34,2.07.7,2.2,1.1l44.4,111.8q3.6,10,8.6,14.5t15,5.5c.4,0,.83.57,1.3,1.7A7.63,7.63,0,0,1,867.93,1392.61Zm-75-44.8-16.84-44-17.56,44Z"/><path class="cls-12" d="M1096.33,1392.61a12.06,12.06,0,0,1-.4,2.8c-.27,1.07-.6,1.6-1,1.6q-9.81,0-20-.5t-19.4-.5q-9.21,0-18.9.5t-19.5.5q-.6,0-1.2-1.5a7.76,7.76,0,0,1-.6-2.9,9,9,0,0,1,.5-2.6c.33-1.06.7-1.66,1.1-1.8q10.8-1.2,14.9-5t3.5-11.8l-3.6-86.4-43.8,113.6c-.13.27-.8.6-2,1a12.63,12.63,0,0,1-4,.6,11.18,11.18,0,0,1-4.2-.6,6.35,6.35,0,0,1-1.8-1l-44.2-109.2-5,82q-.6,8.21,3.5,11.9t15.7,4.9c.4,0,.7.57.9,1.7a16.58,16.58,0,0,1,.3,2.7,7.76,7.76,0,0,1-.6,2.9q-.6,1.5-1.2,1.5-7.61,0-13.9-.5t-13.3-.5q-7.2,0-13.4.5t-13,.5c-.4,0-.74-.57-1-1.7a12.25,12.25,0,0,1-.4-2.7,6.2,6.2,0,0,1,.7-2.8c.46-.93.9-1.46,1.3-1.6q11.79-1.39,16.3-4.9t5.3-11.9l8.2-87.8q.6-8.4-3.6-11.9t-15.8-4.9c-.4-.13-.74-.73-1-1.8a11,11,0,0,1-.4-2.6,6.8,6.8,0,0,1,.7-2.9c.46-1,.9-1.5,1.3-1.5q5,0,13.39.5t12.77.5q5.57,0,14.81-.5t15.61-.5l36.6,90.44,35-90.44q7.6,0,15.7.5t13.3.5q6,0,14.2-.5t14.2-.5c.4,0,.76.54,1.1,1.6a9.7,9.7,0,0,1,.5,2.8,12.88,12.88,0,0,1-.4,2.7c-.27,1.14-.6,1.7-1,1.7q-11,1.2-14.9,5t-3.5,11.8l4.2,87.8q.39,8,4.1,11.8t15.7,5c.4,0,.76.57,1.1,1.7A10.42,10.42,0,0,1,1096.33,1392.61Z"/><path class="cls-12" d="M1262.93,1350.21q-1.41,11.2-2.7,23.7t-1.9,23.1q-12.6-.4-31.6-.7t-30.6-.3q-11.61,0-33,.4l-32,.6c-.4,0-.77-.53-1.1-1.6a9.32,9.32,0,0,1-.5-2.8,9,9,0,0,1,.5-2.6c.33-1.06.7-1.66,1.1-1.8q11.79-1.39,15.5-5t3.7-11.8v-87.8q0-8.19-3.7-11.8t-15.5-5c-.4-.13-.77-.73-1.1-1.8a8.89,8.89,0,0,1-.5-2.6,9.37,9.37,0,0,1,.5-2.8c.33-1.06.7-1.6,1.1-1.6l30.4.6q19.8.41,32.6.4,10.8,0,30.6-.3t32-.7q-.4,8.21.3,21.2t1.1,23.4c0,.54-.5,1.1-1.5,1.7a8,8,0,0,1-4.1.9,6.34,6.34,0,0,1-2.4-.4c-.67-.26-1-.53-1-.8q-1.61-12.6-10.5-23.9t-25.1-11.3h-12a16.58,16.58,0,0,0-7.8,2q-3.81,2-3.8,9.8V1322h6.8q10,0,16.1-6t7.1-15.8c0-.4.56-.76,1.7-1.1a10.28,10.28,0,0,1,2.7-.5,9.26,9.26,0,0,1,2.9.5c1,.34,1.5.7,1.5,1.1q0,7.41-.5,13.8t-.5,13.2q0,7,.5,13.1t.5,13.3c0,.4-.5.77-1.5,1.1a9,9,0,0,1-2.9.5,8.89,8.89,0,0,1-2.6-.5c-1.07-.33-1.67-.7-1.8-1.1q-1.2-10.39-6.7-16.1t-16.5-5.7h-6.8v42.6q0,7.2,3.8,9.5a14.81,14.81,0,0,0,7.8,2.3h10.4q15.19,0,27-11a48.12,48.12,0,0,0,14.8-27q0-.39.9-.6a10,10,0,0,1,2.1-.2,12.08,12.08,0,0,1,4.3.8C1262.43,1348.75,1263.06,1349.41,1262.93,1350.21Z"/><path class="cls-12" d="M1520.32,1328.21q0,30-20.5,51t-57.9,21q-37.39,0-58-21.1t-20.6-50.9q0-29.79,20.6-51.6t58-21.8q36.6,0,57.5,21.5T1520.32,1328.21Zm-41.2,0q0-27.6-8-45.7t-29.2-18.1q-21.39,0-29.3,18.3t-7.9,45.5q0,27.81,7.9,45.1t29.3,17.3q21.21,0,29.2-17.4T1479.12,1328.21Z"/><path class="cls-12" d="M1706.72,1262.41a15,15,0,0,1-.9,2.7c-.46,1.14-.9,1.7-1.3,1.7q-8.6.6-13,5.4t-9,14.6l-53,111.8a3.53,3.53,0,0,1-1.8,1.1,13.33,13.33,0,0,1-4.2.5,13.54,13.54,0,0,1-4.1-.5,3.7,3.7,0,0,1-1.9-1.1l-47.8-111.8q-4.8-11.19-8.6-15.1t-13.2-4.9q-.6-.19-1.2-1.8a7.78,7.78,0,0,1-.6-2.6,8.17,8.17,0,0,1,.6-2.8c.4-1.06.8-1.6,1.2-1.6q9.6,0,18.7.5t17.3.5q9.19,0,19.3-.5t19.9-.5c.4,0,.73.57,1,1.7a12.41,12.41,0,0,1,.4,2.7,12.25,12.25,0,0,1-.4,2.7c-.27,1.14-.6,1.7-1,1.7q-8.8.4-12.4,2.2a6.74,6.74,0,0,0-3.8,6.2,11.54,11.54,0,0,0,.7,4.6c.6,1.87,1,3.14,1.3,3.8l29.68,70.18,30.92-67.57a41.72,41.72,0,0,0,1.5-4.65,20.28,20.28,0,0,0,.9-5.06q-.2-4.63-2.2-6.87t-13.2-2.83q-.6-.19-.9-1.8a14.65,14.65,0,0,1-.3-2.6,6.37,6.37,0,0,1,.3-2.9c.34-1,.7-1.5,1.1-1.5a125.62,125.62,0,0,1,13,.5,118,118,0,0,0,12.6.5,104.15,104.15,0,0,0,11.2-.5,111.77,111.77,0,0,1,11.6-.5c.4,0,.77.54,1.1,1.6A9.37,9.37,0,0,1,1706.72,1262.41Z"/><path class="cls-12" d="M1865.72,1350.21q-1.4,11.2-2.7,23.7t-1.9,23.1q-12.6-.4-31.6-.7t-30.6-.3q-11.6,0-33,.4l-32,.6c-.4,0-.77-.53-1.1-1.6a9.65,9.65,0,0,1-.5-2.8,9.36,9.36,0,0,1,.5-2.6c.33-1.06.7-1.66,1.1-1.8q11.8-1.39,15.5-5t3.7-11.8v-87.8q0-8.19-3.7-11.8t-15.5-5c-.4-.13-.77-.73-1.1-1.8a9.23,9.23,0,0,1-.5-2.6,9.7,9.7,0,0,1,.5-2.8c.33-1.06.7-1.6,1.1-1.6l30.4.6q19.8.41,32.6.4,10.8,0,30.6-.3t32-.7q-.4,8.21.3,21.2t1.1,23.4c0,.54-.5,1.1-1.5,1.7a8,8,0,0,1-4.1.9,6.42,6.42,0,0,1-2.4-.4c-.67-.26-1-.53-1-.8q-1.61-12.6-10.5-23.9t-25.1-11.3h-12a16.58,16.58,0,0,0-7.8,2q-3.8,2-3.8,9.8V1322h6.8q10,0,16.1-6t7.1-15.8c0-.4.57-.76,1.7-1.1a10.28,10.28,0,0,1,2.7-.5,9.26,9.26,0,0,1,2.9.5c1,.34,1.5.7,1.5,1.1q0,7.41-.5,13.8t-.5,13.2q0,7,.5,13.1t.5,13.3c0,.4-.5.77-1.5,1.1a7.79,7.79,0,0,1-5.5,0c-1.07-.33-1.67-.7-1.8-1.1q-1.2-10.39-6.7-16.1t-16.5-5.7h-6.8v42.6q0,7.2,3.8,9.5a14.81,14.81,0,0,0,7.8,2.3h10.4q15.19,0,27-11a48.06,48.06,0,0,0,14.8-27q0-.39.9-.6a10,10,0,0,1,2.1-.2,12,12,0,0,1,4.3.8C1865.22,1348.75,1865.85,1349.41,1865.72,1350.21Z"/><path class="cls-12" d="M2063.52,1392.61a11.76,11.76,0,0,1-.9,2.8c-.47,1.07-.9,1.6-1.3,1.6q-5.59,0-14.8-.5t-12.6-.5q-4.8,0-12.6.5t-12.6.5l-25.2-51.2q-3-6-7.2-8.3t-11.4-2.3v36.2q0,8,3,11.8t14.6,5c.4,0,.77.57,1.1,1.7a10.42,10.42,0,0,1,.5,2.7,9.65,9.65,0,0,1-.5,2.8c-.33,1.07-.7,1.6-1.1,1.6q-9.8,0-19-.5t-18.4-.5q-9.19,0-19.1.5t-19.7.5c-.4,0-.77-.5-1.1-1.5a9.22,9.22,0,0,1-.5-2.9,9.36,9.36,0,0,1,.5-2.6c.33-1.06.7-1.66,1.1-1.8q11.6-1.39,15.3-5t3.7-11.8v-87.8q0-8.19-3.7-11.8t-15.3-5c-.4-.13-.77-.73-1.1-1.8a7.79,7.79,0,0,1,0-5.5c.33-1,.7-1.5,1.1-1.5q9.79,0,20.1.5t19.5.5q9.19,0,16.4-.5t17-.5q32.4,0,46.8,10.7t14.4,25.1q0,13.61-6.51,21.9t-21.16,12.7l27.45,45.8q4.2,7,8.61,10t13.61,4c.4,0,.7.57.9,1.7A7.71,7.71,0,0,1,2063.52,1392.61Zm-64.2-95.2q0-15.39-5.6-22.5t-17.2-7.1q-7.2,0-9.4,2.8t-2.2,9.8v45.2c.8.14,2,.27,3.5.4s3,.2,4.3.2q14.21,0,20.4-6.4T1999.32,1297.41Z"/><path class="cls-12" d="M2128.72,1382a17.66,17.66,0,0,1-5.3,12.8,18.2,18.2,0,1,1,0-25.6A17.67,17.67,0,0,1,2128.72,1382Z"/><path class="cls-12" d="M2212.72,1382a17.66,17.66,0,0,1-5.3,12.8,18.2,18.2,0,1,1,0-25.6A17.67,17.67,0,0,1,2212.72,1382Z"/><path class="cls-12" d="M2296.72,1382a17.66,17.66,0,0,1-5.3,12.8,18.2,18.2,0,1,1,0-25.6A17.67,17.67,0,0,1,2296.72,1382Z"/></svg>