<svg id="Layer_1" data-name="Layer 1" xmlns="http://www.w3.org/2000/svg" xmlns:xlink="http://www.w3.org/1999/xlink" width="150mm" height="150mm" viewBox="0 0 425.2 425.2"><defs><style>.cls-1{fill:none;}.cls-2{clip-path:url(#clip-path);}.cls-3{fill:#f2d2dd;}.cls-4{fill:#4a3022;}.cls-5{fill:#f2d5e6;}.cls-6{fill:#967058;}.cls-7{fill:#1d1d1b;}.cls-8{fill:#001400;}.cls-9{fill:#fff;}.cls-10{fill:#70473a;}</style><clipPath id="clip-path"><rect class="cls-1" x="70.87" y="66.67" width="283.46" height="283.46"/></clipPath></defs><g id="Artwork_1" data-name="Artwork 1"><g class="cls-2"><g class="cls-2"><path class="cls-3" d="M212.6,66.67A141.73,141.73,0,1,1,70.87,208.4,141.74,141.74,0,0,1,212.6,66.67"/></g></g></g><path class="cls-4" d="M213.74,155.17c31.49-.13,57.12,23.32,57.23,52.35s-25.14,101.27-56.63,101.39S157,237,156.92,208,182.25,155.29,213.74,155.17Z"/><ellipse class="cls-5" cx="247.79" cy="218.51" rx="19.84" ry="23.97" transform="translate(-76.06 153.17) rotate(-30)"/><ellipse class="cls-5" cx="181.35" cy="218.51" rx="23.97" ry="19.84" transform="translate(-101.12 247.65) rotate(-56.2)"/><path class="cls-6" d="M214.26,308.9c-18,.25-32.74-9.7-32.91-22.22s14.1-35.58,32.1-35.83,32.92,22.4,33.09,34.93S232.26,308.65,214.26,308.9Z"/><path class="cls-6" d="M162.29,208.68c2.7-5.21,11.62-15.38,21.41-15.38s14,6.09,17.72,10.61c6.67,8.09-7.93,4.52-17.72,4.52S159.35,214.35,162.29,208.68Z"/><path class="cls-6" d="M228.89,203.79c4.42-3.84,8-10.57,17.77-10.53s19.34,10.39,21.2,16c3.11,9.3-11.49-.77-21.27-.82S223.57,208.42,228.89,203.79Z"/><circle class="cls-7" cx="191.38" cy="218.51" r="4.31"/><circle class="cls-7" cx="238.29" cy="218.51" r="4.31"/><path class="cls-8" d="M214,270.39c5.49,0,13.72,1.13,13.72,5.34s-8.23,13.34-13.72,13.34-12.61-9.73-12.61-13.93S208.45,270.39,214,270.39Z"/><path class="cls-9" d="M219,276c0,1-2.26.69-5,.69s-5,.29-5-.69,2.25-1.79,5-1.79S219,275,219,276Z"/><circle class="cls-7" cx="194.16" cy="280.48" r="2.15"/><circle class="cls-7" cx="189.85" cy="288.38" r="2.15"/><circle class="cls-7" cx="199.19" cy="288.38" r="2.15"/><circle class="cls-7" cx="233.98" cy="280.48" r="2.15"/><circle class="cls-7" cx="227.67" cy="289.07" r="2.15"/><circle class="cls-7" cx="237.29" cy="288.38" r="2.15"/><path class="cls-4" d="M177.88,170.73c-9.06,6.31-16.89,27.89-31.27-1.48-11.36-23.2-38-41.41-27.84-42.3,11.5-1,29.82-4.48,48.8,13.51C188,159.81,190.16,162.18,177.88,170.73Z"/><path class="cls-4" d="M246.92,170.45c9,6.4,16.63,28.05,31.29-1.18,11.57-23.09,38.35-41.05,28.24-42-11.49-1.13-29.78-4.76-48.93,13C236.91,159.44,234.72,161.79,246.92,170.45Z"/><path class="cls-10" d="M176.15,169.59c-6.47,4.51-12.07,19.94-22.35-1.06-8.12-16.58-27.14-29.59-19.9-30.23,8.22-.73,21.31-3.2,34.88,9.65C183.38,161.79,184.93,163.48,176.15,169.59Z"/><path class="cls-10" d="M249.05,169.59c6.48,4.51,12.08,19.94,22.36-1.06,8.11-16.58,27.13-29.59,19.9-30.23-8.22-.73-21.32-3.2-34.89,9.65C241.83,161.79,240.28,163.48,249.05,169.59Z"/><path class="cls-10" d="M213.45,250.85c-4.6,0-8.71,3.7-8.71,0s4.6-14.53,9.21-14.53,8.65,10.91,9.38,14.53S218.06,250.85,213.45,250.85Z"/><path class="cls-10" d="M215,205.45c0,7.28.72,10.89-.94,10.89s-1.22-4.38-1.22-11.66-.48-11.38,1.18-11.38S215,198.18,215,205.45Z"/><path class="cls-10" d="M234.17,178c0,1.61-9.06-1.2-20.22-1.2s-20.23,3.15-20.23,1.55,9.06-4.46,20.23-4.46S234.17,176.34,234.17,178Z"/></svg>