<svg id="Layer_1" data-name="Layer 1" xmlns="http://www.w3.org/2000/svg" xmlns:xlink="http://www.w3.org/1999/xlink" width="150mm" height="150mm" viewBox="0 0 425.2 425.2"><defs><style>.cls-1{fill:none;}.cls-2{clip-path:url(#clip-path);}.cls-3{clip-path:url(#clip-path-2);}.cls-4{fill:#f2d2dd;}.cls-5{fill:#ef8095;}.cls-6{fill:#eb92a7;}.cls-7{fill:#f2c9e1;}.cls-8{fill:#f2d5e6;}</style><clipPath id="clip-path"><rect class="cls-1" x="70.87" y="70.87" width="283.46" height="283.46"/></clipPath><clipPath id="clip-path-2"><rect class="cls-1" x="70.87" y="70.87" width="283.38" height="283.46"/></clipPath></defs><g id="Artwork_4" data-name="Artwork 4"><g class="cls-2"><g class="cls-3"><path class="cls-4" d="M212.52,70.87A141.73,141.73,0,1,1,70.79,212.6,141.72,141.72,0,0,1,212.52,70.87"/></g><g class="cls-2"><path class="cls-5" d="M300.75,262.59c0,25.22-39.47,36-88.15,36s-88.15-16.11-88.15-36c0-31.09,39.81-29.64,88.15-36s88.15,16.11,88.15,36"/><path class="cls-5" d="M290.32,220.7c-5.26,19.87-34.8,37.44-77.72,37.44S140.71,239,134.87,220.7c-6.18-19.43,34.8-37.44,77.73-37.44s83,17.66,77.72,37.44"/><path class="cls-5" d="M275.73,183.26c7.69,19.2-27.76,37.46-62,37.46s-66-17.16-62-37.46c4.08-20.72,27.75-37.47,62-37.47s55.12,20.3,62,37.47"/><path class="cls-5" d="M245.17,144.11c0,10.18-14.08,18.43-31.44,18.43S175,151.26,182.28,144.11c30.43-30.06-9.43-53.64,30.32-23.32,13.81,10.53,32.57,13.14,32.57,23.32"/><path class="cls-6" d="M238.9,143.65c.62,3.41-5.05,5.27-10.88,6.33s-76.64,2.69-16.48-3.52C226.06,145,170.63,89.64,225.1,136c4.51,3.84,13.18,4.2,13.8,7.62"/><path class="cls-6" d="M294.54,271.5c-6.05,6.7-37.29,20.2-81.41,20.2S142,276.9,134.78,271.5c-21.91-16.34,35.72-1.7,79.84-1.7s98.22-18.54,79.92,1.7"/><path class="cls-6" d="M287.35,229.07c-5.77,9.28-39.28,24.69-81.68,25.35s-59-16.6-65.94-24.29c-18.09-20.19,31-.91,73.13-5.63,41.43-4.63,89.06-18.86,74.49,4.57"/><path class="cls-6" d="M274.1,197c-4.12,10.13-22.71,6.63-65.11,7.3s-50.43,2.4-54.54-7.08c-13.19-30.4,17.79-5,59.91-9.69,41.43-4.63,71.89-20.38,59.74,9.47"/><path class="cls-7" d="M234.69,144.26c.33,1.4-2,2.29-4.36,2.85s-31.65,2.73-6.89-1.1c6-.93-18.13-22.64,5.38-4.6,2,1.49,5.55,1.45,5.87,2.85"/><path class="cls-8" d="M204.19,251.33c2.54,1-25.07-1.14-36.91-5.2s-16.67-17.24-18.1-19.31c-3.75-5.41,8.7,7.31,20.64,10.91,17.1,5.15,26.05,10.33,34.37,13.6"/><path class="cls-8" d="M292.87,267.28c-1.61,1.56-6.38,9.89-18.26,11.84a162.22,162.22,0,0,1-25.1,2.32c-8.48-.24,10.55-6.18,22.43-8.14s26.87-11.74,20.93-6"/><path class="cls-7" d="M271.48,183.76c2.29,1.15,1.81,6.77-1.08,12.55s-12.22,5.59-14.51,4.44,5.48-1.73,8.37-7.51,4.93-10.62,7.22-9.48"/></g></g></g></svg>