<svg id="Layer_1" data-name="Layer 1" xmlns="http://www.w3.org/2000/svg" xmlns:xlink="http://www.w3.org/1999/xlink" width="150mm" height="150mm" viewBox="0 0 425.2 425.2"><defs><style>.cls-1,.cls-5,.cls-7{fill:none;}.cls-2{clip-path:url(#clip-path);}.cls-3{fill:#f2d2dd;}.cls-4{fill:#397353;}.cls-5{stroke:#155a34;stroke-width:8px;}.cls-5,.cls-7{stroke-miterlimit:10;}.cls-6{fill:#155a34;}.cls-7{stroke:#f2d5e6;stroke-width:4px;}.cls-8{fill:#f2d5e6;}</style><clipPath id="clip-path"><rect class="cls-1" x="70.87" y="70.87" width="283.46" height="283.46"/></clipPath></defs><g id="Artwork_6" data-name="Artwork 6"><g class="cls-2"><g class="cls-2"><path class="cls-3" d="M212.6,70.87A141.73,141.73,0,1,1,70.87,212.6,141.73,141.73,0,0,1,212.6,70.87"/></g><rect class="cls-4" x="118.37" y="163.18" width="193.71" height="98.83"/><rect class="cls-5" x="122.36" y="166.36" width="185.72" height="92.47"/><g class="cls-2"><path class="cls-5" d="M251.2,212.6c0,25.53-17.15,46.24-38.3,46.24s-38.3-20.71-38.3-46.24,17.15-46.24,38.3-46.24S251.2,187.06,251.2,212.6Z"/><path class="cls-6" d="M141.3,174.65a11.47,11.47,0,1,1-11.47-11.47,11.47,11.47,0,0,1,11.47,11.47"/><path class="cls-6" d="M141.3,250.55a11.47,11.47,0,1,1-11.47-11.46,11.47,11.47,0,0,1,11.47,11.46"/><path class="cls-6" d="M310.48,174.65A11.47,11.47,0,1,1,299,163.18a11.46,11.46,0,0,1,11.46,11.47"/><path class="cls-6" d="M310.48,250.55A11.47,11.47,0,1,1,299,239.09a11.46,11.46,0,0,1,11.46,11.46"/><line class="cls-7" x1="212.9" y1="186.11" x2="212.9" y2="239.09"/><path class="cls-8" d="M223.74,197.73a27.93,27.93,0,0,0-9.67-4.8c-3.47-1-7.64-1.54-10.78.63-5.29,3.65-5.84,13.31-1.64,17.93,2.2,2.41,5.51,3.2,8.63,3.43,2.79.2,5.65-.28,8.41.27,2.55.5,4.53,1.92,4.49,4.72a8.13,8.13,0,0,1-4,6.54,10,10,0,0,1-9,1,10.21,10.21,0,0,1-5.93-6.26c-1-3-5.82-1.75-4.82,1.33,2.06,6.33,8.3,11.06,15.09,10.53s13.19-5.68,13.57-12.82a9.31,9.31,0,0,0-4.3-8.43c-2.77-1.75-6.28-1.94-9.47-1.89-2.67,0-5.78.32-8.17-1.12s-2.54-4.87-2.14-7.3a5.89,5.89,0,0,1,1.73-3.65c1.19-1,3-.9,4.42-.68a24,24,0,0,1,11,4.85,2.51,2.51,0,0,0,3.42-.9,2.56,2.56,0,0,0-.89-3.42"/></g></g></g></svg>