<svg id="Layer_1" data-name="Layer 1" xmlns="http://www.w3.org/2000/svg" xmlns:xlink="http://www.w3.org/1999/xlink" width="150mm" height="150mm" viewBox="0 0 425.2 425.2"><defs><style>.cls-1{fill:none;}.cls-2{clip-path:url(#clip-path);}.cls-3{fill:#f2d2dd;}.cls-4{fill:#f6f6f6;}.cls-5{fill:#ef8095;}.cls-6{fill:#e25a9c;}</style><clipPath id="clip-path"><rect class="cls-1" x="68.81" y="70.87" width="283.46" height="283.46"/></clipPath></defs><g id="Artwork_7" data-name="Artwork 7"><g class="cls-2"><g class="cls-2"><path class="cls-3" d="M210.54,70.87A141.73,141.73,0,1,1,68.81,212.6,141.72,141.72,0,0,1,210.54,70.87"/></g><polygon class="cls-4" points="277.17 223.81 272.8 203.85 256.85 198.77 273.2 195.19 277.39 175.2 281.86 195.59 297.8 200.67 281.46 204.25 277.17 223.81"/><polygon class="cls-4" points="267.99 284.9 251.35 277.61 244.25 310.88 239.33 277.21 220.87 282.18 231.11 268.44 197.84 261.34 231.5 256.42 223.34 239.88 240.28 248.2 247.38 214.92 252.3 248.59 269.17 242.2 260.52 257.37 293.79 264.47 260.13 269.38 267.99 284.9"/><polygon class="cls-4" points="128.67 212.6 124.29 192.64 108.35 187.56 124.69 183.98 128.89 163.99 133.35 184.38 149.3 189.46 132.95 193.04 128.67 212.6"/><polygon class="cls-4" points="170.44 252.18 166.88 235.93 153.9 231.79 167.21 228.87 170.63 212.6 174.26 229.2 187.25 233.34 173.94 236.25 170.44 252.18"/><polygon class="cls-5" points="165.85 252.18 162.28 235.93 149.3 231.79 162.61 228.87 166.03 212.6 169.66 229.2 182.65 233.34 169.34 236.25 165.85 252.18"/><polygon class="cls-4" points="232.36 189.44 211.41 181.65 205.04 223.01 196.62 182.02 174.31 189.42 185.91 171.83 144.56 165.46 185.54 157.04 174.35 137.31 195.74 146.33 202.11 104.98 210.52 145.96 230.79 136.92 221.24 156.16 262.59 162.52 221.6 170.94 232.36 189.44"/><polygon class="cls-6" points="226.62 187.14 205.67 179.35 199.3 220.71 190.89 179.72 168.57 187.12 180.17 169.53 138.82 163.16 179.81 154.74 168.61 135.01 190 144.03 196.37 102.67 204.78 143.66 225.05 134.62 215.5 153.85 256.85 160.22 215.87 168.64 226.62 187.14"/><polygon class="cls-6" points="263.32 284.9 246.67 277.61 239.57 310.88 234.65 277.21 216.19 282.18 226.43 268.44 193.16 261.34 226.82 256.42 218.66 239.88 235.6 248.2 242.7 214.92 247.62 248.59 264.5 242.2 255.84 257.37 289.11 264.47 255.45 269.38 263.32 284.9"/><polygon class="cls-5" points="273.21 223.81 268.84 203.85 252.89 198.77 269.24 195.19 273.43 175.2 277.9 195.59 293.84 200.67 277.5 204.25 273.21 223.81"/><polygon class="cls-5" points="123.92 210.3 119.55 190.34 103.61 185.26 119.95 181.68 124.15 161.69 128.61 182.08 144.56 187.16 128.21 190.74 123.92 210.3"/><polygon class="cls-4" points="200.8 308.05 197.58 295.08 187.25 291.46 197.65 289.5 199.92 276.7 203.21 289.94 213.54 293.56 203.14 295.52 200.8 308.05"/><polygon class="cls-5" points="198.25 308.05 195.02 295.08 184.69 291.46 195.09 289.5 197.36 276.7 200.65 289.94 210.98 293.56 200.58 295.52 198.25 308.05"/></g></g></svg>