<svg id="Layer_1" data-name="Layer 1" xmlns="http://www.w3.org/2000/svg" xmlns:xlink="http://www.w3.org/1999/xlink" width="150mm" height="150mm" viewBox="0 0 425.2 425.2"><defs><style>.cls-1,.cls-6{fill:none;}.cls-2{clip-path:url(#clip-path);}.cls-3{fill:#f2d2dd;}.cls-4{fill:#8860a5;}.cls-5{fill:#a980b8;}.cls-6{stroke:#a980b8;stroke-miterlimit:10;stroke-width:7px;}.cls-7{fill:#6f5181;}.cls-8{fill:#f2d5e6;}.cls-9{fill:#f2c9e1;}.cls-10{fill:#c2a2cc;}</style><clipPath id="clip-path"><rect class="cls-1" x="70.87" y="70.87" width="283.46" height="283.46"/></clipPath></defs><g id="Artwork_1" data-name="Artwork 1"><g class="cls-2"><g class="cls-2"><path class="cls-3" d="M212.6,70.87A141.73,141.73,0,1,1,70.87,212.6,141.73,141.73,0,0,1,212.6,70.87"/></g></g></g><path class="cls-4" d="M291.51,299.58H133.69a6.07,6.07,0,0,1-5.91-7.47L155,176.51a6.07,6.07,0,0,1,5.91-4.69H264.08A6.08,6.08,0,0,1,270,176.5l27.43,115.6A6.08,6.08,0,0,1,291.51,299.58Z"/><path class="cls-5" d="M276.72,197.33,216.45,233.4a7.53,7.53,0,0,1-7.71,0l-58.83-34.9a12.76,12.76,0,0,1-6.08-9l-1.92-12.2a7.53,7.53,0,0,1,6.15-8.59l63.26-10.9a7.85,7.85,0,0,1,2.56,0l63,10.87a7.52,7.52,0,0,1,6.12,8.8l-2.78,14.76A7.57,7.57,0,0,1,276.72,197.33Z"/><path class="cls-6" d="M248.23,146.37c0-20.28-13.44-47.8-35.63-47.8s-35.13,27.52-35.13,47.8,12.94,37.25,35.13,37.25S248.23,166.65,248.23,146.37Z"/><rect class="cls-7" x="166.24" y="208.4" width="93.01" height="9.05"/><rect class="cls-8" x="204.11" y="210.65" width="17.48" height="4.56"/><rect class="cls-8" x="168.73" y="210.32" width="17.48" height="4.56" transform="translate(-35.13 390.07) rotate(-90)"/><rect class="cls-9" x="237.2" y="210.32" width="17.48" height="4.56" transform="translate(33.35 458.54) rotate(-90)"/><path class="cls-10" d="M173.05,161.18c.46,4.06,4.23,7.37,8.44,6.37a7.2,7.2,0,0,0,5-8.82,2.56,2.56,0,0,0-2.41-1.84,2.61,2.61,0,0,0-2.41,1.84c-2.07,5.12-3.68,10.15-3,15.74s1.69,11,2.32,16.55a264.35,264.35,0,0,1,1.64,33.16q-.12,9.52-.94,19a2.5,2.5,0,0,0,5,0,270.67,270.67,0,0,0-2.63-66.13,25,25,0,0,1-.34-8.45,45.24,45.24,0,0,1,2.81-8.57h-4.82a2.17,2.17,0,0,1-1.24,2.59,2,2,0,0,1-2.43-1.47,2.58,2.58,0,0,0-2.5-2.5,2.51,2.51,0,0,0-2.5,2.5Z"/><polygon class="cls-10" points="191.1 260.56 172.5 257.06 179.37 241.8 189.57 243.72 191.1 260.56"/></svg>