<svg id="Layer_1" data-name="Layer 1" xmlns="http://www.w3.org/2000/svg" xmlns:xlink="http://www.w3.org/1999/xlink" width="150mm" height="150mm" viewBox="0 0 425.2 425.2"><defs><style>.cls-1{fill:none;}.cls-2{clip-path:url(#clip-path);}.cls-3{fill:#f2d2dd;}.cls-4{fill:#c01732;}.cls-5{fill:#f2d5e6;}.cls-6{fill:#a2182c;}.cls-7{fill:#145935;}</style><clipPath id="clip-path"><rect class="cls-1" x="70.87" y="70.87" width="283.46" height="283.46"/></clipPath></defs><g id="Artwork_5" data-name="Artwork 5"><g class="cls-2"><g class="cls-2"><path class="cls-3" d="M212.6,70.87A141.73,141.73,0,1,1,70.87,212.6,141.73,141.73,0,0,1,212.6,70.87"/><path class="cls-4" d="M257,266.85c10.53,15.21,1,36.68-15.64,44.7a33.49,33.49,0,0,1-44.7-15.64c-8-16.66-2.18-39.77,15.64-44.7,21.61-6,34.23.52,44.7,15.64"/><path class="cls-5" d="M252.79,273.9c1.63,5.65-2.34,12.89-5.17,13.7s1.26-6.38-.37-12-9.05-11-6.23-11.85,10.15,4.53,11.77,10.18"/><path class="cls-6" d="M230.84,256.54c-3.05-1.09-5.15-4.83-4.67-6.18s2.52,2.43,5.57,3.52,7.73-.16,7.25,1.19-5.1,2.56-8.15,1.47"/><path class="cls-4" d="M191.89,232.9c7.82,16.76-5.16,36.33-22.93,41.44a33.49,33.49,0,0,1-41.44-22.93c-5.11-17.78,4.53-39.57,22.93-41.44,22.32-2.27,33.67,6.27,41.44,22.93"/><path class="cls-5" d="M186.55,239.14c.65,5.84-4.48,12.31-7.4,12.64s2.31-6.08,1.66-11.92-7.07-12.4-4.15-12.72,9.24,6.16,9.89,12"/><path class="cls-6" d="M167.82,218.34c-2.83-1.59-4.26-5.63-3.56-6.88s2.07,2.82,4.9,4.4,7.64,1.14,7,2.39-5.46,1.68-8.29.09"/><path class="cls-7" d="M251.38,144.49c-14.88,1.32-28.51,8.18-40.24,17.15a204.54,204.54,0,0,0-17.62,15.41c-5.13,4.94-10.38,9.85-15,15.25-5.05,5.88-9.39,12.59-10.78,20.33a2.58,2.58,0,0,0,1.75,3.08,2.53,2.53,0,0,0,3.08-1.75c2.37-13.16,13.42-22.59,22.53-31.45,10.32-10,21.11-19.86,34.07-26.38a62.15,62.15,0,0,1,22.24-6.64,2.57,2.57,0,0,0,2.5-2.5,2.54,2.54,0,0,0-2.51-2.5"/><path class="cls-7" d="M248.52,147.52c-11.54,7.38-15.62,21.14-17.32,34A288.3,288.3,0,0,0,229.07,226q.3,12.69,1.62,25.31a2.57,2.57,0,0,0,2.5,2.5,2.52,2.52,0,0,0,2.5-2.5,314.62,314.62,0,0,1-1.53-43.3q.36-10.82,1.47-21.57c.69-6.71,1.72-13.46,4.14-19.79,2.23-5.83,6-11.36,11.27-14.77,2.71-1.73.2-6.06-2.52-4.32"/><path class="cls-7" d="M238.72,117.63c15.61,7.41,23.61,21.64,19.33,29.05s-21.46,8.81-34.82-2.21c-14.34-11.83-20.28-25.18-19.33-29,2-8.41,18.46-5.55,34.82,2.21"/><path class="cls-7" d="M254.64,186.26c-10.57-14.07-11.2-30.61-4-35.19s23.24,2.37,30.14,18.59c7.41,17.41,6.6,32.18,4,35.19-5.7,6.53-19.07-3.85-30.14-18.59"/></g></g></g></svg>