<svg id="Layer_1" data-name="Layer 1" xmlns="http://www.w3.org/2000/svg" xmlns:xlink="http://www.w3.org/1999/xlink" width="1000mm" height="600mm" viewBox="0 0 2834.65 1700.79"><defs><style>.cls-1{fill:none;}.cls-2{fill:#d59ec7;stroke:#fff;stroke-miterlimit:10;stroke-width:20px;}.cls-3{clip-path:url(#clip-path);}.cls-4{fill:#f2d2dd;}.cls-5{fill:#f6f6f6;}.cls-6{fill:#ef8095;}.cls-7{fill:#e25a9c;}.cls-8{fill:#5f2a80;}</style><clipPath id="clip-path"><rect class="cls-1" x="943.06" y="185.58" width="966.61" height="966.61"/></clipPath></defs><rect class="cls-2" x="80.91" y="105.73" width="2681.87" height="1489.34"/><g id="Artwork_7" data-name="Artwork 7"><g class="cls-3"><g class="cls-3"><path class="cls-4" d="M1426.37,185.58c266.92,0,483.31,216.38,483.31,483.3s-216.39,483.31-483.31,483.31S943.06,935.81,943.06,668.88s216.39-483.3,483.31-483.3"/></g><polygon class="cls-5" points="1653.57 707.12 1638.66 639.05 1584.29 621.73 1640.03 609.51 1654.33 541.36 1669.56 610.88 1723.93 628.21 1668.19 640.42 1653.57 707.12"/><polygon class="cls-5" points="1622.28 915.45 1565.53 890.56 1541.31 1004.03 1524.54 889.23 1461.59 906.16 1496.51 859.3 1383.04 835.09 1497.84 818.31 1470 761.91 1527.77 790.28 1551.98 676.81 1568.75 791.61 1626.3 769.81 1596.79 821.54 1710.25 845.75 1595.45 862.53 1622.28 915.45"/><polygon class="cls-5" points="1147.17 668.88 1132.25 600.82 1077.88 583.5 1133.62 571.28 1147.92 503.13 1163.16 572.65 1217.53 589.97 1161.79 602.18 1147.17 668.88"/><polygon class="cls-5" points="1289.64 803.87 1277.49 748.44 1233.21 734.33 1278.61 724.38 1290.25 668.88 1302.66 725.5 1346.94 739.6 1301.54 749.55 1289.64 803.87"/><polygon class="cls-6" points="1273.95 803.87 1261.81 748.44 1217.53 734.33 1262.92 724.38 1274.57 668.88 1286.97 725.5 1331.25 739.6 1285.86 749.55 1273.95 803.87"/><polygon class="cls-5" points="1500.76 589.91 1429.33 563.36 1407.61 704.38 1378.91 564.62 1302.82 589.85 1342.37 529.85 1201.36 508.13 1341.12 479.43 1302.96 412.15 1375.88 442.9 1397.6 301.89 1426.3 441.64 1495.42 410.82 1462.84 476.41 1603.85 498.13 1464.09 526.83 1500.76 589.91"/><polygon class="cls-7" points="1481.2 582.06 1409.76 555.51 1388.05 696.52 1359.35 556.77 1283.25 582 1322.81 522 1181.8 500.28 1321.56 471.58 1283.39 404.3 1356.32 435.05 1378.04 294.04 1406.74 433.79 1475.85 402.97 1443.27 468.56 1584.29 490.28 1444.53 518.98 1481.2 582.06"/><polygon class="cls-7" points="1606.33 915.45 1549.58 890.56 1525.37 1004.03 1508.59 889.23 1445.64 906.16 1480.56 859.3 1367.09 835.09 1481.89 818.31 1454.05 761.91 1511.82 790.28 1536.04 676.81 1552.81 791.61 1610.35 769.81 1580.84 821.54 1694.31 845.75 1579.51 862.53 1606.33 915.45"/><polygon class="cls-6" points="1640.07 707.12 1625.16 639.05 1570.79 621.73 1626.53 609.51 1640.83 541.36 1656.06 610.88 1710.43 628.21 1654.69 640.42 1640.07 707.12"/><polygon class="cls-6" points="1131 661.03 1116.09 592.97 1061.71 575.65 1117.45 563.43 1131.76 495.28 1146.99 564.8 1201.36 582.12 1145.62 594.33 1131 661.03"/><polygon class="cls-5" points="1393.16 994.37 1382.16 950.14 1346.94 937.82 1382.41 931.13 1390.14 887.47 1401.38 932.63 1436.6 944.95 1401.12 951.65 1393.16 994.37"/><polygon class="cls-6" points="1384.44 994.37 1373.44 950.14 1338.21 937.82 1373.69 931.13 1381.42 887.47 1392.65 932.63 1427.87 944.95 1392.4 951.65 1384.44 994.37"/></g></g><path class="cls-8" d="M426.36,1357.55q-1.31,10.37-2.5,25.35t-1.57,22.38q-11.66-.36-29.05-.64t-28.3-.28q-11.85,0-30.53.37l-27.93.55c-.37,0-.71-.46-1-1.39a8.35,8.35,0,0,1-.46-2.68,8.44,8.44,0,0,1,.46-2.4c.31-1,.65-1.54,1-1.67q10.72-1.29,14.15-4.62t3.42-10.92v-81.21q0-7.59-3.42-10.92t-14.15-4.62c-.37-.13-.71-.68-1-1.67a7.22,7.22,0,0,1,0-5.08c.31-.93.65-1.39,1-1.39q8.88,0,18.22.46t17.67.46q8.5,0,17.76-.46t18.31-.46c.37,0,.71.49,1,1.48a8.81,8.81,0,0,1,.46,2.59,9.41,9.41,0,0,1-.46,2.5c-.31,1-.65,1.57-1,1.57q-10.72,1.11-14.24,4.62c-2.35,2.35-3.52,6-3.52,10.92v84q0,6.66,3.61,8.79a14.33,14.33,0,0,0,7.31,2.12h10.54q13,0,23-12.21A59.07,59.07,0,0,0,418,1355.7c0-.24.22-.43.65-.55a7.24,7.24,0,0,1,1.94-.19,11.14,11.14,0,0,1,4,.74C425.9,1356.2,426.48,1356.81,426.36,1357.55Z"/><path class="cls-8" d="M581,1362q-1.31,10.37-2.5,21.93t-1.76,21.36q-11.65-.36-29.23-.64t-28.3-.28q-10.74,0-30.53.37l-29.6.55c-.37,0-.71-.49-1-1.48a8.8,8.8,0,0,1-.47-2.59,8.52,8.52,0,0,1,.47-2.4c.3-1,.64-1.54,1-1.67q10.92-1.29,14.34-4.62t3.42-10.92v-81.21q0-7.59-3.42-10.92t-14.34-4.62c-.37-.13-.71-.68-1-1.67a8.45,8.45,0,0,1-.47-2.4,8.85,8.85,0,0,1,.47-2.59c.3-1,.64-1.48,1-1.48l28.12.55q18.31.38,30.16.37,10,0,28.3-.28t29.6-.64q-.36,7.57.28,19.61t1,21.64c0,.5-.46,1-1.39,1.58a7.4,7.4,0,0,1-3.79.83,6.06,6.06,0,0,1-2.22-.37c-.62-.25-.93-.49-.93-.74q-1.47-11.65-9.71-22.11t-23.22-10.45h-11.1a15.23,15.23,0,0,0-7.21,1.85q-3.53,1.85-3.52,9.06v38.3h6.29q9.26,0,14.9-5.55t6.56-14.62c0-.37.53-.71,1.58-1a9.7,9.7,0,0,1,2.49-.46,8.74,8.74,0,0,1,2.69.46q1.38.46,1.38,1,0,6.85-.46,12.77t-.46,12.21q0,6.46.46,12.12t.46,12.3q0,.55-1.38,1a7.25,7.25,0,0,1-5.09,0c-1-.31-1.54-.65-1.67-1q-1.11-9.63-6.19-14.89T519.78,1345h-6.29v39.41q0,6.66,3.52,8.79a13.83,13.83,0,0,0,7.21,2.12h9.62q14.07,0,25-10.17a44.53,44.53,0,0,0,13.69-25c0-.24.28-.43.83-.55a9.23,9.23,0,0,1,1.94-.19,11.14,11.14,0,0,1,4,.74C580.56,1360.64,581.14,1361.25,581,1362Z"/><path class="cls-8" d="M761.21,1280.78a15.53,15.53,0,0,1-.83,2.5c-.44,1-.84,1.57-1.21,1.57q-7.95.56-12,5t-8.33,13.51l-49,103.41a3.36,3.36,0,0,1-1.67,1,16.21,16.21,0,0,1-7.67,0,3.4,3.4,0,0,1-1.76-1l-44.22-103.41q-4.44-10.36-8-14c-2.35-2.41-6.42-3.91-12.21-4.53-.37-.13-.74-.68-1.11-1.67a7.25,7.25,0,0,1-.56-2.4,7.58,7.58,0,0,1,.56-2.59c.37-1,.74-1.48,1.11-1.48q8.88,0,17.3.46t16,.46q8.5,0,17.85-.46t18.41-.46c.37,0,.68.52.92,1.57a8.63,8.63,0,0,1,0,5c-.24,1-.55,1.57-.92,1.57q-8.14.38-11.47,2a6.23,6.23,0,0,0-3.52,5.74,10.58,10.58,0,0,0,.65,4.25c.56,1.73,1,2.9,1.2,3.52l27.45,64.91,28.61-62.5a40.17,40.17,0,0,0,1.39-4.3,19,19,0,0,0,.83-4.68c-.13-2.86-.8-5-2-6.35s-5.3-2.25-12.21-2.62c-.37-.13-.64-.68-.83-1.67a14.14,14.14,0,0,1-.28-2.4,5.82,5.82,0,0,1,.28-2.68c.31-.93.65-1.39,1-1.39a115,115,0,0,1,12,.46,110.46,110.46,0,0,0,11.66.46,97.72,97.72,0,0,0,10.36-.46,101.91,101.91,0,0,1,10.73-.46c.37,0,.71.49,1,1.48A9.15,9.15,0,0,1,761.21,1280.78Z"/><path class="cls-8" d="M908.28,1362q-1.29,10.37-2.5,21.93T904,1405.28q-11.65-.36-29.23-.64t-28.31-.28q-10.72,0-30.52.37l-29.6.55c-.37,0-.71-.49-1-1.48a8.75,8.75,0,0,1-.46-2.59,8.44,8.44,0,0,1,.46-2.4c.31-1,.65-1.54,1-1.67q10.9-1.29,14.33-4.62t3.43-10.92v-81.21q0-7.59-3.43-10.92t-14.33-4.62c-.37-.13-.71-.68-1-1.67a8.38,8.38,0,0,1-.46-2.4,8.81,8.81,0,0,1,.46-2.59c.31-1,.65-1.48,1-1.48l28.12.55q18.32.38,30.15.37,10,0,28.31-.28t29.6-.64q-.37,7.57.27,19.61t1,21.64c0,.5-.46,1-1.39,1.58a7.4,7.4,0,0,1-3.79.83,6.14,6.14,0,0,1-2.22-.37c-.62-.25-.92-.49-.92-.74a44.56,44.56,0,0,0-9.72-22.11q-8.24-10.45-23.21-10.45h-11.1a15.24,15.24,0,0,0-7.22,1.85q-3.51,1.85-3.51,9.06v38.3h6.29q9.24,0,14.89-5.55t6.57-14.62c0-.37.52-.71,1.57-1a9.76,9.76,0,0,1,2.5-.46,8.73,8.73,0,0,1,2.68.46c.92.31,1.39.65,1.39,1q0,6.85-.47,12.77t-.46,12.21q0,6.46.46,12.12t.47,12.3c0,.37-.47.71-1.39,1a7.25,7.25,0,0,1-5.09,0c-1-.31-1.54-.65-1.66-1q-1.11-9.63-6.2-14.89T847.05,1345h-6.29v39.41q0,6.66,3.51,8.79a13.83,13.83,0,0,0,7.22,2.12h9.62q14.05,0,25-10.17a44.47,44.47,0,0,0,13.69-25c0-.24.28-.43.83-.55a9.33,9.33,0,0,1,1.95-.19,11.13,11.13,0,0,1,4,.74C907.82,1360.64,908.4,1361.25,908.28,1362Z"/><path class="cls-8" d="M1066.46,1357.55q-1.31,10.37-2.5,25.35t-1.57,22.38q-11.66-.36-29.05-.64t-28.3-.28q-11.85,0-30.53.37l-27.93.55c-.37,0-.71-.46-1-1.39a8.35,8.35,0,0,1-.46-2.68,8.44,8.44,0,0,1,.46-2.4c.31-1,.65-1.54,1-1.67q10.73-1.29,14.15-4.62t3.42-10.92v-81.21q0-7.59-3.42-10.92t-14.15-4.62c-.37-.13-.71-.68-1-1.67a7.22,7.22,0,0,1,0-5.08c.31-.93.65-1.39,1-1.39q8.88,0,18.22.46t17.67.46q8.5,0,17.75-.46t18.32-.46c.37,0,.71.49,1,1.48a8.81,8.81,0,0,1,.46,2.59,9.41,9.41,0,0,1-.46,2.5c-.31,1-.65,1.57-1,1.57q-10.72,1.11-14.24,4.62c-2.35,2.35-3.52,6-3.52,10.92v84q0,6.66,3.61,8.79a14.3,14.3,0,0,0,7.31,2.12h10.54q12.94,0,23-12.21a59.08,59.08,0,0,0,12.86-27.38c0-.24.22-.43.65-.55a7.24,7.24,0,0,1,1.94-.19,11.18,11.18,0,0,1,4,.74C1066,1356.2,1066.58,1356.81,1066.46,1357.55Z"/><path class="cls-8" d="M1282.53,1360q-1.11,8.51-2.68,21.18t-2.31,19.15q-8.32,0-20.63,4a85,85,0,0,1-26.36,4q-18.87,0-33.39-5.64a71.81,71.81,0,0,1-24.15-14.89,59.51,59.51,0,0,1-14.33-21.18,67,67,0,0,1-4.72-24.89q0-26.82,21.18-47.36t56.89-20.53q15.72,0,25.9,2.77a71.45,71.45,0,0,0,18.68,2.78q.38,8.88,1.11,20t1.48,20.35c0,.37-.55.71-1.66,1a11.21,11.21,0,0,1-3,.47,7.57,7.57,0,0,1-2.13-.37,2.44,2.44,0,0,1-1.57-1.11q-2.42-13.5-13.78-25.25t-25.81-11.75q-21.84,0-30.53,16.74t-8.69,42.27q0,25,8.6,41.35t29.88,16.37q17,0,27.75-11.84a78,78,0,0,0,16.09-27.56c.13-.49.65-.86,1.58-1.11a9.08,9.08,0,0,1,2.31-.37,10.38,10.38,0,0,1,2.59.46C1282,1359.25,1282.53,1359.59,1282.53,1360Z"/><path class="cls-8" d="M1464.39,1341.64q0,27.75-19,47.18t-53.56,19.42q-34.61,0-53.65-19.52t-19.06-47.08q0-27.56,19.06-47.73t53.65-20.16q33.86,0,53.19,19.89T1464.39,1341.64Zm-38.11,0q0-25.53-7.4-42.27t-27-16.74q-19.8,0-27.11,16.92t-7.3,42.09q0,25.72,7.3,41.72t27.11,16q19.61,0,27-16.09T1426.28,1341.64Z"/><path class="cls-8" d="M1682.5,1401.21a10.66,10.66,0,0,1-.37,2.59c-.25,1-.55,1.48-.92,1.48q-9.07,0-18.5-.46t-18-.46q-8.51,0-17.48.46t-18,.46c-.37,0-.74-.46-1.11-1.39a7.14,7.14,0,0,1-.55-2.68,8.44,8.44,0,0,1,.46-2.4c.31-1,.65-1.54,1-1.67q10-1.11,13.78-4.62t3.24-10.92l-3.33-79.92-40.52,105.08c-.12.25-.74.56-1.85.93a11.64,11.64,0,0,1-3.7.55,10.32,10.32,0,0,1-3.88-.55,5.89,5.89,0,0,1-1.67-.93l-40.88-101-4.63,75.85q-.55,7.59,3.24,11t14.52,4.53c.37,0,.65.53.83,1.58a14.63,14.63,0,0,1,.28,2.49,7.14,7.14,0,0,1-.55,2.68c-.37.93-.74,1.39-1.11,1.39q-7,0-12.86-.46t-12.3-.46q-6.66,0-12.4.46t-12,.46c-.37,0-.68-.52-.93-1.57a11.37,11.37,0,0,1-.37-2.5,5.8,5.8,0,0,1,.65-2.59c.43-.86.83-1.35,1.2-1.48q10.92-1.29,15.08-4.53t4.9-11l7.59-81.21q.54-7.77-3.34-11t-14.61-4.53c-.37-.13-.68-.68-.92-1.67a10.18,10.18,0,0,1-.37-2.4,6.32,6.32,0,0,1,.64-2.68c.43-.93.84-1.39,1.21-1.39q4.62,0,12.38.46t11.81.46q5.14,0,13.7-.46t14.44-.46l33.86,83.66,32.39-83.66q7,0,14.52.46t12.31.46q5.55,0,13.13-.46t13.14-.46c.37,0,.7.49,1,1.48a8.85,8.85,0,0,1,.47,2.59,12.1,12.1,0,0,1-.37,2.5c-.25,1-.56,1.57-.93,1.57q-10.17,1.11-13.78,4.62c-2.41,2.35-3.49,6-3.24,10.92l3.89,81.21q.36,7.41,3.79,10.92t14.52,4.62c.37,0,.71.53,1,1.58A9.28,9.28,0,0,1,1682.5,1401.21Z"/><path class="cls-8" d="M1837.53,1316.85q0,18-14.89,28.4T1782,1355.7a55.58,55.58,0,0,1-6.75-.37,53.93,53.93,0,0,1-6.2-1.11v27.38q0,7.41,3.51,10.92t14.25,4.62c.37,0,.71.53,1,1.58a9.7,9.7,0,0,1,.46,2.49,9.09,9.09,0,0,1-.46,2.59c-.31,1-.65,1.48-1,1.48q-9.06,0-18.32-.46t-17.76-.46q-8.51,0-17.66.46t-18.23.46c-.37,0-.71-.46-1-1.39a8.37,8.37,0,0,1-.47-2.68,8.52,8.52,0,0,1,.47-2.4c.3-1,.64-1.54,1-1.67q10.74-1.29,14.16-4.62t3.42-10.92v-84.17q0-6.11-3.61-8.79t-14-3.79c-.37-.13-.71-.68-1-1.67a7.08,7.08,0,0,1,0-5.08c.3-.93.64-1.39,1-1.39q9.08,0,19,.46t18.4.46q8.52,0,14.8-.46c4.2-.31,9.31-.46,15.36-.46q29.24,0,42.18,10.73T1837.53,1316.85Zm-38.11-2.59q0-16.1-5-22.29t-14.24-6.2q-5.92,0-8.51,2.78t-2.59,8.88V1340q0,4.24,3.79,5.45a20.9,20.9,0,0,0,5.27,1.21q10.92,0,16.1-8.14T1799.42,1314.26Z"/><path class="cls-8" d="M1991.45,1357.55q-1.31,10.37-2.5,25.35t-1.57,22.38q-11.66-.36-29.05-.64t-28.3-.28q-11.85,0-30.53.37l-27.93.55c-.37,0-.71-.46-1-1.39a8.35,8.35,0,0,1-.46-2.68,8.44,8.44,0,0,1,.46-2.4c.31-1,.65-1.54,1-1.67q10.73-1.29,14.15-4.62t3.42-10.92v-81.21q0-7.59-3.42-10.92t-14.15-4.62c-.37-.13-.71-.68-1-1.67a7.22,7.22,0,0,1,0-5.08c.31-.93.65-1.39,1-1.39q8.88,0,18.22.46t17.67.46q8.51,0,17.76-.46t18.31-.46c.37,0,.71.49,1,1.48a8.81,8.81,0,0,1,.46,2.59,9.41,9.41,0,0,1-.46,2.5c-.31,1-.65,1.57-1,1.57q-10.72,1.11-14.24,4.62c-2.35,2.35-3.52,6-3.52,10.92v84q0,6.66,3.61,8.79a14.33,14.33,0,0,0,7.31,2.12h10.54q13,0,23-12.21a59.07,59.07,0,0,0,12.85-27.38c0-.24.22-.43.65-.55a7.24,7.24,0,0,1,1.94-.19,11.14,11.14,0,0,1,4,.74C1991,1356.2,1991.57,1356.81,1991.45,1357.55Z"/><path class="cls-8" d="M2146.11,1362q-1.31,10.37-2.5,21.93t-1.76,21.36q-11.66-.36-29.23-.64t-28.3-.28q-10.74,0-30.53.37l-29.6.55c-.37,0-.71-.49-1-1.48a8.8,8.8,0,0,1-.47-2.59,8.52,8.52,0,0,1,.47-2.4c.3-1,.64-1.54,1-1.67q10.92-1.29,14.34-4.62t3.42-10.92v-81.21q0-7.59-3.42-10.92t-14.34-4.62c-.37-.13-.71-.68-1-1.67a8.45,8.45,0,0,1-.47-2.4,8.85,8.85,0,0,1,.47-2.59c.3-1,.64-1.48,1-1.48l28.12.55q18.32.38,30.16.37,10,0,28.3-.28t29.6-.64q-.36,7.57.28,19.61t1,21.64c0,.5-.46,1-1.39,1.58a7.4,7.4,0,0,1-3.79.83,6.06,6.06,0,0,1-2.22-.37c-.62-.25-.93-.49-.93-.74q-1.47-11.65-9.71-22.11t-23.22-10.45h-11.1a15.23,15.23,0,0,0-7.21,1.85q-3.53,1.85-3.52,9.06v38.3h6.29q9.26,0,14.9-5.55t6.56-14.62c0-.37.53-.71,1.58-1a9.7,9.7,0,0,1,2.49-.46,8.74,8.74,0,0,1,2.69.46q1.38.46,1.38,1,0,6.85-.46,12.77t-.46,12.21q0,6.46.46,12.12t.46,12.3q0,.55-1.38,1a7.25,7.25,0,0,1-5.09,0c-1-.31-1.54-.65-1.67-1q-1.11-9.63-6.19-14.89t-15.27-5.28h-6.29v39.41q0,6.66,3.52,8.79a13.83,13.83,0,0,0,7.21,2.12h9.62q14.07,0,25-10.17a44.53,44.53,0,0,0,13.69-25c0-.24.28-.43.83-.55a9.23,9.23,0,0,1,1.94-.19,11.14,11.14,0,0,1,4,.74C2145.65,1360.64,2146.23,1361.25,2146.11,1362Z"/><path class="cls-8" d="M2315.38,1320c0,.61-.46,1.17-1.38,1.66a6.74,6.74,0,0,1-3.24.74,10.67,10.67,0,0,1-2-.27c-.86-.19-1.35-.41-1.48-.65q-2.58-10.18-12.3-22.48t-18.22-12.3h-2.78c-2.83,0-4.87.58-6.1,1.76s-1.85,3-1.85,5.45v87.69q0,7.41,3.51,10.92t14.25,4.62c.37,0,.71.53,1,1.58a9.7,9.7,0,0,1,.46,2.49,9.09,9.09,0,0,1-.46,2.59c-.31,1-.65,1.48-1,1.48q-8.88,0-18.22-.46t-17.67-.46q-8.52,0-17.76.46t-18.32.46c-.37,0-.71-.49-1-1.48a8.8,8.8,0,0,1-.47-2.59,8.52,8.52,0,0,1,.47-2.4c.3-1,.64-1.54,1-1.67q10.92-1.29,14.34-4.62t3.42-10.92v-87.69q0-4.07-1.66-5.64t-6.29-1.57h-1.48q-7.59,0-18.69,11.38t-15.72,23.4c-.13.37-.59.62-1.39.74a13.73,13.73,0,0,1-1.94.18,7.44,7.44,0,0,1-3.24-.74c-1.05-.49-1.57-1.05-1.57-1.66q1.84-9.26,4-22.66t3.05-22.3a192.37,192.37,0,0,0,20.16,1.85q13.7.75,43.11.74,25.16,0,41.9-.74t22.11-1.85q.55,8.88,1.48,21.09T2315.38,1320Z"/><path class="cls-8" d="M2468,1362q-1.31,10.37-2.5,21.93t-1.76,21.36q-11.65-.36-29.23-.64t-28.3-.28q-10.74,0-30.53.37l-29.6.55c-.37,0-.71-.49-1-1.48a8.75,8.75,0,0,1-.46-2.59,8.44,8.44,0,0,1,.46-2.4c.31-1,.65-1.54,1-1.67q10.92-1.29,14.34-4.62t3.42-10.92v-81.21q0-7.59-3.42-10.92t-14.34-4.62c-.37-.13-.71-.68-1-1.67a8.38,8.38,0,0,1-.46-2.4,8.81,8.81,0,0,1,.46-2.59c.31-1,.65-1.48,1-1.48l28.12.55q18.32.38,30.16.37,10,0,28.3-.28t29.6-.64q-.37,7.57.28,19.61t1,21.64c0,.5-.47,1-1.39,1.58a7.42,7.42,0,0,1-3.79.83,6.06,6.06,0,0,1-2.22-.37c-.62-.25-.93-.49-.93-.74a44.55,44.55,0,0,0-9.71-22.11q-8.24-10.45-23.22-10.45h-11.1a15.2,15.2,0,0,0-7.21,1.85q-3.52,1.85-3.52,9.06v38.3h6.29q9.26,0,14.89-5.55t6.57-14.62c0-.37.53-.71,1.57-1a9.76,9.76,0,0,1,2.5-.46,8.68,8.68,0,0,1,2.68.46c.93.31,1.39.65,1.39,1q0,6.85-.46,12.77t-.46,12.21q0,6.46.46,12.12t.46,12.3c0,.37-.46.71-1.39,1a7.22,7.22,0,0,1-5.08,0c-1-.31-1.55-.65-1.67-1q-1.11-9.63-6.2-14.89t-15.26-5.28h-6.29v39.41q0,6.66,3.52,8.79a13.8,13.8,0,0,0,7.21,2.12h9.62q14.05,0,25-10.17a44.53,44.53,0,0,0,13.69-25c0-.24.27-.43.83-.55a9.16,9.16,0,0,1,1.94-.19,11.18,11.18,0,0,1,4,.74C2467.54,1360.64,2468.13,1361.25,2468,1362Z"/><path class="cls-8" d="M2545.52,1291.14l-14.24,72.15c0,.86-.53,1.48-1.58,1.85a8.61,8.61,0,0,1-2.86.55,9.77,9.77,0,0,1-3-.46,2.21,2.21,0,0,1-1.67-1.94l-14.06-72.15q-1.29-5.75,3.15-11.56t15.54-5.83q10.54,0,15.17,5.92T2545.52,1291.14ZM2542,1392.89a15.17,15.17,0,0,1-30.34,0,14.83,14.83,0,0,1,15.17-15.17,15.49,15.49,0,0,1,15.17,15.17Z"/></svg>