<svg id="Layer_1" data-name="Layer 1" xmlns="http://www.w3.org/2000/svg" xmlns:xlink="http://www.w3.org/1999/xlink" width="371.63mm" height="675.11mm" viewBox="0 0 1053.43 1913.69"><defs><style>.cls-1,.cls-10{fill:none;}.cls-2{clip-path:url(#clip-path);}.cls-3{clip-path:url(#clip-path-2);}.cls-4{fill:#f1e204;}.cls-5{fill:#e1c19e;}.cls-6{fill:#eccaa5;}.cls-7{fill:#e25a9c;}.cls-8{fill:#ddbe9b;}.cls-9{fill:#ef8095;}.cls-10{stroke:#ef8095;stroke-linecap:round;stroke-linejoin:round;}.cls-11{fill:#6495bf;}.cls-12{fill:#d98faa;}.cls-13{fill:#c54191;}.cls-14{fill:#5c88ae;}.cls-15{fill:#fff;}.cls-16{fill:#a980b8;}.cls-17{fill:#1d1d1b;}.cls-18{fill:#f2d5e6;}.cls-19{fill:#001400;}.cls-20{fill:#efe88c;}.cls-21{fill:#f2c9e1;}.cls-22{fill:#d96b94;}.cls-23{fill:#b3b3b3;}.cls-24{fill:#808081;}.cls-25{clip-path:url(#clip-path-4);}.cls-26{fill:#eb92a7;}</style><clipPath id="clip-path"><rect class="cls-1" x="26.56" y="88.94" width="1000.32" height="1782.6"/></clipPath><clipPath id="clip-path-2"><rect class="cls-1" x="26.56" y="88.94" width="1000.32" height="1782.6"/></clipPath><clipPath id="clip-path-4"><rect class="cls-1" x="887.83" y="343.41" width="129.51" height="118.98" transform="translate(315.72 1217.86) rotate(-74.92)"/></clipPath></defs><g id="Artwork_21" data-name="Artwork 21"><g class="cls-2"><g class="cls-3"><path class="cls-4" d="M238.37,129.91H427.79a69,69,0,0,1,67.78,56L633.36,900.61a1.51,1.51,0,0,1-.17,1c-52.49,92.27-44.88,57.83-69.49,70.32-.47.24-29.75-36-29.75-35.51v22.66c0,28.73,16.53,92.18-31.32,74.43-54.46-20.21-342.36-23.52-376.34-4.45-18.81,10.56-37.54-13.49-34.49-60.36C89.48,940.38,64,947.76,63.38,948c-62.24,22.16-27.95-67.85-22.59-95.41L170.62,185.75a69,69,0,0,1,67.75-55.84"/><path class="cls-5" d="M348.14,672.41H311.8a21.25,21.25,0,0,1-21.24-21.25l6.06-52.73c0-11.73,3.45-15.18,15.18-15.18h36.34c11.73,0,13.19,1.46,13.19,13.2l8.06,54.71a21.26,21.26,0,0,1-21.25,21.25"/><path class="cls-6" d="M248.53,573.06l-3.17-2.48c-1.39-1.09-2.84-2.09-4.32-3.06-29.63-19.49-43.86-49.21-58.58-81.9-10.94-24.3-8.84-48.91-10.83-69-.64-6.39-1.21-13.44,0-19.74l17-144.33c7.82-57.08,24.92-146.31,82.54-146.31H403.68c57.66,0,72.25,88.1,79.24,146.15.18,1.48.29,3,.35,4.45l6.94,171.74c.05,1.31.16,2.62.3,3.93,2.9,27.71-4.74,45.72-15.1,72.75-2.52,6.59,4.44-8.68,0,0l-.88,1.91a180.48,180.48,0,0,1-33.23,49.12l-.15.15c-3.38,4.08-13,10-17.4,13-9.49,6.45-31,20.77-34.87,22.86-53.31,28.7-78.72,29.94-125-9a98.94,98.94,0,0,0-9.61-6.22,57.39,57.39,0,0,1-5.78-4"/><path class="cls-4" d="M460.1,107.14C495.05,131.69,501.84,210,488,238.06c-21.93,44.56-118.65-80.95-110.62-21.38C383,258,310.48,113.89,337.29,98.93c25.17-14.05,89.78-15,122.81,8.21"/><path class="cls-4" d="M239.59,97.86c-37,8.36-75.12,74-59.22,95.62s86.23,5.15,116.81-17.34,50.6-67.93,26.56-79.87c-22.58-11.21-47.13-6.78-84.15,1.59"/><path class="cls-6" d="M437.81,1175.44H231a33.55,33.55,0,0,1-33.55-33.55V692A33.55,33.55,0,0,1,231,658.42H437.81A33.55,33.55,0,0,1,471.36,692v449.93a33.55,33.55,0,0,1-33.55,33.55"/><path class="cls-6" d="M349.12,1774.36l-27.32.25c-18.53,0-47.83-2.72-47.83-24.35l-58.45-581c0-21.63,56.51-26.88,75-26.88h78.83c18.52,0,76.4,0,85.25,31l-59,583.1c0,21.62-28,17.85-46.5,17.85"/><path class="cls-7" d="M465.43,962.57H199.66a5.51,5.51,0,0,1-5.48-6c1.09-11.1,3.24-34.9,3.24-48.76V692A33.54,33.54,0,0,1,231,658.42H437.81A33.55,33.55,0,0,1,471.36,692V956.65a5.93,5.93,0,0,1-5.93,5.92"/><line class="cls-6" x1="332.76" y1="1276.06" x2="335.08" y2="1774.49"/><rect class="cls-5" x="330.42" y="1276.05" width="7" height="498.44" transform="translate(-7.11 1.57) rotate(-0.27)"/><path class="cls-8" d="M338.43,1006.78c0,6.26-2.54,11.34-5.67,11.34s-5.67-5.08-5.67-11.34,2.54-11.34,5.67-11.34,5.67,5.08,5.67,11.34"/><path class="cls-9" d="M242.94,1073.65l-46.87-53.34a3.09,3.09,0,1,1,4.64-4.08l46.88,53.33a3.1,3.1,0,1,1-4.65,4.09"/><path class="cls-10" d="M242.94,1073.65l-46.87-53.34a3.09,3.09,0,1,1,4.64-4.08l46.88,53.33a3.1,3.1,0,1,1-4.65,4.09Z"/><path class="cls-9" d="M425.83,1076.38,472.7,1023a3.09,3.09,0,1,0-4.64-4.08l-46.88,53.34a3.09,3.09,0,1,0,4.65,4.08"/><path class="cls-10" d="M425.83,1076.38,472.7,1023a3.09,3.09,0,1,0-4.64-4.08l-46.88,53.34a3.09,3.09,0,1,0,4.65,4.08Z"/><polygon class="cls-11" points="486.6 1276.06 180.82 1276.06 197.42 1072.75 471.36 1072.75 486.6 1276.06"/><path class="cls-6" d="M178,926.15c0,113.14,14.9,204.86-14.81,204.86s-53.8-91.72-53.8-204.86,27.29-218.28,53.8-204.87C222.77,751.41,178,813,178,926.15"/><path class="cls-7" d="M132.16,758c-23.54-17.12-4.31-28.25,14.24-53.75s71.48-58.15,95-41-18.59,98.56-37.14,124.06S155.69,775.09,132.16,758"/><path class="cls-6" d="M671.52,723.39c111.61-18.56,199.65-48.3,204.52-19s-81.65,68.11-193.26,86.67S463,800,471.87,771.62c19.95-63.69,88-29.67,199.65-48.23"/><path class="cls-7" d="M532.36,744.16c20.85-20.31.22-28.58-21.78-51.17s-79.05-47.35-99.9-27,32.47,94.89,54.47,117.48,46.36-19,67.21-39.27"/><rect class="cls-12" x="773.37" y="673.42" width="44.02" height="97.22" transform="translate(-201.09 320.76) rotate(-20.3)"/><path class="cls-12" d="M193.27,1186.45c10.37,15.79,26.28,23.66,35.54,17.58s8.35-23.81-2-39.6-26.29-23.66-35.54-17.58-8.35,23.81,2,39.6"/><path class="cls-5" d="M369.38,656.1H290.55c0,9,17.65,16.31,39.42,16.31s39.41-7.3,39.41-16.31"/><path class="cls-13" d="M497.29,1859.29c12.62,18.37-84.89-2.26-122.6-27.44s-58.23-60.63-45.85-79.17,57.08-18.38,90.69,12c40,36.2,49.74,53.78,77.76,94.56"/><path class="cls-13" d="M162.92,1859.29c-12.62,18.37,84.89-2.26,122.59-27.44s58.24-60.63,45.86-79.17-57.08-18.38-90.69,12c-40,36.2-49.74,53.78-77.76,94.56"/><polygon class="cls-13" points="395.62 1756.51 273.97 1750.26 263.71 1648.28 409.02 1648.28 395.62 1756.51"/><polygon class="cls-13" points="309.44 1866.32 286.18 1771.56 334.05 1769.39 309.44 1866.32"/><polygon class="cls-13" points="350.35 1871.54 327.09 1776.79 374.95 1774.61 350.35 1871.54"/><line class="cls-7" x1="336.96" y1="1648.35" x2="330.88" y2="1790.9"/><polygon class="cls-7" points="327.39 1790.68 333.46 1648.13 340.45 1648.57 334.38 1791.12 327.39 1790.68"/><path class="cls-5" d="M387,1442.74c1.05-5.52,6.5-2.76,9.79,7.29,5.2,15.86,1.23,25.69-2.46,26.9-4.46,1.46-11.17-9-5.36-17.47,2.57-3.76-2.83-12.18-2-16.72"/><path class="cls-5" d="M293.29,1443.2c-1-5.52-6.5-2.76-9.79,7.29-5.2,15.86-1.22,25.69,2.47,26.9,4.46,1.46,11.16-9,5.35-17.47-2.57-3.76,2.83-12.18,2-16.72"/><polygon class="cls-14" points="476.22 1137.68 390.64 1073.05 469.97 1072.75 476.22 1137.68"/><polygon class="cls-14" points="192.05 1139.46 276.02 1072.75 196.7 1074.39 192.05 1139.46"/><path class="cls-12" d="M141.55,1256.08c-31.59-7.48-72.13-45.43-56.33-112,14.12-59.52,30.7-80.85,63.15-81.66,67-1.67,57.54,80,56.19,141.15s-27.93,60.84-63,52.53"/><rect class="cls-12" x="99.53" y="1056.64" width="97.22" height="44.02" transform="translate(-22.36 3.31) rotate(-1.19)"/><path class="cls-14" d="M320.91,1094.49a11.85,11.85,0,1,1,11.85,11.85,11.85,11.85,0,0,1-11.85-11.85"/><path class="cls-15" d="M190,379.67A63.62,63.62,0,0,1,205.29,291c28.71-20.27,85.29-24.82,105.55,3.89S307.38,374.69,278.68,395A63.63,63.63,0,0,1,190,379.67"/><path class="cls-15" d="M486.34,363.6a63.63,63.63,0,0,1-79.43,42.28C373.3,395.62,335,353.7,345.29,320.09s65.16-46.17,98.77-35.91a63.63,63.63,0,0,1,42.28,79.42"/><path class="cls-16" d="M345.29,320.09s27.44,17.31,71.07,9.87c45.08-7.68,72.89,4.53,72.89,4.53,1.13-38.82-37.77-59.9-72.61-59.9-35.95,0-76.52,3.28-71.35,45.5"/><path class="cls-16" d="M185.45,313.77s31.25-8.58,65.35-8.58,66.11,3.08,66.11,3.08c1.5-21-38.18-38.93-66.09-33.68-27.22,5.12-56.66,12.68-65.37,39.18"/><path class="cls-17" d="M345.29,320.09s27.44,17.31,71.07,9.87c45.08-7.68,72.89,4.53,72.89,4.53-18-26.83-63.25-8.38-98.09-8.38-36,0-50.61-27.42-45.87-6"/><path class="cls-17" d="M185.45,313.77s31.25-8.58,65.35-8.58,66.11,3.08,66.11,3.08c0-10.66-37.92-8.71-68.52-7.79-27.7.83-58.91,0-62.94,13.29"/></g><path class="cls-18" d="M224.54,732.89h38.32V743H250v30.72H237.4V743H224.54Z"/><path class="cls-18" d="M268.62,732.89h12.61v14.28H295V732.89h12.66v40.8H295v-16.5H281.23v16.5H268.62Z"/><path class="cls-18" d="M341.13,767H326.82l-2,6.73H312l15.33-40.8h13.76l15.33,40.8H343.17Zm-2.61-8.82L334,743.47l-4.45,14.67Z"/><path class="cls-18" d="M353.64,732.89H392V743H379.11v30.72H366.5V743H353.64Z"/><path class="cls-18" d="M395.47,760.19l12-.75a9.15,9.15,0,0,0,1.59,4.46,6.64,6.64,0,0,0,5.56,2.47,6.17,6.17,0,0,0,4.16-1.26,3.79,3.79,0,0,0,1.46-2.94,3.74,3.74,0,0,0-1.39-2.84q-1.39-1.25-6.45-2.36-8.29-1.87-11.83-5a9.94,9.94,0,0,1-3.57-7.87,10.7,10.7,0,0,1,1.83-5.95,12,12,0,0,1,5.48-4.39,25.52,25.52,0,0,1,10-1.6q7.83,0,11.93,2.9t4.88,9.26l-11.88.69a5.57,5.57,0,0,0-6.18-5.26,5,5,0,0,0-3.31.94,2.85,2.85,0,0,0-1.12,2.26,2.29,2.29,0,0,0,.92,1.76q.9.81,4.23,1.5c5.52,1.19,9.46,2.39,11.85,3.61a12.38,12.38,0,0,1,5.2,4.52,11.42,11.42,0,0,1,1.63,6,12.89,12.89,0,0,1-2.17,7.23,13.59,13.59,0,0,1-6.07,5,24.53,24.53,0,0,1-9.82,1.71q-10.41,0-14.42-4A15.86,15.86,0,0,1,395.47,760.19Z"/><path class="cls-18" d="M265.82,801.29h12.61v14.28h13.78V801.29h12.66v40.8H292.21v-16.5H278.43v16.5H265.82Z"/><path class="cls-18" d="M311.66,821.72q0-10,5.57-15.56t15.5-5.56q10.18,0,15.7,5.46t5.51,15.33a25.16,25.16,0,0,1-2.41,11.73,17.23,17.23,0,0,1-7,7.12,22.92,22.92,0,0,1-11.34,2.55,26.08,26.08,0,0,1-11.43-2.2,17.25,17.25,0,0,1-7.33-7A23.12,23.12,0,0,1,311.66,821.72Zm12.61.06q0,6.16,2.29,8.87a8.7,8.7,0,0,0,12.54.06c1.49-1.76,2.23-4.93,2.23-9.49q0-5.76-2.33-8.42a7.94,7.94,0,0,0-6.3-2.66,7.66,7.66,0,0,0-6.12,2.7Q324.27,815.54,324.27,821.78Z"/><path class="cls-18" d="M356.44,801.29h38.32v10.08H381.9v30.72H369.29V811.37H356.44Z"/><path class="cls-18" d="M399.74,801.29h12.11v9.3l-2.34,18.67H402l-2.28-18.67Zm.42,30.81h11.3v10h-11.3Z"/><g class="cls-3"><path class="cls-17" d="M495.52,308.66,485.3,330.33,476.69,324l17.55-16.32a.81.81,0,0,1,1.28.94"/><path class="cls-17" d="M479.78,307.93,477,325.33l-8.14-3.09,9.45-14.87a.81.81,0,0,1,1.48.56"/><path class="cls-17" d="M466.82,304.93l2.52,17.44-8.69-.52,4.59-17a.81.81,0,0,1,1.58.09"/><path class="cls-17" d="M457.89,308.38l2.53,17.44-8.69-.52,4.59-17a.8.8,0,0,1,1.57.09"/><path class="cls-17" d="M178.74,290.79l10.4,21.59L197.7,306,180,289.85a.8.8,0,0,0-1.27.94"/><path class="cls-17" d="M194.47,289.93l2.94,17.37,8.11-3.15L196,289.36a.81.81,0,0,0-1.48.57"/><path class="cls-17" d="M207.41,286.82,205,304.27l8.67-.59-4.73-17a.8.8,0,0,0-1.57.11"/><path class="cls-17" d="M216.36,290.19,214,307.65l8.68-.6-4.74-17a.8.8,0,0,0-1.57.11"/><path class="cls-19" d="M267.68,334.49a9.75,9.75,0,1,1,9.75,9.74,9.74,9.74,0,0,1-9.75-9.74"/><path class="cls-19" d="M369.39,350.34a9.75,9.75,0,1,1,9.74,9.75,9.74,9.74,0,0,1-9.74-9.75"/><path class="cls-20" d="M462.84,270.31c0,2.84-23.11-17.08-49.18-17.08s-51.74,6.79-51.74,4c0-13,25.66-13,51.74-13s49.18,23.33,49.18,26.17"/><path class="cls-5" d="M341.14,249.18c2,11.77,4,23.66,3.5,35.66-.52,11.71-4.25,22.79-7.21,34a186.51,186.51,0,0,0,2.8,104.41c1,3.05,5.81,1.74,4.82-1.33a182.2,182.2,0,0,1-8.44-66.52,178,178,0,0,1,5.05-32.94c2.85-11.37,6.75-22.49,7.76-34.24,1.16-13.55-1.19-27.09-3.46-40.4a2.5,2.5,0,1,0-4.82,1.33"/><path class="cls-5" d="M354.12,416.3q.86,5.24,1.69,10.47l.81,5a14.76,14.76,0,0,1,.32,2.17c0,.12-.06.5-.05.44.07-.28-.08,0-.08,0a16.25,16.25,0,0,1-2.2.3,18.64,18.64,0,0,0-3.73.21c-2.6.54-5.18,2.49-5,5.4a2.56,2.56,0,0,0,2.5,2.5,2.52,2.52,0,0,0,2.5-2.5c0-.46-.06-.23-.1,0s.18-.11,0,0a5.6,5.6,0,0,1,1.07-.44,14.36,14.36,0,0,1,3-.1c2.75-.07,5.74-.94,6.72-3.81.56-1.62.13-3.33-.13-5s-.57-3.49-.85-5.23q-.85-5.35-1.73-10.71a2.51,2.51,0,0,0-3.07-1.74,2.56,2.56,0,0,0-1.75,3.07"/><path class="cls-5" d="M333.47,442.38H322.19a2.5,2.5,0,1,0,0,5h11.28a2.5,2.5,0,0,0,0-5"/><path class="cls-5" d="M316.78,441.5q0-3.3-.1-6.6a2.48,2.48,0,0,0-1.23-2.16c-2.36-1.19-4.31-.36-6.6.44a2.85,2.85,0,0,1-3.59-1.09c-2.67-3.26-.21-7.92,1.48-11.21,1.46-2.86-2.85-5.4-4.32-2.53-2.46,4.82-5,10.78-1.75,15.88a8.74,8.74,0,0,0,6.05,4.15,7.77,7.77,0,0,0,3.78-.5c.54-.2,1.07-.43,1.62-.61l.58-.19c.1,0,.41.07.22,0-.41-.72-.82-1.44-1.24-2.16q.06,3.3.1,6.6c.05,3.21,5.05,3.22,5,0"/><path class="cls-18" d="M274.81,510.55s29.31-6.17,50.61-5.21c22.87,1,55.43,8.81,55.43,8.81s-35.62,26.53-58.13,24.71c-20.11-1.63-47.91-28.31-47.91-28.31"/><path class="cls-18" d="M278.79,514.38l44.95,9.21a2.56,2.56,0,0,0,3.07-1.75,2.53,2.53,0,0,0-1.75-3.08l-44.94-9.2a2.57,2.57,0,0,0-3.08,1.75,2.52,2.52,0,0,0,1.75,3.07"/><path class="cls-18" d="M278.72,514.22c12.65,1.93,24.07,9.17,37.11,9,3.21,0,3.22-5,0-5-12.51.13-23.61-7-35.78-8.86a2.57,2.57,0,0,0-3.08,1.74,2.52,2.52,0,0,0,1.75,3.08"/><path class="cls-18" d="M293.73,507.36s17-5.59,22.64-5.69c6.11-.1,13.05,5.33,13.05,5.33s-7.21,5.11-13.23,5c-5.38-.13-22.46-4.61-22.46-4.61"/><path class="cls-18" d="M325.93,505.12s7.26-4.18,12.89-3.42c6.06.82,20.68,8,20.68,8s-16.48,3.19-22.41,2.13c-5.3-.93-11.16-6.73-11.16-6.73"/><path class="cls-21" d="M281.66,514.25c24.86,1,49.72,2.15,74.59,3a151.81,151.81,0,0,0,20.79-.49c1.27-.14,4.11-1.74,3.8-2.59-.37-1-3.79-1.06-5.06-.92a135.56,135.56,0,0,1-17.69.42c-6.16-.17-12.35-1.37-18.47-.71-12,1.28-24.13,2-37.14-1.49-6.7-1.83-19.25-.93-26.19-1.21-3-.13,2.34,3.89,5.37,4"/><path class="cls-15" d="M358.33,522.09c-11.6,10.42-22.11,10-24.88,6.95"/><path class="cls-6" d="M159.53,386.85c-8.81.17-17.76-18.94-18.09-35.39-.36-17.68,9.11-37.94,18.09-37.78s17.4,20.88,16.9,38.31c-.44,15.57-8.15,34.7-16.9,34.86"/><path class="cls-6" d="M506.62,412.88c-8.82.17-17.76-18.94-18.09-35.4-.36-17.67,9.1-37.93,18.09-37.77S524,360.59,523.52,378c-.44,15.58-8.15,34.71-16.9,34.87"/><path class="cls-20" d="M192.82,270.31c0,2.84,23.1-17.08,49.18-17.08s51.73,6.79,51.73,4c0-13-25.65-13-51.73-13s-49.18,23.33-49.18,26.17"/><path class="cls-4" d="M210.7,220.27c0,22.43,20.18,87.86-13.79,47.62-7.86-9.31-12.83-25.19-12.83-47.62S196,179.66,210.7,179.66s0,18.18,0,40.61"/><path class="cls-22" d="M512.73,406.28c0,5.7-3,10.32-6.66,10.32s-6.67-4.62-6.67-10.32,3-10.31,6.67-10.31,6.66,4.62,6.66,10.31"/><path class="cls-22" d="M165.12,386.54c0,5.7-3,10.32-6.67,10.32s-6.66-4.62-6.66-10.32,3-10.31,6.66-10.31,6.67,4.62,6.67,10.31"/><path class="cls-23" d="M854.15,791.88h0a15.88,15.88,0,0,1-11.21-19.47l51.55-191.33a15.89,15.89,0,0,1,30.69,8.27L873.62,780.68a15.88,15.88,0,0,1-19.47,11.2"/><path class="cls-5" d="M380.87,497.74c12.95,5.61,14.64,19,12,25"/><path class="cls-12" d="M965.19,670.17c3.27,32.3-19.31,83-87.41,89.9-60.86,6.14-86.45-2.54-97.83-32.94-23.52-62.78,56.75-80.55,115-99.3s66.64,6.47,70.27,42.34"/><path class="cls-12" d="M887.16,635.91c6-20.15,1.32-39.37-10.54-42.92s-26.37,9.91-32.41,30.06S842.9,662.43,854.76,666s26.37-9.91,32.4-30.07"/><path class="cls-24" d="M911.9,567.94a171,171,0,0,1-11.06-45.32A173.6,173.6,0,0,1,902.32,476a171.09,171.09,0,0,1,6.49-25.79c1-3.05-3.8-4.37-4.82-1.33a175.54,175.54,0,0,0-8.83,46.95,178.45,178.45,0,0,0,4,47.62,171.41,171.41,0,0,0,7.91,25.85,2.58,2.58,0,0,0,3.08,1.74,2.51,2.51,0,0,0,1.74-3.07"/><path class="cls-24" d="M921.09,573c12.27-10.64,24.57-21.41,34.94-34,10.22-12.4,18.53-26.6,22.25-42.35a71.82,71.82,0,0,0,1.32-26.81,2.5,2.5,0,0,0-4.82,1.33c2.15,15-1.77,30.41-8.62,43.75-7.12,13.9-17.45,25.75-28.63,36.53-6.45,6.22-13.21,12.11-20,18a2.5,2.5,0,0,0,3.53,3.54"/><path class="cls-24" d="M916.81,570.28c-2.25-28.95-4.55-58.58,1.15-87.29a141.35,141.35,0,0,1,6.71-23.36,2.5,2.5,0,1,0-4.82-1.33c-10.64,27.61-11.33,57.74-9.77,86.93.45,8.36,1.08,16.71,1.73,25a2.55,2.55,0,0,0,2.5,2.5,2.52,2.52,0,0,0,2.5-2.5"/><path class="cls-24" d="M918,572.22a142.59,142.59,0,0,0,23.11-37.32,146.36,146.36,0,0,0,10.89-43,138.24,138.24,0,0,0,.15-24.75,2.57,2.57,0,0,0-2.5-2.5,2.51,2.51,0,0,0-2.5,2.5,137.59,137.59,0,0,1-3.05,42.48,140.8,140.8,0,0,1-15.75,39.61,134.62,134.62,0,0,1-13.89,19.46,2.57,2.57,0,0,0,0,3.54,2.53,2.53,0,0,0,3.54,0"/><path class="cls-24" d="M915.5,569.1q7.49-41.22,17.18-82,2.73-11.5,5.65-23c.79-3.12-4-4.45-4.82-1.33q-10.32,40.6-18.43,81.73-2.3,11.6-4.4,23.24a2.57,2.57,0,0,0,1.75,3.08,2.53,2.53,0,0,0,3.07-1.75"/></g><g class="cls-25"><path class="cls-9" d="M999.5,457.46c-4.43,16.43-32,16.52-63.76,8s-54.62-26-51.13-38.93c5.46-20.26,31.15-12.33,63.77-8s54.61,26,51.12,38.94"/><path class="cls-9" d="M1000.06,428.33c-6.92,12-29.25,18.29-57.22,10.75S899.34,414,898.76,401c-.61-13.74,29.25-18.29,57.23-10.75s51,26.08,44.07,38.05"/><path class="cls-9" d="M997.12,401.36c1.65,13.87-24.66,19.55-47,13.53s-40-22.77-33.82-35.3c6.3-12.78,24.67-19.54,47-13.53s32.36,22.91,33.82,35.3"/><path class="cls-9" d="M984.09,370.49c-1.79,6.63-12.41,9.54-23.73,6.49s-23.23-14.14-17.25-17.53c25.1-14.25,3.27-36.61,23.85-9.87,7.14,9.28,18.91,14.28,17.13,20.91"/><path class="cls-26" d="M980.08,369.09c-.19,2.33-4.21,2.55-8.2,2.21s-50.41-11.7-10.12-5.18c9.72,1.57-16.69-44.21,10.66-4.42,2.27,3.3,7.86,5.05,7.66,7.39"/><path class="cls-26" d="M993.89,462.17c-5.12,3.3-27.85,6.62-56.6-1.13s-43.74-22.13-47.5-26.92c-11.41-14.5,23.57,5.17,52.32,12.91s67.26,5.16,51.78,15.14"/><path class="cls-26" d="M996.65,433.26c-5.39,5-29.93,9.19-57.67,2.18S903.42,414.25,900.27,408c-8.24-16.33,20.37,4.85,48.65,9.18,27.81,4.25,61.34,3.34,47.73,16.05"/><path class="cls-26" d="M993.64,410.06c-4.46,5.88-16,.34-43.71-6.67s-33.28-7.3-34.29-14.2c-3.26-22.12,12.46-.11,40.74,4.21,27.81,4.26,50.42-.66,37.26,16.66"/><path class="cls-21" d="M977.23,368.75c0,1-1.69,1.14-3.34,1.09s-21.11-3.78-4.3-1.93c4,.45-7.84-17.93,4.32-2.05,1,1.31,3.35,1.92,3.32,2.89"/><path class="cls-18" d="M938.55,433.16c1.48,1.1-16.13-5.14-23.13-9.86s-7.84-14.17-8.41-15.77c-1.49-4.18,4.39,6.29,11.54,10.74,10.23,6.36,15.15,11.3,20,14.89"/><path class="cls-18" d="M993.54,459.13c-1.32.73-5.89,5.32-14,4.51a109.27,109.27,0,0,1-16.76-2.9c-5.48-1.65,8-2.18,16.05-1.36s19.56-2.94,14.69-.25"/><path class="cls-21" d="M994.27,401c1.29,1.15,0,4.72-2.91,8s-8.94,1.49-10.24.34,3.88-.16,6.78-3.42,5.07-6.06,6.37-4.91"/></g></g></g></svg>