<svg id="Layer_1" data-name="Layer 1" xmlns="http://www.w3.org/2000/svg" xmlns:xlink="http://www.w3.org/1999/xlink" width="150mm" height="150mm" viewBox="0 0 425.2 425.2"><defs><style>.cls-1{fill:none;}.cls-2{clip-path:url(#clip-path);}.cls-3{fill:#b9af0c;}.cls-4{fill:#f1e204;}.cls-5{fill:#fff;}.cls-6{fill:#c01632;}</style><clipPath id="clip-path"><rect class="cls-1" x="65.89" y="65.18" width="293.42" height="294.83"/></clipPath></defs><g id="Artwork_28" data-name="Artwork 28"><g class="cls-2"><g class="cls-2"><path class="cls-3" d="M349.35,218.28A141.73,141.73,0,1,1,207.62,76.55,141.72,141.72,0,0,1,349.35,218.28"/><path class="cls-4" d="M359.31,206.91A141.74,141.74,0,1,1,217.58,65.18,141.74,141.74,0,0,1,359.31,206.91"/><path class="cls-5" d="M241.68,103c-5.61-5.47-.68-14.19,11.37-14.19,19,0,28.27,13.79,28.27,21.62,0,9.46-13.66,15.77-20.82-.71-3.17-7.28-14.2-2.21-18.82-6.72"/><path class="cls-5" d="M290.91,130.26c-3.27-10.48,21.9,9.11,34.95,19.85,18.12,14.91,9.82,57.09-.72,60.17-7.78,2.27-1.37-22.89-13.27-45.1-8.41-15.69-18.26-26.28-21-34.92"/></g></g></g><path class="cls-6" d="M161.45,185.43A32.48,32.48,0,0,1,167,189.6a8,8,0,0,1,2.6,6.13,10,10,0,0,1-3.83,8.32,15,15,0,0,1-9.62,3,16.92,16.92,0,0,1-6.08-1,32.21,32.21,0,0,0-5.77-1.57c0-1.2-.05-2.8-.05-4.8s-.05-3.77-.15-5.3c0-.1.14-.19.42-.28a2.82,2.82,0,0,1,.73-.12,2.13,2.13,0,0,1,.67.1c.22.07.35.17.38.3a13.93,13.93,0,0,0,4,7.35q3,2.9,5.88,2.9a5.73,5.73,0,0,0,4.17-1.28,4.68,4.68,0,0,0,1.28-3.47,5.45,5.45,0,0,0-2.6-4.55q-2.59-1.84-5.6-3.6a31.35,31.35,0,0,1-5.65-4.15,7.73,7.73,0,0,1-2.6-5.9,10.13,10.13,0,0,1,3.52-7.83q3.53-3.17,9.68-3.17a14.91,14.91,0,0,1,4.75.67,33.65,33.65,0,0,0,4.3,1.13c0,1.2.09,2.7.17,4.5s.2,3.28.33,4.45c0,.1-.14.19-.43.27a2.27,2.27,0,0,1-.67.13,2.42,2.42,0,0,1-.7-.1.72.72,0,0,1-.45-.3,15.12,15.12,0,0,0-2.8-6.13,5.7,5.7,0,0,0-4.55-2.22,5.24,5.24,0,0,0-3.7,1.25,4.1,4.1,0,0,0-1.35,3.15,5.13,5.13,0,0,0,2.52,4.27Q158.31,183.59,161.45,185.43Z"/><path class="cls-6" d="M213.55,182.38a8.88,8.88,0,0,1-4,7.67q-4,2.83-11,2.83a14.63,14.63,0,0,1-1.83-.1c-.55-.07-1.1-.17-1.67-.3v7.4a4,4,0,0,0,.95,3c.63.63,1.91,1,3.85,1.25q.15,0,.27.42a2.39,2.39,0,0,1,.13.68,2.23,2.23,0,0,1-.13.7c-.08.26-.17.4-.27.4-1.63,0-3.28,0-4.95-.13s-3.27-.12-4.8-.12-3.13,0-4.78.12-3.29.13-4.92.13c-.1,0-.19-.13-.28-.38a2,2,0,0,1,0-1.37c.09-.27.18-.42.28-.45,1.93-.23,3.21-.65,3.82-1.25a4,4,0,0,0,.93-3V177.13a2.79,2.79,0,0,0-1-2.38,8.37,8.37,0,0,0-3.77-1c-.1,0-.19-.18-.28-.45a2.38,2.38,0,0,1-.12-.65,2.42,2.42,0,0,1,.12-.73c.09-.25.18-.37.28-.37,1.63,0,3.34,0,5.12.12s3.45.13,5,.13,2.87,0,4-.13,2.52-.12,4.15-.12c5.26,0,9.07,1,11.4,2.9A9.77,9.77,0,0,1,213.55,182.38Zm-10.3-.7q0-4.35-1.35-6a4.67,4.67,0,0,0-3.85-1.67,3,3,0,0,0-2.3.75,3.42,3.42,0,0,0-.7,2.4v11.5a1.38,1.38,0,0,0,1,1.47,5.68,5.68,0,0,0,1.43.33,4.79,4.79,0,0,0,4.35-2.2Q203.25,186,203.25,181.68Z"/><path class="cls-6" d="M242.55,205.18a2.11,2.11,0,0,1-.13.72c-.08.25-.17.38-.27.38-1.64,0-3.28,0-4.93-.13S234,206,232.45,206s-3.14,0-4.8.12-3.32.13-5,.13c-.1,0-.19-.14-.28-.4a2.5,2.5,0,0,1-.12-.7,2.38,2.38,0,0,1,.12-.65c.09-.27.18-.42.28-.45,2-.23,3.26-.65,3.87-1.25a4,4,0,0,0,.93-3V177.93a4,4,0,0,0-.93-3c-.61-.6-1.91-1-3.87-1.25-.1,0-.19-.18-.28-.45a2.38,2.38,0,0,1-.12-.65,2.5,2.5,0,0,1,.12-.7c.09-.27.18-.4.28-.4q2.45,0,5,.12c1.66.09,3.26.13,4.8.13s3.12,0,4.77-.13,3.29-.12,4.93-.12c.1,0,.19.12.27.37a2.17,2.17,0,0,1,.13.73,2.27,2.27,0,0,1-.13.67c-.08.29-.17.43-.27.43-1.9.2-3.17.62-3.8,1.25a4,4,0,0,0-.95,3v21.95a4,4,0,0,0,.95,3c.63.63,1.9,1,3.8,1.25q.15,0,.27.42A2.39,2.39,0,0,1,242.55,205.18Z"/><path class="cls-6" d="M284.75,193.38c-.24,1.87-.46,4.15-.68,6.85s-.36,4.72-.42,6.05q-3.15-.1-7.85-.18t-7.65-.07q-3.21,0-8.25.1l-7.55.15c-.1,0-.19-.13-.28-.38a2,2,0,0,1,0-1.37c.09-.27.18-.42.28-.45,1.93-.23,3.21-.65,3.82-1.25a4,4,0,0,0,.93-3V177.93a4,4,0,0,0-.93-3c-.61-.6-1.89-1-3.82-1.25-.1,0-.19-.18-.28-.45a2.38,2.38,0,0,1-.12-.65,2.42,2.42,0,0,1,.12-.73c.09-.25.18-.37.28-.37q2.4,0,4.92.12c1.69.09,3.28.13,4.78.13s3.13,0,4.8-.13,3.31-.12,4.95-.12c.1,0,.19.13.27.4a2.23,2.23,0,0,1,.13.7,2.27,2.27,0,0,1-.13.67c-.08.29-.17.43-.27.43-1.94.2-3.22.62-3.85,1.25a4,4,0,0,0-.95,3v22.7a2.52,2.52,0,0,0,1,2.37,3.8,3.8,0,0,0,2,.58h2.85a7.94,7.94,0,0,0,6.22-3.3,16,16,0,0,0,3.48-7.4c0-.07.06-.12.17-.15a2.24,2.24,0,0,1,.53,0,3.07,3.07,0,0,1,1.07.2C284.62,193,284.78,193.18,284.75,193.38Z"/><path class="cls-6" d="M153.3,265.18a2.11,2.11,0,0,1-.13.72c-.08.25-.17.38-.27.38-1.63,0-3.28,0-4.93-.13s-3.24-.12-4.77-.12-3.13,0-4.8.12-3.32.13-5,.13c-.1,0-.19-.14-.28-.4a2.5,2.5,0,0,1-.12-.7,2.38,2.38,0,0,1,.12-.65c.09-.27.18-.42.28-.45,2-.23,3.26-.65,3.87-1.25a4,4,0,0,0,.93-2.95V237.93a4,4,0,0,0-.93-3c-.61-.6-1.9-1-3.87-1.25-.1,0-.19-.18-.28-.45a2.38,2.38,0,0,1-.12-.65,2.5,2.5,0,0,1,.12-.7c.09-.27.18-.4.28-.4q2.45,0,5,.12c1.67.09,3.27.13,4.8.13s3.12,0,4.77-.13,3.3-.12,4.93-.12c.1,0,.19.12.27.37a2.17,2.17,0,0,1,.13.73,2.27,2.27,0,0,1-.13.67c-.08.29-.17.43-.27.43-1.9.2-3.17.62-3.8,1.25a4,4,0,0,0-.95,3v21.95a4,4,0,0,0,.95,2.95c.63.63,1.9,1.05,3.8,1.25q.15,0,.27.42A2.39,2.39,0,0,1,153.3,265.18Z"/><path class="cls-6" d="M201.55,250.9a2.33,2.33,0,0,1-.13.68q-.12.42-.27.42a4.88,4.88,0,0,0-3.3,1.31,4.32,4.32,0,0,0-.9,2.9v5.06a9.5,9.5,0,0,0,.12,1.8,6.5,6.5,0,0,0,.43,1.2,59.52,59.52,0,0,1-6.9,1.93,36.49,36.49,0,0,1-8.1.88,23.41,23.41,0,0,1-8.65-1.5,17.92,17.92,0,0,1-6.3-4.05,16.13,16.13,0,0,1-3.7-5.7,18.74,18.74,0,0,1-1.25-6.75,17,17,0,0,1,5.55-12.85,19.75,19.75,0,0,1,6.92-4,27.84,27.84,0,0,1,9.28-1.47,23.09,23.09,0,0,1,6.05.85,21.26,21.26,0,0,0,5.45.85c0,1.37,0,3.12.1,5.27s.12,4,.15,5.43c0,.1-.14.19-.43.27a2.53,2.53,0,0,1-.77.13,1.81,1.81,0,0,1-.63-.1.67.67,0,0,1-.37-.3,15.34,15.34,0,0,0-4.13-7,9.84,9.84,0,0,0-7.12-2.9q-4.5,0-7.13,4.45t-2.62,11.45a22.11,22.11,0,0,0,2.55,11.17q2.55,4.42,7.05,4.43c2,0,3.41-.27,4.12-.8a2.82,2.82,0,0,0,1.08-2.41v-6a2.86,2.86,0,0,0-.9-2.4,9.08,9.08,0,0,0-4-1.06c-.1,0-.19-.13-.28-.4a2.55,2.55,0,0,1-.12-.75,2.36,2.36,0,0,1,.12-.72c.09-.25.18-.38.28-.38,1.63,0,3.07.06,4.3.17s2.6.16,4.1.16,3.17-.06,4.9-.16,3.42-.17,5.05-.17c.1,0,.19.14.27.4A2.23,2.23,0,0,1,201.55,250.9Z"/><path class="cls-6" d="M242.4,254.58c-.24,1.87-.46,3.84-.68,5.92s-.37,4-.47,5.78c-2.1-.07-4.74-.13-7.9-.18s-5.72-.07-7.65-.07-4.69,0-8.25.1l-8,.15c-.1,0-.19-.14-.28-.4a2.5,2.5,0,0,1-.12-.7,2.38,2.38,0,0,1,.12-.65c.09-.27.18-.42.28-.45,2-.23,3.26-.65,3.87-1.25a4,4,0,0,0,.93-2.95V237.93a4,4,0,0,0-.93-3c-.61-.6-1.91-1-3.87-1.25-.1,0-.19-.18-.28-.45a2.38,2.38,0,0,1-.12-.65,2.5,2.5,0,0,1,.12-.7c.09-.27.18-.4.28-.4l7.6.15c3.3.07,6,.1,8.15.1q2.7,0,7.65-.08c3.3,0,6-.1,8-.17-.07,1.37,0,3.13.07,5.3s.21,4.12.28,5.85c0,.13-.13.27-.38.42a2,2,0,0,1-1,.23,1.51,1.51,0,0,1-.6-.1c-.17-.07-.25-.13-.25-.2a12.05,12.05,0,0,0-2.63-6,7.52,7.52,0,0,0-6.27-2.82h-3a4.16,4.16,0,0,0-2,.5c-.64.33-.95,1.15-.95,2.45v10.35h1.7a5.48,5.48,0,0,0,4-1.5,6.24,6.24,0,0,0,1.78-3.95c0-.1.14-.19.42-.28a2.7,2.7,0,0,1,.68-.12,2.36,2.36,0,0,1,.72.12c.25.09.38.18.38.28,0,1.23,0,2.38-.13,3.45s-.12,2.17-.12,3.3,0,2.26.12,3.27.13,2.13.13,3.33c0,.1-.13.19-.38.27a2.11,2.11,0,0,1-.72.13,2.06,2.06,0,0,1-.65-.13q-.4-.12-.45-.27a6.73,6.73,0,0,0-1.68-4,5.46,5.46,0,0,0-4.12-1.42h-1.7v10.65a2.54,2.54,0,0,0,.95,2.37,3.65,3.65,0,0,0,2,.58h2.6a9.65,9.65,0,0,0,6.75-2.75,12,12,0,0,0,3.7-6.75c0-.07.07-.12.22-.15a2.73,2.73,0,0,1,.53-.05,3.07,3.07,0,0,1,1.07.2C242.27,254.21,242.43,254.38,242.4,254.58Z"/><path class="cls-6" d="M294.3,232.63a2.27,2.27,0,0,1-.13.67c-.08.29-.17.43-.27.43A7.71,7.71,0,0,0,290,235a3.76,3.76,0,0,0-1.17,3l-.55,28.55c0,.1-.11.21-.33.32a2.31,2.31,0,0,1-1.07.18,5.11,5.11,0,0,1-1-.08,1,1,0,0,1-.6-.32L261,242l-.3,17.86a3.35,3.35,0,0,0,1.05,2.92,7.59,7.59,0,0,0,4.05,1.28c.1,0,.19.12.27.37a2.17,2.17,0,0,1,.13.73,2.23,2.23,0,0,1-.13.7c-.08.26-.17.4-.27.4-1.27,0-2.44,0-3.5-.13S260.11,266,259,266s-2.31,0-3.33.12-2.09.13-3.22.13c-.1,0-.19-.14-.28-.4a2.5,2.5,0,0,1-.12-.7,1.76,1.76,0,0,1,.15-.7c.1-.23.2-.37.3-.4a7.45,7.45,0,0,0,3.95-1.25,3.7,3.7,0,0,0,1.1-2.95l.8-20.35a6.11,6.11,0,0,0-1.1-4.08c-.77-.91-2.22-1.49-4.35-1.72-.1,0-.19-.18-.25-.45a2.64,2.64,0,0,1-.1-.65,2.42,2.42,0,0,1,.12-.73c.09-.25.18-.37.28-.37q1.2,0,2.85.12c1.1.09,2,.13,2.68.13a18,18,0,0,0,2.26-.13,25.53,25.53,0,0,1,2.75-.12l22.36,22.6v-16.2a3.44,3.44,0,0,0-1.2-3,8.84,8.84,0,0,0-4.1-1.25c-.1,0-.19-.17-.28-.4a2.15,2.15,0,0,1-.12-.7,2.5,2.5,0,0,1,.12-.7c.09-.27.18-.4.28-.4,1.3,0,2.41,0,3.32.12s2,.13,3.13.13,2.38,0,3.55-.13,2.3-.12,3.4-.12c.1,0,.19.12.27.37A2.17,2.17,0,0,1,294.3,232.63Z"/></svg>