<svg id="Layer_1" data-name="Layer 1" xmlns="http://www.w3.org/2000/svg" width="150mm" height="150mm" viewBox="0 0 425.2 425.2"><defs><style>.cls-1{fill:#b9af0c;}.cls-2{fill:#f2e203;}.cls-3{fill:#fff;}.cls-4{fill:#c01632;}</style></defs><circle class="cls-1" cx="206.46" cy="220.46" r="141.73"/><circle class="cls-2" cx="216.41" cy="209.09" r="141.73"/><path class="cls-3" d="M240.51,105.18c-5.6-5.47-.67-14.19,11.38-14.19,19,0,28.26,13.79,28.26,21.62,0,9.46-13.66,15.77-20.82-.71C256.17,104.62,245.13,109.68,240.51,105.18Z"/><path class="cls-3" d="M289.75,132.44c-3.28-10.48,21.89,9.11,34.94,19.84,18.13,14.91,9.82,57.1-.72,60.17-7.78,2.28-1.37-22.88-13.27-45.09C302.29,151.66,292.44,141.07,289.75,132.44Z"/><path class="cls-4" d="M141,208.88a44.93,44.93,0,0,1,7.77,5.85,11.2,11.2,0,0,1,3.64,8.57A14.06,14.06,0,0,1,147,235q-5.35,4.23-13.47,4.23a23.7,23.7,0,0,1-8.51-1.36,45.22,45.22,0,0,0-8.08-2.21q-.08-2.52-.07-6.72t-.21-7.42c0-.14.2-.27.59-.38a3.66,3.66,0,0,1,1-.18,3.24,3.24,0,0,1,.94.14c.31.09.48.23.53.42a19.58,19.58,0,0,0,5.56,10.29q4.24,4.06,8.23,4.06c2.71,0,4.65-.59,5.84-1.78a6.59,6.59,0,0,0,1.79-4.87q0-3.78-3.64-6.37t-7.84-5a43.51,43.51,0,0,1-7.91-5.81,10.79,10.79,0,0,1-3.64-8.26,14.15,14.15,0,0,1,4.93-10.95q4.94-4.45,13.55-4.45a20.86,20.86,0,0,1,6.65.95,47.13,47.13,0,0,0,6,1.57q.08,2.52.24,6.3t.46,6.23q0,.21-.6.39a3.75,3.75,0,0,1-.94.17,3.68,3.68,0,0,1-1-.14.91.91,0,0,1-.63-.42,21,21,0,0,0-3.92-8.57,8,8,0,0,0-6.37-3.12,7.32,7.32,0,0,0-5.18,1.75,5.76,5.76,0,0,0-1.89,4.41q0,3.5,3.53,6T141,208.88Z"/><path class="cls-4" d="M213.93,204.61a12.46,12.46,0,0,1-5.64,10.75q-5.62,3.94-15.36,3.95a22.19,22.19,0,0,1-2.56-.14,19.87,19.87,0,0,1-2.34-.42v10.36a5.62,5.62,0,0,0,1.33,4.13c.89.89,2.68,1.47,5.39,1.75.14,0,.27.2.38.6a3.43,3.43,0,0,1,.18.94,3.25,3.25,0,0,1-.18,1c-.11.37-.24.56-.38.56q-3.44,0-6.93-.17t-6.72-.18q-3.22,0-6.69.18c-2.31.11-4.6.17-6.89.17-.14,0-.27-.17-.39-.52a2.82,2.82,0,0,1,0-1.93q.18-.56.39-.63,4.06-.5,5.35-1.75a5.56,5.56,0,0,0,1.3-4.13V197.26a3.86,3.86,0,0,0-1.37-3.32q-1.37-1-5.28-1.44-.21-.08-.39-.63A3.43,3.43,0,0,1,167,191a3.34,3.34,0,0,1,.17-1c.12-.35.25-.53.39-.53q3.43,0,7.17.18t7,.17c2.15,0,4-.06,5.6-.17s3.52-.18,5.81-.18q11.06,0,16,4.06T213.93,204.61Zm-14.42-1q0-6.09-1.89-8.43a6.51,6.51,0,0,0-5.39-2.35A4.24,4.24,0,0,0,189,193.9a4.83,4.83,0,0,0-1,3.36v16.1a2,2,0,0,0,1.43,2.07,8.15,8.15,0,0,0,2,.45,6.72,6.72,0,0,0,6.09-3.08Q199.52,209.73,199.51,203.63Z"/><path class="cls-4" d="M254.53,236.53a3.14,3.14,0,0,1-.18,1c-.11.35-.24.52-.38.52q-3.43,0-6.9-.17t-6.68-.18q-3.22,0-6.72.18t-6.93.17c-.14,0-.27-.19-.39-.56a3.54,3.54,0,0,1-.17-1,3.43,3.43,0,0,1,.17-.91q.18-.56.39-.63,4.13-.5,5.42-1.75a5.56,5.56,0,0,0,1.3-4.13V198.38a5.56,5.56,0,0,0-1.3-4.13q-1.29-1.26-5.42-1.75-.21-.08-.39-.63a3.43,3.43,0,0,1-.17-.91,3.54,3.54,0,0,1,.17-1c.12-.37.25-.56.39-.56q3.42,0,6.93.18t6.72.17q3.21,0,6.68-.17t6.9-.18c.14,0,.27.18.38.53a3.08,3.08,0,0,1,.18,1,3.55,3.55,0,0,1-.18.95c-.11.39-.24.59-.38.59-2.66.28-4.44.86-5.32,1.75a5.62,5.62,0,0,0-1.33,4.13v30.73a5.62,5.62,0,0,0,1.33,4.13c.88.89,2.66,1.47,5.32,1.75.14,0,.27.2.38.6A3.43,3.43,0,0,1,254.53,236.53Z"/><path class="cls-4" d="M313.61,220c-.33,2.61-.64,5.81-.95,9.59s-.5,6.6-.59,8.47c-2.94-.09-6.61-.17-11-.24s-8-.11-10.71-.11q-4.49,0-11.55.14l-10.57.21c-.14,0-.27-.17-.39-.52a2.82,2.82,0,0,1,0-1.93q.18-.56.39-.63c2.7-.33,4.49-.91,5.35-1.75a5.56,5.56,0,0,0,1.3-4.13V198.38a5.56,5.56,0,0,0-1.3-4.13c-.86-.84-2.65-1.42-5.35-1.75q-.21-.08-.39-.63a3.43,3.43,0,0,1-.17-.91,3.34,3.34,0,0,1,.17-1c.12-.35.25-.53.39-.53q3.36,0,6.89.18t6.69.17q3.21,0,6.72-.17t6.93-.18c.14,0,.27.19.38.56a3.25,3.25,0,0,1,.18,1,3.55,3.55,0,0,1-.18.95c-.11.39-.24.59-.38.59q-4.07.42-5.39,1.75a5.62,5.62,0,0,0-1.33,4.13v31.78c0,1.68.45,2.79,1.36,3.33a5.45,5.45,0,0,0,2.77.8h4q4.89,0,8.71-4.62a22.29,22.29,0,0,0,4.87-10.36q0-.13.24-.21a2.78,2.78,0,0,1,.74-.07,4.11,4.11,0,0,1,1.5.28C313.43,219.5,313.65,219.73,313.61,220Z"/></svg>