<svg id="Layer_1" data-name="Layer 1" xmlns="http://www.w3.org/2000/svg" xmlns:xlink="http://www.w3.org/1999/xlink" width="150mm" height="150mm" viewBox="0 0 425.2 425.2"><defs><style>.cls-1{fill:none;}.cls-2{clip-path:url(#clip-path);}.cls-3{fill:#b9af0c;}.cls-4{fill:#f1e204;}.cls-5{fill:#fff;}.cls-6{fill:#c01632;}</style><clipPath id="clip-path"><rect class="cls-1" x="70.83" y="73.04" width="293.42" height="294.83"/></clipPath></defs><g id="Artwork_28" data-name="Artwork 28"><g class="cls-2"><g class="cls-2"><path class="cls-3" d="M354.29,226.14A141.73,141.73,0,1,1,212.56,84.41,141.73,141.73,0,0,1,354.29,226.14"/><path class="cls-4" d="M364.25,214.78A141.74,141.74,0,1,1,222.52,73,141.74,141.74,0,0,1,364.25,214.78"/><path class="cls-5" d="M246.62,110.86c-5.61-5.47-.68-14.19,11.37-14.19,19,0,28.27,13.79,28.27,21.62,0,9.46-13.66,15.78-20.82-.71-3.17-7.28-14.2-2.21-18.82-6.72"/><path class="cls-5" d="M295.85,138.12c-3.27-10.48,21.9,9.12,34.95,19.85,18.12,14.91,9.82,57.09-.72,60.17-7.78,2.27-1.37-22.89-13.27-45.09-8.41-15.7-18.26-26.29-21-34.93"/></g></g></g><path class="cls-6" d="M131.8,218.59a32,32,0,0,1,5.55,4.18,8,8,0,0,1,2.6,6.12,10.05,10.05,0,0,1-3.83,8.33,15.05,15.05,0,0,1-9.62,3,16.93,16.93,0,0,1-6.08-1,32.18,32.18,0,0,0-5.77-1.58c0-1.2-.05-2.8-.05-4.8s0-3.77-.15-5.3q0-.15.42-.27a2.5,2.5,0,0,1,.73-.13,2.13,2.13,0,0,1,.67.1c.22.07.35.17.38.3a13.93,13.93,0,0,0,4,7.35q3,2.9,5.88,2.9a5.73,5.73,0,0,0,4.17-1.27,4.71,4.71,0,0,0,1.28-3.48,5.45,5.45,0,0,0-2.6-4.55q-2.59-1.84-5.6-3.6a31.35,31.35,0,0,1-5.65-4.15,7.73,7.73,0,0,1-2.6-5.9,10.09,10.09,0,0,1,3.52-7.82q3.53-3.18,9.68-3.18a14.9,14.9,0,0,1,4.75.68,33.67,33.67,0,0,0,4.3,1.12c0,1.2.09,2.7.17,4.5s.2,3.28.33,4.45c0,.1-.14.19-.43.28a2.57,2.57,0,0,1-.67.12,2.42,2.42,0,0,1-.7-.1.72.72,0,0,1-.45-.3,15,15,0,0,0-2.8-6.12,5.68,5.68,0,0,0-4.55-2.23,5.24,5.24,0,0,0-3.7,1.25,4.1,4.1,0,0,0-1.35,3.15,5.16,5.16,0,0,0,2.52,4.28Q128.66,216.74,131.8,218.59Z"/><path class="cls-6" d="M186.15,216.39c0,.17-.13.32-.38.45a1.86,1.86,0,0,1-.87.2,2.64,2.64,0,0,1-.55-.07c-.24-.05-.37-.11-.4-.18a17,17,0,0,0-3.33-6.07q-2.62-3.33-4.92-3.33H175a2.32,2.32,0,0,0-1.65.48,1.9,1.9,0,0,0-.5,1.47V233a4,4,0,0,0,.95,3c.63.63,1.91,1,3.85,1.25.1,0,.19.14.27.43a2.27,2.27,0,0,1,.13.67,2.23,2.23,0,0,1-.13.7c-.08.27-.17.4-.27.4-1.6,0-3.24,0-4.93-.12s-3.27-.13-4.77-.13-3.14,0-4.8.13-3.32.12-4.95.12c-.1,0-.19-.13-.28-.4a2.5,2.5,0,0,1-.12-.7,2.38,2.38,0,0,1,.12-.65c.09-.27.18-.42.28-.45,2-.23,3.26-.65,3.87-1.25a4,4,0,0,0,.93-3v-23.7a2,2,0,0,0-.45-1.52,2.49,2.49,0,0,0-1.7-.43h-.4q-2.06,0-5.05,3.08a18.77,18.77,0,0,0-4.25,6.32c0,.1-.16.17-.38.2a4,4,0,0,1-.52,0,2.13,2.13,0,0,1-.88-.2q-.42-.19-.42-.45.49-2.5,1.07-6.12c.39-2.42.66-4.43.83-6a51.09,51.09,0,0,0,5.45.5c2.46.13,6.35.2,11.65.2,4.53,0,8.31-.07,11.32-.2a46.71,46.71,0,0,0,6-.5q.15,2.4.4,5.7C185.76,212.14,186,214.29,186.15,216.39Z"/><path class="cls-6" d="M229.2,238.34a2.23,2.23,0,0,1-.13.7c-.08.27-.17.4-.27.4-1.6,0-3.22,0-4.85-.12s-3.13-.13-4.5-.13c-1.53,0-3.17,0-4.92.13s-3.44.12-5.07.12c-.1,0-.19-.12-.28-.37a2.42,2.42,0,0,1-.12-.73,3.61,3.61,0,0,1,.07-.65c.05-.27.13-.42.23-.45a8,8,0,0,0,3.17-.62,1.61,1.61,0,0,0,.78-1.48,3.59,3.59,0,0,0-.18-1,10.87,10.87,0,0,0-.37-1.1l-1.36-3.5H200.9l-1.22,2.9a11.28,11.28,0,0,0-.47,1.33,3.91,3.91,0,0,0-.18,1.07,2.41,2.41,0,0,0,.58,1.68c.38.41,1.44.65,3.17.72.1,0,.17.14.2.43a4.68,4.68,0,0,1,.05.67,2.42,2.42,0,0,1-.12.73c-.09.25-.18.37-.28.37-1.43,0-2.55,0-3.35-.12a30,30,0,0,0-3.19-.13,27.43,27.43,0,0,0-2.9.13q-1.24.12-2.94.12c-.1,0-.19-.14-.25-.42a3,3,0,0,1-.1-.68,1.41,1.41,0,0,1,.22-.65c.15-.27.28-.42.38-.45a5.58,5.58,0,0,0,3.35-1.3,12.49,12.49,0,0,0,2.45-3.7l12.4-28c0-.1.21-.19.55-.27a3.61,3.61,0,0,1,.95-.13,3.67,3.67,0,0,1,1,.13c.33.08.51.17.55.27l11.1,28a8.79,8.79,0,0,0,2.15,3.63,6.46,6.46,0,0,0,3.75,1.37c.1,0,.21.14.32.43A1.81,1.81,0,0,1,229.2,238.34Zm-18.76-11.2-4.21-11-4.39,11Z"/><path class="cls-6" d="M276.2,238.34a3.32,3.32,0,0,1-.23.7c-.11.27-.22.4-.32.4-.94,0-2.17,0-3.7-.12s-2.59-.13-3.15-.13c-.8,0-1.85,0-3.15.13s-2.35.12-3.15.12l-6.3-12.8a4.57,4.57,0,0,0-1.8-2.07,5.88,5.88,0,0,0-2.85-.58v9a4.74,4.74,0,0,0,.75,3c.5.63,1.71,1,3.65,1.25.1,0,.19.14.27.43a2.27,2.27,0,0,1,.13.67,2.23,2.23,0,0,1-.13.7c-.08.27-.17.4-.27.4-1.64,0-3.22,0-4.75-.12s-3.07-.13-4.6-.13-3.13,0-4.78.13-3.29.12-4.92.12c-.1,0-.19-.12-.28-.37a2.42,2.42,0,0,1-.12-.73,2.38,2.38,0,0,1,.12-.65c.09-.27.18-.42.28-.45,1.93-.23,3.21-.65,3.82-1.25a4,4,0,0,0,.93-3V211.09a4,4,0,0,0-.93-3c-.61-.6-1.89-1-3.82-1.25-.1,0-.19-.18-.28-.45a2,2,0,0,1,0-1.37c.09-.25.18-.38.28-.38,1.63,0,3.31,0,5,.13s3.34.12,4.88.12,2.9,0,4.1-.12,2.61-.13,4.25-.13q8.1,0,11.7,2.68t3.6,6.27a8.67,8.67,0,0,1-1.63,5.48,10.27,10.27,0,0,1-5.29,3.17l6.86,11.45a7.88,7.88,0,0,0,2.15,2.5,7.72,7.72,0,0,0,3.41,1c.1,0,.17.14.22.43A2,2,0,0,1,276.2,238.34Zm-16.05-23.8q0-3.85-1.4-5.62a5.14,5.14,0,0,0-4.3-1.78,2.92,2.92,0,0,0-2.35.7,4.06,4.06,0,0,0-.55,2.45v11.3c.2,0,.49.07.87.1s.74.05,1.08.05q3.54,0,5.1-1.6C259.63,219.07,260.15,217.21,260.15,214.54Z"/><path class="cls-6" d="M317.45,216.39c0,.17-.13.32-.38.45a1.86,1.86,0,0,1-.87.2,2.64,2.64,0,0,1-.55-.07c-.24-.05-.37-.11-.4-.18a17,17,0,0,0-3.33-6.07q-2.62-3.33-4.92-3.33h-.75a2.32,2.32,0,0,0-1.65.48,1.9,1.9,0,0,0-.5,1.47V233a4,4,0,0,0,.95,3c.63.63,1.91,1,3.85,1.25.1,0,.19.14.27.43a2.27,2.27,0,0,1,.13.67,2.23,2.23,0,0,1-.13.7c-.08.27-.17.4-.27.4-1.6,0-3.24,0-4.93-.12s-3.27-.13-4.77-.13-3.14,0-4.8.13-3.32.12-4.95.12c-.1,0-.19-.13-.28-.4a2.5,2.5,0,0,1-.12-.7,2.38,2.38,0,0,1,.12-.65c.09-.27.18-.42.28-.45,2-.23,3.26-.65,3.87-1.25a4,4,0,0,0,.93-3v-23.7a2,2,0,0,0-.45-1.52,2.49,2.49,0,0,0-1.7-.43h-.4q-2.06,0-5.05,3.08a18.77,18.77,0,0,0-4.25,6.32c0,.1-.16.17-.38.2a4,4,0,0,1-.52,0,2.13,2.13,0,0,1-.88-.2q-.42-.19-.42-.45.49-2.5,1.07-6.12c.39-2.42.66-4.43.83-6a51.09,51.09,0,0,0,5.45.5c2.46.13,6.35.2,11.65.2,4.53,0,8.31-.07,11.32-.2a46.71,46.71,0,0,0,6-.5q.15,2.4.4,5.7C317.06,212.14,317.25,214.29,317.45,216.39Z"/></svg>