<svg id="Layer_1" data-name="Layer 1" xmlns="http://www.w3.org/2000/svg" xmlns:xlink="http://www.w3.org/1999/xlink" width="150mm" height="133.67mm" viewBox="0 0 425.2 378.92"><defs><style>.cls-1,.cls-10{fill:none;}.cls-2{clip-path:url(#clip-path);}.cls-3{clip-path:url(#clip-path-2);}.cls-4{fill:#f1e204;}.cls-5{fill:#e1c19e;}.cls-6{fill:#eccaa5;}.cls-7{fill:#e25a9c;}.cls-8{fill:#ddbe9b;}.cls-9{fill:#ef8095;}.cls-10{stroke:#ef8095;stroke-linecap:round;stroke-linejoin:round;stroke-width:0.23px;}.cls-11{fill:#6495bf;}.cls-12{fill:#d98faa;}.cls-13{fill:#5c88ae;}.cls-14{fill:#fff;}.cls-15{fill:#a980b8;}.cls-16{fill:#1d1d1b;}.cls-17{fill:#f2d5e6;}.cls-18{fill:#001400;}.cls-19{fill:#efe88c;}.cls-20{fill:#f2c9e1;}.cls-21{fill:#d96b94;}.cls-22{fill:#b3b3b3;}.cls-23{fill:#808081;}.cls-24{clip-path:url(#clip-path-4);}.cls-25{fill:#eb92a7;}</style><clipPath id="clip-path"><rect class="cls-1" x="114.07" y="54.77" width="226.92" height="269.29"/></clipPath><clipPath id="clip-path-2"><rect class="cls-1" x="114.07" y="54.77" width="226.92" height="269.29"/></clipPath><clipPath id="clip-path-4"><rect class="cls-1" x="309.44" y="112.5" width="29.38" height="26.99" transform="translate(118.15 406.18) rotate(-74.92)"/></clipPath></defs><g id="Artwork_25" data-name="Artwork 25"><g class="cls-2"><g class="cls-3"><path class="cls-4" d="M162.12,64.06h43a15.66,15.66,0,0,1,15.37,12.7l31.26,162.13a.37.37,0,0,1,0,.23c-11.91,20.93-10.18,13.12-15.76,15.95-.11.05-6.75-8.18-6.75-8.06v5.15c0,6.51,3.75,20.91-7.11,16.88-12.35-4.59-77.66-5.34-85.37-1-4.26,2.39-8.51-3.06-7.82-13.69-.53-6.43-6.32-4.75-6.45-4.71-14.12,5-6.34-15.39-5.12-21.64L146.75,76.73a15.65,15.65,0,0,1,15.37-12.67"/><path class="cls-5" d="M187,187.12h-8.24a4.81,4.81,0,0,1-4.82-4.81l1.37-12c0-2.66.78-3.44,3.45-3.44H187c2.66,0,3,.33,3,3l1.83,12.42a4.81,4.81,0,0,1-4.82,4.81"/><path class="cls-6" d="M164.42,164.59l-.72-.56a11.56,11.56,0,0,0-1-.7c-6.72-4.42-9.95-11.16-13.28-18.58-2.49-5.51-2-11.09-2.46-15.65a15.64,15.64,0,0,1,0-4.48l3.84-32.74c1.78-12.95,5.66-33.19,18.73-33.19h30.07c13.08,0,16.39,20,18,33.15,0,.34.07.67.08,1l1.58,39c0,.3,0,.6.06.89.66,6.29-1.07,10.37-3.42,16.5-.57,1.5,1-2,0,0l-.2.44a40.93,40.93,0,0,1-7.54,11.14l0,0a24.47,24.47,0,0,1-4,2.95c-2.15,1.46-7,4.71-7.91,5.18-12.09,6.51-17.86,6.79-28.35-2a20.43,20.43,0,0,0-2.18-1.41,12.69,12.69,0,0,1-1.31-.9"/><path class="cls-4" d="M212.42,58.9c7.92,5.57,9.46,23.33,6.33,29.7-5,10.1-26.92-18.37-25.09-4.85,1.26,9.38-15.18-23.32-9.1-26.71,5.71-3.19,20.36-3.4,27.86,1.86"/><path class="cls-4" d="M162.39,56.79c-8.39,1.9-17,16.79-13.43,21.69s19.56,1.17,26.5-3.93,11.48-15.41,6-18.12c-5.12-2.54-10.69-1.54-19.09.36"/><path class="cls-6" d="M207.36,301.23H160.44a7.61,7.61,0,0,1-7.61-7.61V191.56a7.61,7.61,0,0,1,7.61-7.61h46.92a7.61,7.61,0,0,1,7.61,7.61V293.62a7.61,7.61,0,0,1-7.61,7.61"/><path class="cls-7" d="M213.63,253H153.34a1.26,1.26,0,0,1-1.25-1.37c.25-2.52.74-7.92.74-11.06v-49a7.61,7.61,0,0,1,7.61-7.61h46.92a7.61,7.61,0,0,1,7.61,7.61v60a1.34,1.34,0,0,1-1.34,1.35"/><path class="cls-8" d="M184.81,263c0,1.42-.57,2.57-1.28,2.57s-1.29-1.15-1.29-2.57.58-2.58,1.29-2.58,1.28,1.15,1.28,2.58"/><path class="cls-9" d="M163.15,278.14,152.52,266a.7.7,0,0,1,1.06-.92l10.63,12.1a.7.7,0,0,1-1.06.92"/><path class="cls-10" d="M163.15,278.14,152.52,266a.7.7,0,0,1,1.06-.92l10.63,12.1a.7.7,0,0,1-1.06.92Z"/><path class="cls-9" d="M204.64,278.76l10.63-12.1a.7.7,0,0,0-1.05-.92l-10.63,12.1a.7.7,0,0,0,1,.92"/><path class="cls-10" d="M204.64,278.76l10.63-12.1a.7.7,0,0,0-1.05-.92l-10.63,12.1a.7.7,0,0,0,1,.92Z"/><polygon class="cls-11" points="218.43 324.06 149.06 324.06 152.83 277.94 214.97 277.94 218.43 324.06"/><path class="cls-6" d="M148.43,244.68c0,25.67,3.38,46.48-3.36,46.48s-12.2-20.81-12.2-46.48,6.19-49.51,12.2-46.47c13.51,6.84,3.36,20.81,3.36,46.47"/><path class="cls-7" d="M138,206.53c-5.34-3.88-1-6.41,3.24-12.19s16.21-13.19,21.55-9.31-4.22,22.36-8.43,28.14-11-2.75-16.36-6.64"/><path class="cls-6" d="M260.38,198.69c25.31-4.21,45.28-11,46.39-4.31S288.25,209.83,262.93,214s-49.86,2-47.85-4.41c4.53-14.45,20-6.73,45.3-10.94"/><path class="cls-7" d="M228.81,203.4c4.73-4.61.05-6.48-4.94-11.61s-17.94-10.74-22.67-6.13,7.37,21.53,12.36,26.65,10.52-4.3,15.25-8.91"/><rect class="cls-12" x="283.48" y="187.35" width="9.99" height="22.05" transform="translate(-50.91 112.39) rotate(-20.3)"/><path class="cls-5" d="M191.84,183.43H174c0,2,4,3.69,8.94,3.69s8.94-1.65,8.94-3.69"/><polygon class="cls-13" points="216.07 292.67 196.66 278.01 214.66 277.94 216.07 292.67"/><polygon class="cls-13" points="151.61 293.07 170.66 277.94 152.67 278.31 151.61 293.07"/><path class="cls-12" d="M140.16,319.53c-7.17-1.7-16.37-10.31-12.78-25.42,3.2-13.5,7-18.34,14.32-18.52,15.2-.38,13.05,18.15,12.75,32s-6.34,13.8-14.29,11.92"/><rect class="cls-12" x="130.62" y="274.28" width="22.05" height="9.99" transform="translate(-5.77 3) rotate(-1.19)"/><path class="cls-13" d="M180.84,282.87a2.69,2.69,0,1,1,2.69,2.69,2.68,2.68,0,0,1-2.69-2.69"/><path class="cls-14" d="M151.15,120.72a14.42,14.42,0,0,1,3.46-20.11c6.52-4.6,19.35-5.63,23.95.88s-.79,18.1-7.3,22.7a14.44,14.44,0,0,1-20.11-3.47"/><path class="cls-14" d="M218.37,117.07a14.43,14.43,0,0,1-18,9.59c-7.62-2.32-16.31-11.83-14-19.45s14.78-10.48,22.41-8.15a14.43,14.43,0,0,1,9.59,18"/><path class="cls-15" d="M186.37,107.21s6.23,3.92,16.12,2.23c10.23-1.74,16.54,1,16.54,1,.25-8.8-8.57-13.59-16.47-13.59-8.16,0-17.36.75-16.19,10.33"/><path class="cls-15" d="M150.11,105.77a63.52,63.52,0,0,1,14.83-1.94c7.73,0,15,.69,15,.69.35-4.76-8.66-8.83-15-7.64-6.17,1.16-12.85,2.88-14.83,8.89"/><path class="cls-16" d="M186.37,107.21s6.23,3.92,16.12,2.23c10.23-1.74,16.54,1,16.54,1-4.08-6.09-14.35-1.9-22.25-1.9-8.16,0-11.48-6.22-10.41-1.36"/><path class="cls-16" d="M150.11,105.77a63.52,63.52,0,0,1,14.83-1.94c7.73,0,15,.69,15,.69,0-2.41-8.6-2-15.54-1.76-6.28.18-13.36,0-14.28,3"/></g><path class="cls-17" d="M159,200.85h8.69v2.28h-2.91v7H161.9v-7H159Z"/><path class="cls-17" d="M169,200.85h2.86v3.23H175v-3.23h2.87v9.25H175v-3.74h-3.13v3.74H169Z"/><path class="cls-17" d="M185.43,208.57h-3.25l-.45,1.53h-2.92l3.48-9.25h3.12l3.48,9.25h-3Zm-.59-2-1-3.33-1,3.33Z"/><path class="cls-17" d="M188.27,200.85H197v2.28H194v7h-2.86v-7h-2.91Z"/><path class="cls-17" d="M197.76,207l2.72-.17a2.1,2.1,0,0,0,.36,1,1.51,1.51,0,0,0,1.26.56,1.39,1.39,0,0,0,.94-.29.83.83,0,0,0,0-1.31,3.7,3.7,0,0,0-1.47-.53,6.27,6.27,0,0,1-2.68-1.13,2.24,2.24,0,0,1-.81-1.78,2.39,2.39,0,0,1,.42-1.35,2.67,2.67,0,0,1,1.24-1,5.84,5.84,0,0,1,2.28-.36,4.64,4.64,0,0,1,2.7.66,2.86,2.86,0,0,1,1.11,2.1l-2.7.15a1.41,1.41,0,0,0-.45-.9,1.44,1.44,0,0,0-.95-.29,1.16,1.16,0,0,0-.75.21.65.65,0,0,0-.25.52.53.53,0,0,0,.21.4,2.39,2.39,0,0,0,1,.34,12.34,12.34,0,0,1,2.68.81,2.81,2.81,0,0,1,1.18,1,2.56,2.56,0,0,1,.37,1.37,2.92,2.92,0,0,1-.49,1.64,3.11,3.11,0,0,1-1.38,1.14,5.54,5.54,0,0,1-2.23.39,4.58,4.58,0,0,1-3.27-.91A3.62,3.62,0,0,1,197.76,207Z"/><path class="cls-17" d="M168.34,216.36h2.86v3.24h3.13v-3.24h2.87v9.26h-2.87v-3.75H171.2v3.75h-2.86Z"/><path class="cls-17" d="M178.74,221a4.4,4.4,0,0,1,4.78-4.8,4.86,4.86,0,0,1,3.56,1.24,4.67,4.67,0,0,1,1.25,3.48,5.75,5.75,0,0,1-.54,2.66,4,4,0,0,1-1.58,1.62,5.28,5.28,0,0,1-2.57.57,6,6,0,0,1-2.6-.49,3.93,3.93,0,0,1-1.66-1.58A5.29,5.29,0,0,1,178.74,221Zm2.86,0a3.15,3.15,0,0,0,.52,2,2,2,0,0,0,2.85,0,3.49,3.49,0,0,0,.5-2.16A2.87,2.87,0,0,0,185,219a1.82,1.82,0,0,0-1.43-.6,1.73,1.73,0,0,0-1.39.61A3.13,3.13,0,0,0,181.6,221Z"/><path class="cls-17" d="M188.9,216.36h8.69v2.29h-2.91v7h-2.86v-7H188.9Z"/><path class="cls-17" d="M198.72,216.36h2.75v2.11l-.53,4.24h-1.7l-.52-4.24Zm.1,7h2.56v2.27h-2.56Z"/><g class="cls-3"><path class="cls-16" d="M220.45,104.61l-2.32,4.92-1.95-1.43,4-3.7a.18.18,0,0,1,.29.21"/><path class="cls-16" d="M216.88,104.45l-.63,3.94-1.85-.7,2.14-3.37a.19.19,0,0,1,.34.13"/><path class="cls-16" d="M213.94,103.77l.57,4-2-.12,1-3.86a.18.18,0,0,1,.36,0"/><path class="cls-16" d="M211.92,104.55l.57,4-2-.11,1-3.86a.18.18,0,0,1,.36,0"/><path class="cls-16" d="M148.59,100.56l2.36,4.89,1.94-1.44-4-3.67a.19.19,0,0,0-.29.22"/><path class="cls-16" d="M152.16,100.36l.67,3.94,1.84-.71-2.18-3.36a.18.18,0,0,0-.33.13"/><path class="cls-16" d="M155.09,99.66l-.53,4,2-.14-1.07-3.85a.18.18,0,0,0-.36,0"/><path class="cls-16" d="M157.12,100.42l-.53,4,2-.13-1.08-3.85a.18.18,0,0,0-.36,0"/><path class="cls-18" d="M168.77,110.47a2.21,2.21,0,1,1,2.21,2.21,2.21,2.21,0,0,1-2.21-2.21"/><path class="cls-18" d="M191.84,114.07a2.21,2.21,0,1,1,2.21,2.21,2.21,2.21,0,0,1-2.21-2.21"/><path class="cls-19" d="M213,95.91c0,.65-5.24-3.87-11.16-3.87s-11.74,1.54-11.74.89c0-3,5.82-3,11.74-3S213,95.27,213,95.91"/><path class="cls-5" d="M185.43,91.12a37.94,37.94,0,0,1,.79,8.09,36.6,36.6,0,0,1-1.63,7.72,42,42,0,0,0-1.15,15.22,42.73,42.73,0,0,0,1.78,8.46c.23.69,1.32.4,1.1-.3a41.26,41.26,0,0,1-1.92-15.09,40.16,40.16,0,0,1,1.15-7.47,49.34,49.34,0,0,0,1.76-7.77,36.2,36.2,0,0,0-.79-9.16.57.57,0,0,0-.69-.4.59.59,0,0,0-.4.7"/><path class="cls-5" d="M188.38,129c.12.79.25,1.58.38,2.37l.18,1.14a2.76,2.76,0,0,1,.07.49s0,.11,0,.1,0,0,0,0a3.33,3.33,0,0,1-.49.07,4,4,0,0,0-.85.05,1.26,1.26,0,0,0-1.13,1.22.58.58,0,0,0,.57.57.56.56,0,0,0,.56-.57c0-.1,0-.05,0,0s0,0,0,0a.72.72,0,0,1,.24-.1,3.11,3.11,0,0,1,.69,0,1.49,1.49,0,0,0,1.52-.86,2.28,2.28,0,0,0,0-1.13l-.19-1.18-.39-2.43a.57.57,0,1,0-1.09.3"/><path class="cls-5" d="M183.69,135h-2.56a.57.57,0,0,0-.57.56.58.58,0,0,0,.57.57h2.56a.57.57,0,1,0,0-1.13"/><path class="cls-5" d="M179.91,134.74l0-1.49a.55.55,0,0,0-.28-.49,1.74,1.74,0,0,0-1.49.1.65.65,0,0,1-.82-.25c-.6-.74,0-1.79.34-2.54s-.65-1.23-1-.58c-.56,1.1-1.14,2.45-.4,3.61a2,2,0,0,0,1.37.94,1.69,1.69,0,0,0,.86-.12l.37-.13.13,0s.09,0,.05,0l-.28-.49c0,.5,0,1,0,1.49a.57.57,0,0,0,1.14,0"/><path class="cls-17" d="M170.38,150.41a56.44,56.44,0,0,1,11.48-1.18,84.2,84.2,0,0,1,12.58,2s-8.08,6-13.19,5.61c-4.56-.37-10.87-6.42-10.87-6.42"/><path class="cls-17" d="M171.29,151.28l10.19,2.09a.59.59,0,0,0,.7-.4.57.57,0,0,0-.4-.7l-10.19-2.09a.58.58,0,0,0-.7.4.57.57,0,0,0,.4.7"/><path class="cls-17" d="M171.27,151.24c2.87.44,5.46,2.08,8.42,2a.57.57,0,0,0,0-1.13c-2.84,0-5.36-1.59-8.12-2a.57.57,0,1,0-.3,1.09"/><path class="cls-17" d="M174.68,149.69a31.46,31.46,0,0,1,5.13-1.3,5.82,5.82,0,0,1,3,1.21,6.22,6.22,0,0,1-3,1.13,40.66,40.66,0,0,1-5.09-1"/><path class="cls-17" d="M182,149.18a5.76,5.76,0,0,1,2.92-.78,25.36,25.36,0,0,1,4.7,1.82,23,23,0,0,1-5.09.48,6.17,6.17,0,0,1-2.53-1.52"/><path class="cls-20" d="M171.94,151.25c5.64.22,11.28.49,16.92.67a32.19,32.19,0,0,0,4.71-.11c.29,0,.94-.39.87-.59s-.86-.23-1.15-.2a31.7,31.7,0,0,1-4,.09,30.82,30.82,0,0,0-4.18-.16,22,22,0,0,1-8.43-.34c-1.52-.41-4.37-.21-5.94-.27-.69,0,.53.88,1.22.91"/><path class="cls-14" d="M189.33,153c-2.63,2.36-5,2.27-5.64,1.57"/><path class="cls-6" d="M144.23,122.35c-2,0-4-4.3-4.1-8-.08-4,2.07-8.61,4.1-8.57s4,4.74,3.84,8.69c-.1,3.53-1.85,7.87-3.84,7.91"/><path class="cls-6" d="M223,128.25c-2,0-4-4.29-4.11-8-.08-4,2.07-8.6,4.11-8.56s3.94,4.73,3.83,8.68c-.1,3.54-1.85,7.88-3.83,7.91"/><path class="cls-19" d="M151.78,95.91c0,.65,5.24-3.87,11.16-3.87s11.74,1.54,11.74.89c0-3-5.82-3-11.74-3s-11.16,5.29-11.16,5.93"/><path class="cls-4" d="M155.84,84.56c0,5.09,4.58,19.93-3.13,10.8-1.78-2.11-2.91-5.71-2.91-10.8s2.71-9.21,6-9.21,0,4.12,0,9.21"/><path class="cls-21" d="M224.35,126.76c0,1.29-.67,2.34-1.51,2.34s-1.51-1-1.51-2.34.68-2.34,1.51-2.34,1.51,1,1.51,2.34"/><path class="cls-21" d="M145.5,122.28c0,1.29-.68,2.34-1.51,2.34s-1.51-1.05-1.51-2.34.67-2.34,1.51-2.34,1.51,1,1.51,2.34"/><path class="cls-22" d="M301.8,214.23h0a3.61,3.61,0,0,1-2.54-4.42L311,166.41a3.6,3.6,0,0,1,7,1.87l-11.69,43.4a3.61,3.61,0,0,1-4.42,2.55"/><path class="cls-5" d="M194.44,147.5a4.61,4.61,0,0,1,2.73,5.67"/><path class="cls-12" d="M327,186.62c.74,7.32-4.38,18.83-19.83,20.39-13.8,1.39-19.61-.58-22.19-7.47-5.34-14.24,12.87-18.27,26.08-22.53s15.12,1.47,15.94,9.61"/><path class="cls-12" d="M309.29,178.85c1.37-4.58.3-8.94-2.39-9.74s-6,2.25-7.35,6.82-.3,8.93,2.39,9.74,6-2.25,7.35-6.82"/><path class="cls-23" d="M314.9,163.43a39.14,39.14,0,0,1-2.51-10.28,40,40,0,0,1,.34-10.59,39.43,39.43,0,0,1,1.47-5.85c.23-.69-.86-1-1.09-.3a39.87,39.87,0,0,0-2,10.65,40.79,40.79,0,0,0,.91,10.8,40.18,40.18,0,0,0,1.8,5.87.58.58,0,0,0,.7.39.56.56,0,0,0,.39-.69"/><path class="cls-23" d="M317,164.57a66.31,66.31,0,0,0,7.92-7.71,23.89,23.89,0,0,0,5-9.6,16.38,16.38,0,0,0,.3-6.08.57.57,0,0,0-.7-.4.58.58,0,0,0-.39.7,16.88,16.88,0,0,1-2,9.92,32.18,32.18,0,0,1-6.49,8.29c-1.47,1.41-3,2.75-4.53,4.08a.57.57,0,0,0,0,.8.58.58,0,0,0,.8,0"/><path class="cls-23" d="M316,164c-.51-6.57-1-13.29.26-19.8a32.41,32.41,0,0,1,1.52-5.3.57.57,0,1,0-1.09-.3c-2.42,6.26-2.57,13.09-2.22,19.71.1,1.9.25,3.8.39,5.69a.6.6,0,0,0,.57.57A.58.58,0,0,0,316,164"/><path class="cls-23" d="M316.27,164.4a32.09,32.09,0,0,0,5.25-8.47,33.28,33.28,0,0,0,2.47-9.76,30.92,30.92,0,0,0,0-5.61.58.58,0,0,0-.57-.57.57.57,0,0,0-.56.57,31.47,31.47,0,0,1-.69,9.63,32,32,0,0,1-3.58,9,31.11,31.11,0,0,1-3.15,4.42.57.57,0,0,0,.8.8"/><path class="cls-23" d="M315.72,163.69q1.69-9.34,3.9-18.6.61-2.61,1.28-5.21a.57.57,0,0,0-1.1-.3q-2.34,9.21-4.18,18.54-.51,2.63-1,5.27a.57.57,0,1,0,1.09.3"/></g><g class="cls-24"><path class="cls-9" d="M334.77,138.36c-1,3.73-7.26,3.75-14.46,1.81s-12.39-5.89-11.6-8.83c1.24-4.59,7.07-2.79,14.47-1.81s12.39,5.9,11.59,8.83"/><path class="cls-9" d="M334.9,131.76c-1.57,2.72-6.63,4.15-13,2.44s-9.87-5.69-10-8.63c-.14-3.12,6.64-4.15,13-2.44s11.56,5.91,10,8.63"/><path class="cls-9" d="M334.24,125.64c.37,3.15-5.6,4.43-10.66,3.07s-9.07-5.17-7.67-8,5.59-4.43,10.65-3.07,7.34,5.2,7.68,8"/><path class="cls-9" d="M331.28,118.64c-.41,1.5-2.82,2.16-5.38,1.47s-5.27-3.21-3.92-4c5.7-3.23.74-8.3,5.41-2.24,1.62,2.11,4.29,3.24,3.89,4.75"/><path class="cls-25" d="M330.37,118.32c0,.53-1,.58-1.86.5s-11.44-2.65-2.3-1.17c2.21.35-3.78-10,2.42-1,.52.75,1.78,1.15,1.74,1.68"/><path class="cls-25" d="M333.5,139.43c-1.16.75-6.32,1.5-12.84-.25s-9.92-5-10.77-6.11c-2.59-3.29,5.34,1.17,11.87,2.93s15.25,1.17,11.74,3.43"/><path class="cls-25" d="M334.13,132.88c-1.22,1.14-6.79,2.08-13.08.49s-8.07-4.81-8.78-6.22c-1.87-3.7,4.62,1.1,11,2.08s13.92.76,10.83,3.65"/><path class="cls-25" d="M333.45,127.61c-1,1.34-3.63.08-9.92-1.51s-7.55-1.66-7.78-3.22c-.74-5,2.83,0,9.24,1s11.44-.14,8.46,3.78"/><path class="cls-20" d="M329.72,118.24c0,.22-.38.26-.76.25s-4.78-.86-1-.44c.92.1-1.78-4.07,1-.46.23.29.76.43.75.65"/><path class="cls-17" d="M321,132.85a21.36,21.36,0,0,1-5.25-2.23c-1.59-1.08-1.78-3.22-1.91-3.58-.33-1,1,1.43,2.62,2.44a46.64,46.64,0,0,1,4.54,3.37"/><path class="cls-17" d="M333.42,138.74a4.33,4.33,0,0,1-3.17,1,25.78,25.78,0,0,1-3.8-.66c-1.24-.37,1.8-.49,3.64-.31s4.44-.67,3.33-.06"/><path class="cls-20" d="M333.59,125.55c.29.26,0,1.07-.66,1.81a2,2,0,0,1-2.32.08c-.3-.26.88,0,1.53-.78s1.15-1.37,1.45-1.11"/></g><g class="cls-3"><path class="cls-12" d="M150.92,304.24c2.36,3.58,6,5.36,8.06,4s1.9-5.4-.45-9-6-5.37-8.07-4-1.89,5.4.46,9"/></g></g></g></svg>