<svg id="Layer_1" data-name="Layer 1" xmlns="http://www.w3.org/2000/svg" width="150mm" height="150mm" viewBox="0 0 425.2 425.2"><defs><style>.cls-1{fill:#b3b3b3;}.cls-2{fill:#fff;}</style></defs><path class="cls-1" d="M216.34,323.64s73.39-54.43,93.16-93.56l4.37-8.77a68.66,68.66,0,0,0,5.25-26.41c0-34.63-25-62.71-55.92-62.71-19.69,0-37,11.44-46.93,28.69-10-17.25-27.24-28.69-46.94-28.69-30.88,0-55.91,28.08-55.91,62.71a68.66,68.66,0,0,0,5.25,26.41l4.37,8.77c19.77,39.13,93.16,93.56,93.16,93.56Z"/><path class="cls-2" d="M290.9,174.19c5.91,12.62,2.4,31.35-3.53,37.81-4.06,4.43-2.93-16.82-8.84-29.44S267.37,166.5,263.2,161C257.93,154,285,161.57,290.9,174.19Z"/></svg>